<svg width="2e3" height="2e3" enable-background="new" version="1.1" viewBox="0 0 529.17 529.17" xmlns="http://www.w3.org/2000/svg"><defs><filter color-interpolation-filters="sRGB"><feBlend in2="BackgroundImage" mode="lighten"/></filter></defs><g transform="translate(0 232.17)"><path transform="matrix(.26458 0 0 .26458 0 -232.17)" d="m1001.4-2.8574a998.57 998.57 0 0 0-998.57 998.57 998.57 998.57 0 0 0 998.57 998.57 998.57 998.57 0 0 0 998.57-998.57 998.57 998.57 0 0 0-998.57-998.57zm-64.646 201.26h91.791l-207.06 1020.4 277.51-292.45c128.08-134.48 217.74-211.33 309.53-211.33 74.713 0 130.21 61.906 130.21 143.02 0 85.387-57.634 151.56-172.91 185.72l-76.85-123.81c-100.33 76.848-166.5 134.48-196.39 164.37 164.37 384.24 232.68 572.09 382.11 572.09 25.616 0 61.904-6.4029 108.87-17.076v83.252c-138.75 40.559-241.22 61.904-303.12 61.904-132.35 0-181.45-78.982-245.49-230.54l-134.48-311.66-98.195 106.73-74.713 420.53h-254.03l268.97-1400.3-189.98-17.078v-70.443z" fill="#d45500" stroke-width="1.0058"/></g></svg>
