<?xml version="1.0" standalone="no"?>
<!DOCTYPE svg PUBLIC "-//W3C//DTD SVG 1.1//EN" "http://www.w3.org/Graphics/SVG/1.1/DTD/svg11.dtd" >
<svg xmlns="http://www.w3.org/2000/svg" xmlns:xlink="http://www.w3.org/1999/xlink" version="1.1">
<metadata></metadata>
<defs>
<font id="charis_silbold_italic" horiz-adv-x="1286" >
<font-face units-per-em="2048" ascent="1638" descent="-410" />
<missing-glyph horiz-adv-x="630" />
<glyph horiz-adv-x="0" />
<glyph unicode="&#xd;" horiz-adv-x="1075" />
<glyph unicode=" "  horiz-adv-x="630" />
<glyph unicode="&#x09;" horiz-adv-x="630" />
<glyph unicode="&#xa0;" horiz-adv-x="630" />
<glyph unicode="!" horiz-adv-x="816" d="M517 140q0 -36 -14.5 -66.5t-38.5 -52.5t-56 -34.5t-68 -12.5q-34 0 -63.5 14t-51.5 38t-34.5 55.5t-12.5 66.5q0 36 13 67t35 54.5t52 37t64 13.5q39 0 71 -14.5t55 -39t36 -58t13 -68.5zM729 1325q-55 -167 -107 -326q-22 -69 -47 -142.5t-48.5 -146t-46 -140 t-41.5 -123.5h-117l50 828q0 45 17.5 82t47 64t68 41.5t78.5 14.5q79 0 112.5 -36.5t33.5 -115.5z" />
<glyph unicode="&#x22;" horiz-adv-x="808" d="M484 1438q0 -10 -11.5 -48t-30 -90.5t-41 -113.5t-43.5 -118t-38.5 -103t-24.5 -68h-80l15 503q1 29 14.5 53.5t34.5 42.5t47.5 28.5t53.5 10.5q47 0 75.5 -23t28.5 -74zM905 1438q0 -10 -11.5 -48t-30 -90.5t-41 -113.5t-43.5 -118t-38 -103t-25 -68h-80l18 503 q1 29 13.5 53.5t33.5 42.5t47.5 28.5t53.5 10.5q47 0 75 -23t28 -74z" />
<glyph unicode="#" horiz-adv-x="1593" d="M712 890l-95 -283h267l99 283h-271zM1133 890l-92 -283h333v-136h-381l-162 -522l-150 36l160 486h-269l-168 -522l-144 38l161 484h-288v136h331l92 283h-318v142h364l166 495l143 -39l-158 -456h279l160 495l148 -41l-162 -454h283v-142h-328z" />
<glyph unicode="$" d="M1190 1015h-149l4 226q2 13 -3.5 17.5t-13.5 7.5q-16 8 -41 14.5t-50.5 12.5t-47.5 9t-31 3l-88 -443q33 -9 78.5 -23.5t92.5 -36t91.5 -52.5t75.5 -74.5t44.5 -101t-1.5 -133.5q-18 -92 -67 -166.5t-121.5 -130.5t-165 -91.5t-197.5 -50.5l-44 -221h-126l44 219 q-76 3 -151 13q-65 8 -139 21.5t-139 36.5l74 372h154l-6 -232v-15q0 -4 1.5 -6t4.5 -3.5l11 -5.5q30 -18 67 -27t71 -14q38 -6 77 -7l92 474q-38 11 -82 27t-87 38t-81 53t-63.5 73.5t-35 98.5t5.5 129q13 73 43 130t68.5 100t83 73t88.5 50q104 47 226 57l33 160h126 l-32 -160q66 0 133 -10t121 -21q63 -14 122 -31zM862 363q11 54 -1.5 90.5t-36.5 61t-54.5 38.5t-55.5 21l-86 -434q54 7 102 33q20 11 40.5 27.5t38 39t31.5 53t22 70.5zM729 1299q-44 -6 -83 -29q-34 -19 -65.5 -58t-44.5 -108q-7 -33 -6 -60t8.5 -48t18 -36.5t23.5 -27.5 q28 -27 69 -40z" />
<glyph unicode="%" horiz-adv-x="1935" d="M688 1223q0 23 -3.5 50.5t-12.5 50t-27 38t-48 15.5q-44 0 -78.5 -30t-61.5 -78t-45 -107.5t-30 -117.5t-17.5 -109.5t-5.5 -82.5q0 -27 3 -57.5t14 -56.5t30.5 -43.5t53.5 -17.5q41 0 74 32t58.5 83t43.5 113.5t29.5 123t17 113t5.5 81.5zM1625 613q0 22 -3 48.5 t-12.5 49t-27.5 37.5t-47 15q-44 0 -78 -30.5t-60.5 -78t-44.5 -107.5t-30.5 -118.5t-17.5 -110t-5 -84.5q0 -25 3 -54.5t13.5 -54.5t30 -42t52.5 -17q42 0 75 32t58 82.5t43.5 113t29.5 123.5t16 113.5t5 82.5zM911 1174q0 -72 -12.5 -143t-38 -138t-64.5 -124.5t-91 -100 t-118 -67.5t-146 -25q-149 0 -223 80t-74 226q0 106 29 212.5t87.5 191.5t148 138t208.5 53q147 0 220.5 -78t73.5 -225zM486 0h-155l1179 1443h156zM1851 562q0 -72 -12.5 -144t-38.5 -138.5t-65 -123.5t-91.5 -99.5t-119 -67t-145.5 -24.5q-148 0 -220.5 78t-72.5 224 q0 70 12.5 142t37.5 138.5t64 124.5t91.5 100.5t118.5 67t147 24.5q147 0 220.5 -78t73.5 -224z" />
<glyph unicode="&#x26;" horiz-adv-x="1602" d="M486 665q-68 -54 -106 -119t-38 -146q0 -66 22.5 -116t56.5 -83.5t72 -50.5t71 -17t61.5 6.5t56.5 19t58.5 32.5t67.5 47zM878 1163q0 35 -5 67.5t-18 58t-36 40.5t-60 15q-19 0 -52 -11.5t-65 -38t-56 -69.5t-24 -105q0 -33 8 -66t21 -64.5t30.5 -61t36.5 -55.5 q50 23 90.5 51.5t69 64t44.5 78.5t16 96zM1374 656q-46 -92 -113.5 -189.5t-148.5 -182.5q39 -51 74.5 -83.5t76 -51.5t88.5 -25.5t110 -6.5v-113q-78 -3 -121 -6t-74 -4q-82 -7 -162 6q-54 12 -98.5 38t-91.5 76q-42 -28 -90 -53t-104.5 -44t-122.5 -30t-143 -11 q-101 0 -180.5 26.5t-134.5 74.5t-84 114.5t-29 146.5q0 79 29 144.5t78.5 121t116.5 102t144 86.5q-50 66 -82.5 131.5t-32.5 141.5q0 83 36 157t103.5 129t164 87.5t219.5 32.5q92 0 161.5 -24.5t116.5 -65.5t70.5 -93.5t23.5 -107.5q0 -75 -31.5 -136.5t-89 -112 t-136.5 -91t-175 -72.5l258 -333q38 50 68.5 102.5t51.5 94.5q2 3 0 11.5t-4 8.5l-127 21v117h544v-117z" />
<glyph unicode="'" horiz-adv-x="375" d="M484 1438q0 -16 -11.5 -56.5t-30 -93.5t-41 -112.5t-43.5 -113.5t-38.5 -98t-24.5 -67h-80l15 503q1 29 14.5 53.5t34.5 42.5t47.5 28.5t53.5 10.5q47 0 75.5 -23t28.5 -74z" />
<glyph unicode="(" horiz-adv-x="911" d="M991 1426q-82 -11 -149.5 -53.5t-123.5 -107.5t-101 -149t-78.5 -178t-57.5 -192.5t-39.5 -194.5t-22 -184t-6.5 -158t10.5 -137.5t39 -122t79.5 -91t131 -47.5l-24 -117q-136 4 -230.5 51.5t-153.5 128t-86 188t-27 231.5q0 128 22 268.5t67.5 278.5t115 262.5t165 221 t219 155t274.5 62.5z" />
<glyph unicode=")" horiz-adv-x="911" d="M759 944q0 -127 -21.5 -267.5t-67 -278.5t-115 -263.5t-165.5 -222t-219 -155t-274 -63.5l21 117q82 11 150 53.5t124 108t100.5 150t78.5 178.5t58.5 193t39.5 194.5t22.5 183.5t7.5 158t-10.5 137t-39.5 121t-80 90.5t-131 47.5l24 115q135 -4 229.5 -51t154 -127 t86.5 -187.5t27 -231.5z" />
<glyph unicode="*" horiz-adv-x="1075" d="M576 770l-165 -43l-7 168l230 168l29 -27zM624 1090l-280 -2l-92 139l152 63l230 -170zM938 727l-166 43l-86 266l28 27l228 -168zM690 1147h-34l-88 268l105 129l107 -129zM1002 1088l-278 2l-12 32l228 168l156 -63z" />
<glyph unicode="+" horiz-adv-x="2150" d="M1141 579v-579h-132v579h-579v133h579v578h132v-578h579v-133h-579z" />
<glyph unicode="," horiz-adv-x="689" d="M430 181q0 -63 -23.5 -127t-64.5 -125t-95 -115t-115 -95t-125.5 -67t-125.5 -30l20 105q60 8 113 31.5t95 59.5t70.5 85.5t37.5 111.5h-131q-21 20 -32 46t-11 56q0 43 18.5 82t49 69t70 47.5t84.5 17.5q72 0 118.5 -37.5t46.5 -114.5z" />
<glyph unicode="-" horiz-adv-x="748" d="M628 404h-564l45 228h564z" />
<glyph unicode="." horiz-adv-x="683" d="M411 152q0 -36 -14.5 -69t-38.5 -57t-56.5 -38t-69.5 -14t-70 14t-57.5 38t-39 57t-14.5 69q0 38 14.5 70.5t39 57t57.5 39t70 14.5t69.5 -14.5t56.5 -39t38.5 -57t14.5 -70.5z" />
<glyph unicode="/" horiz-adv-x="1077" d="M168 -200h-168l907 1643h170z" />
<glyph unicode="0" d="M952 1028q0 90 -16.5 151t-41.5 98.5t-51.5 53t-46.5 15.5q-52 0 -101.5 -40.5t-94 -109.5t-81.5 -161t-64 -195.5t-42 -212t-15 -210.5q0 -75 10.5 -127.5t26 -87.5t34.5 -56t37 -31.5t31.5 -13t18.5 -2.5q49 0 97 40.5t92.5 109t82 160.5t65.5 195t43.5 212t15.5 212z M1275 989q0 -122 -21 -244.5t-63 -236.5t-104 -213t-144.5 -172.5t-184.5 -115.5t-222 -42q-122 0 -209.5 35t-143.5 99t-82.5 153.5t-26.5 199.5q0 109 18.5 227.5t57.5 232.5t99 216.5t142.5 180t188.5 123t237 45.5q128 0 215.5 -39.5t141 -106.5t77.5 -155.5t24 -186.5z " />
<glyph unicode="1" d="M744 164q-3 -14 9 -21.5t32 -9.5l161 -14v-119h-765v121l221 12q13 0 24 9.5t13 21.5l215 1090l-334 -45v120l536 148h146z" />
<glyph unicode="2" d="M1241 1151q0 -74 -25.5 -146t-71 -141t-105.5 -135t-130 -127q-116 -102 -260 -202t-290 -200h548l74 178h166l-72 -378h-1120l28 152q234 164 407 293t287 241.5t170 217.5t56 221q0 63 -18 104t-44 66t-56.5 35t-55.5 10q-23 0 -46.5 -5t-44 -11t-37 -13.5t-27.5 -11.5 l-43 -224q-10 -6 -20.5 -16t-26.5 -19t-39.5 -16t-59.5 -7q-37 0 -67 11.5t-51.5 29.5t-33 43t-11.5 52q0 73 42 133.5t118.5 102.5t182 65t233.5 23q104 0 186.5 -20t139 -60t87 -101.5t30.5 -144.5z" />
<glyph unicode="3" d="M1237 1166q0 -54 -22 -110t-68.5 -108t-118 -98t-170.5 -78q141 -28 216 -94.5t75 -182.5q0 -67 -22 -131.5t-63.5 -123t-102 -109t-137.5 -87.5t-170.5 -58t-199.5 -21q-117 0 -198.5 24.5t-133 61t-75 79.5t-23.5 81q0 16 10.5 42t31.5 51.5t52 43t73 17.5 q25 0 44 -5.5t34.5 -14t27 -17t21.5 -12.5l35 -181q6 -4 20 -10t32.5 -12.5t38 -11t36.5 -4.5q57 0 116 26.5t108.5 75t81 116t31.5 149.5q0 50 -12.5 86t-32 60t-43 38.5t-45 21.5t-38.5 9t-22 2q-16 0 -32 -1t-38 -4t-53.5 -7.5t-77.5 -12.5l24 167q99 -5 182 15t143.5 61 t94.5 101t34 137q0 64 -22.5 105t-52 64t-57.5 31.5t-38 8.5q-29 0 -54 -5.5t-45 -14.5t-34.5 -18t-23.5 -15l-34 -205l-30 -12.5t-38 -15t-42 -12.5t-40 -5q-25 0 -50.5 11.5t-47 32t-35.5 46.5t-14 57q0 63 44 115.5t119.5 90.5t177.5 59.5t218 21.5q114 0 195.5 -22 t134.5 -63t79 -98.5t26 -127.5z" />
<glyph unicode="4" d="M390 595h337l86 435zM1182 428h-199l-95 -486h-293l97 486h-647l29 155l874 894h244l-172 -882h195z" />
<glyph unicode="5" d="M1221 1250h-626l-74 -372q33 6 75.5 10t93.5 4q93 0 175.5 -19.5t144 -62t96.5 -110t35 -162.5q0 -112 -52 -215.5t-146.5 -182.5t-226 -127t-290.5 -48q-104 0 -180.5 16t-126.5 44.5t-74 66.5t-24 82q0 29 13.5 57.5t37.5 51.5t56.5 37.5t71.5 14.5q15 0 28.5 -4 t25.5 -10t23.5 -12t23.5 -8l58 -182q6 -2 21.5 -5.5t32.5 -7.5t34.5 -6.5t28.5 -2.5q60 0 121 29.5t111.5 82t82.5 123t32 152.5t-31 132.5t-77 78t-101 37.5t-103 10q-22 0 -61 -3t-81 -6.5t-80.5 -8t-58.5 -6.5l150 725h878z" />
<glyph unicode="6" d="M888 531q0 73 -16 127t-45 90t-68 54.5t-84 18.5q-17 0 -40.5 -3.5t-53.5 -14.5t-66.5 -30.5t-79.5 -52.5q-3 -11 -10.5 -42t-14.5 -71t-12.5 -83.5t-5.5 -80.5q0 -52 3 -113t21.5 -113.5t57.5 -87.5t111 -35q46 0 99 33.5t98.5 91.5t75.5 138.5t30 173.5zM1206 585 q0 -80 -19.5 -157t-58 -146t-93.5 -127t-125.5 -100t-155 -66t-180.5 -24t-186 24.5t-160 82t-112 154t-42 240.5q0 128 32 253t95 239t155.5 213t215.5 176.5t275 129t331 70.5l2 -141q-127 -14 -237 -55t-199 -104t-154 -145t-102 -177q59 25 128.5 40.5t151.5 15.5 q107 0 189.5 -29.5t137.5 -82t83 -125t28 -159.5z" />
<glyph unicode="7" d="M1372 1340l-978 -1359l-16 -61h-309l959 1330h-585l-69 -192h-174l77 385h1114z" />
<glyph unicode="8" d="M856 396q0 44 -26 83t-69.5 73.5t-100 65.5t-118.5 59q-44 -26 -82 -59t-64.5 -72.5t-42 -85t-15.5 -99.5q0 -53 13 -100t41.5 -82t73 -55.5t108.5 -20.5q48 0 97.5 23t90.5 63.5t67.5 93.5t26.5 113zM936 1149q0 45 -8.5 82t-28 64t-51 42t-76.5 15q-39 0 -82 -20.5 t-79.5 -57t-60 -88.5t-23.5 -115q0 -39 16 -71t44.5 -60.5t70 -53.5t93.5 -49q84 51 134.5 129.5t50.5 182.5zM1230 1168q0 -82 -25.5 -144t-68.5 -109.5t-100.5 -83.5t-121.5 -66q43 -18 89 -45.5t85 -65.5t63.5 -87t24.5 -113q0 -97 -45 -185t-128.5 -155.5t-202 -108 t-264.5 -40.5q-132 0 -226.5 28t-156.5 76.5t-91 114t-29 140.5q0 51 17.5 108.5t59 115t110.5 112.5t172 101q-54 30 -87 63.5t-51.5 67.5t-25 67.5t-6.5 64.5q0 85 35.5 166.5t106.5 145t178 102.5t250 39q118 0 201 -25.5t135.5 -68.5t77 -99t24.5 -116z" />
<glyph unicode="9" d="M970 1020q0 107 -25 172.5t-58.5 100.5t-67.5 47t-51 12q-50 0 -103.5 -34t-98 -93t-73.5 -140t-29 -174q0 -80 24.5 -134.5t59 -87t69.5 -46t56 -13.5q53 0 96.5 16t76 36t54 40t29.5 29q13 68 27 134t14 135zM1288 1022q0 -157 -45 -291.5t-124 -248.5t-187.5 -209 t-234 -171.5t-263.5 -135t-276 -101.5l-59 131q109 42 207.5 88.5t189 108t172.5 143t157 191.5q-60 -21 -123.5 -33t-125.5 -12q-88 0 -167 22.5t-139 70t-95 120.5t-35 173q0 121 46.5 231.5t133 194.5t209.5 133.5t275 49.5q51 0 106.5 -6t109 -24.5t102.5 -50 t85.5 -82.5t58.5 -123t22 -169z" />
<glyph unicode=":" horiz-adv-x="683" d="M411 152q0 -36 -14.5 -69t-38.5 -57t-56.5 -38t-69.5 -14t-70 14t-57.5 38t-39 57t-14.5 69q0 38 14.5 70.5t39 57t57.5 39t70 14.5t69.5 -14.5t56.5 -39t38.5 -57t14.5 -70.5zM556 890q0 -36 -13.5 -68.5t-37.5 -57t-56.5 -38.5t-70.5 -14q-37 0 -70 14t-57.5 38.5 t-39 57t-14.5 68.5q0 37 14.5 70t39 58t57.5 39t70 14q38 0 70.5 -14t56.5 -39t37.5 -58t13.5 -70z" />
<glyph unicode=";" horiz-adv-x="683" d="M430 181q0 -63 -23.5 -127t-64.5 -125t-95 -115t-115 -95t-125.5 -67t-125.5 -30l20 105q60 8 113 31.5t95 59.5t70.5 85.5t37.5 111.5h-131q-21 20 -32 46t-11 56q0 43 18.5 82t49 69t70 47.5t84.5 17.5q72 0 118.5 -37.5t46.5 -114.5zM556 890q0 -36 -13.5 -68.5 t-37.5 -57t-56.5 -38.5t-70.5 -14q-37 0 -70 14t-57.5 38.5t-39 57t-14.5 68.5q0 37 14.5 70t39 58t57.5 39t70 14q38 0 70.5 -14t56.5 -39t37.5 -58t13.5 -70z" />
<glyph unicode="&#x3c;" horiz-adv-x="2150" d="M430 579v133l1290 494v-133l-1152 -428l1152 -428v-133z" />
<glyph unicode="=" horiz-adv-x="2150" d="M430 383v134h1290v-134h-1290zM430 774v133h1290v-133h-1290z" />
<glyph unicode="&#x3e;" horiz-adv-x="2150" d="M430 84v133l1152 428l-1152 428v133l1290 -494v-133z" />
<glyph unicode="?" horiz-adv-x="1150" d="M559 140q0 -36 -14.5 -66.5t-38.5 -52.5t-55.5 -34.5t-67.5 -12.5q-35 0 -65 14t-52 38t-34.5 55.5t-12.5 66.5q0 36 13 67t35 54.5t52.5 37t65.5 13.5q38 0 70 -14.5t54.5 -39t36 -58t13.5 -68.5zM1104 1149q0 -74 -24 -138.5t-65.5 -120t-96.5 -102t-118 -82t-130 -60 t-132 -37.5l-37 -183h-146l56 286q75 16 146 54.5t125.5 95.5t87 127.5t32.5 151.5q0 55 -18.5 94t-50 63.5t-74 36t-91.5 11.5l-127 -247q-2 -2 -9.5 -4.5t-15.5 -5t-14.5 -4t-7.5 -1.5q-28 0 -56.5 3.5t-52.5 15t-39.5 32.5t-15.5 55q0 52 22 93.5t59 73.5t84.5 55 t98 37.5t100.5 21t92 6.5q77 0 152.5 -18t134 -58t95 -102t36.5 -150z" />
<glyph unicode="@" horiz-adv-x="2012" d="M1888 792q0 -107 -23.5 -199t-64 -168t-94.5 -135.5t-116 -100t-128 -61.5t-128 -21q-50 0 -83 12.5t-54.5 33t-32.5 48t-15 57.5q-34 -28 -68.5 -55t-71.5 -48t-75.5 -33.5t-79.5 -12.5q-74 0 -129.5 27t-93.5 74.5t-57.5 112.5t-19.5 143q0 121 45 227.5t121.5 187 t180 127t219.5 46.5q26 0 51.5 -6t50.5 -16t49 -21.5t45 -21.5l28 54h181l-11 -40q-7 -32 -18 -78t-24.5 -103t-26.5 -114q-32 -136 -71 -304q-8 -35 -12 -64.5t0 -50.5t18 -32.5t44 -11.5q21 0 52 16t64 47.5t65.5 78.5t58 107t42 134t16.5 162q0 101 -24 183.5t-65 146.5 t-97.5 111t-119.5 77.5t-131 45t-134 14.5q-114 0 -217 -28t-193 -78.5t-163.5 -124t-126 -165.5t-81 -199.5t-28.5 -228.5q0 -166 51.5 -305t146 -241t228 -158.5t297.5 -56.5q85 0 161.5 14t148 38t140 57t137.5 71l45 -107q-73 -38 -150.5 -73t-161.5 -62t-177 -43 t-195 -16q-126 0 -240.5 26.5t-213 78t-179 125t-137 167.5t-87.5 206t-31 240q0 157 38 290t105.5 241t161 190.5t204 138.5t235 84t253.5 28q175 0 316.5 -46t241.5 -133.5t154 -215.5t54 -290zM1225 835q3 12 -1.5 31.5t-16 37.5t-31.5 31t-47 13q-65 0 -122.5 -34.5 t-100.5 -96t-68 -146.5t-25 -185q0 -61 12 -103.5t32 -69t44 -39t49 -12.5q35 0 63 13.5t50.5 33.5t41.5 43t34 42z" />
<glyph unicode="A" horiz-adv-x="1537" d="M823 1084l-240 -417h312zM841 0v107q17 2 34 3.5t32 3.5q17 3 33 5q21 2 32.5 7t8.5 24l-63 394h-407l-212 -394q-10 -16 -1.5 -22.5t29.5 -8.5q16 -2 35 -5q16 -2 36 -3.5t41 -3.5v-107h-553v107l124 14l796 1356h254l235 -1325q3 -21 11 -26.5t32 -8.5q14 -1 31 -4 q15 -2 32.5 -3t34.5 -3v-107h-595z" />
<glyph unicode="B" horiz-adv-x="1395" d="M1325 1161q0 -78 -26 -139t-72 -108.5t-108 -82.5t-134 -61q70 -13 125.5 -35t93.5 -56t58 -81.5t20 -111.5q0 -128 -48.5 -220.5t-137 -151t-214 -86.5t-280.5 -28h-635v107q27 2 51 4t43 5q22 2 42 3q18 0 28 5.5t13 27.5l224 1141q3 17 -6 23.5t-29 8.5q-19 1 -40 3 q-18 2 -41 4t-47 4v107h649q136 0 227 -22t145.5 -60t76.5 -89.5t22 -110.5zM957 464q0 66 -23.5 109t-62.5 69t-90 36t-108 10q-58 0 -119 -7l-109 -560q23 -2 46 -2h40q96 0 174 21.5t134 65t87 108t31 150.5zM995 1147q0 51 -20.5 86t-54.5 56t-78.5 30.5t-92.5 9.5 q-18 0 -35.5 -1t-32.5 -1l-100 -521q17 -2 32 -2h21q80 0 146.5 26t114.5 71.5t74 108t26 137.5z" />
<glyph unicode="C" horiz-adv-x="1444" d="M1410 1009h-158l2 241q2 12 -7 28t-26 21q-8 4 -31 12.5t-52 16t-59.5 13t-54.5 5.5q-68 0 -139.5 -24t-138.5 -71t-126 -115t-103.5 -156.5t-70 -195.5t-25.5 -232q0 -123 35.5 -209t93 -141t128 -80t139.5 -25q23 0 50.5 3t52.5 8t45.5 10.5t29.5 10.5q17 2 25.5 12.5 t13.5 22.5l103 283h162l-66 -389q-41 -15 -94 -31.5t-115 -30t-132 -22.5t-145 -9q-121 0 -216 25t-166.5 68.5t-121.5 102t-81 127t-45 142t-14 146.5q0 111 28 221t81.5 210t132 186t179.5 149.5t223.5 99t265.5 35.5q62 0 118.5 -6.5t112 -18t112.5 -28.5t121 -37z" />
<glyph unicode="D" horiz-adv-x="1533" d="M1172 909q0 89 -19 153t-51.5 108.5t-77 71.5t-96 42.5t-107.5 21t-111 8.5h-31l-232 -1181h109q95 1 177.5 30.5t150.5 81.5t121.5 124t90.5 157.5t56.5 182.5t19.5 200zM1494 890q0 -192 -67 -355t-193 -282t-307 -186t-408 -67h-552v107q25 2 48 4t41 3q21 2 41 3 q26 2 34 7.5t13 27.5l224 1141q3 18 -8 24t-31 8q-20 1 -40 3q-18 2 -40 4l-44 4v107h558q167 0 302 -30.5t230.5 -97.5t147 -172t51.5 -253z" />
<glyph unicode="E" horiz-adv-x="1290" d="M1270 1104h-171v182q0 16 -16 22t-34 6h-370l-96 -499h242q17 0 36.5 8t24.5 24l45 151h157l-99 -506h-158l21 162q1 6 -3.5 11.5t-11.5 9.5t-16 6.5t-17 2.5h-248l-107 -555h458q17 0 36.5 8.5t24.5 22.5l68 214h170l-75 -374h-1164v107q25 2 48.5 4t41.5 5q21 2 40 3 q24 2 34 7t13 26l224 1141q5 18 -6.5 24t-32.5 8q-19 1 -39 3q-18 2 -40 4t-43 4v107h1133z" />
<glyph unicode="F" horiz-adv-x="1195" d="M1245 1079h-174v207q0 16 -15.5 22t-33.5 6h-343l-100 -520h227q16 0 35.5 6.5t24.5 22.5l43 156h160l-99 -508h-162l25 161q1 15 -16.5 23t-34.5 8h-230l-100 -513q-4 -19 7.5 -24t32.5 -7q20 -1 44 -3q19 -3 44 -5t52 -4v-107h-665v107q23 2 44.5 4t38.5 5q20 2 40 3 q24 2 36.5 7t17.5 26l224 1141q3 18 -8.5 24t-32.5 8q-19 1 -39 3q-18 2 -40 4t-43 4v107h1111z" />
<glyph unicode="G" horiz-adv-x="1569" d="M1395 589q-14 -2 -20 -10t-10 -23l-99 -500q-45 -13 -103.5 -28.5t-126 -29.5t-138.5 -23.5t-139 -9.5q-137 0 -239 29.5t-174.5 79t-120 113t-74.5 131.5t-37.5 136t-10.5 125q0 133 36 251.5t100.5 219t154.5 179.5t198 134.5t231 84.5t252 29q61 0 114 -4.5t105 -14.5 t106.5 -25t119.5 -35l-79 -392h-183l20 244q2 18 -16.5 29t-40.5 20q-10 3 -28.5 10t-42 13.5t-50 12t-51.5 5.5q-66 0 -137.5 -24t-140.5 -71t-130.5 -116t-108.5 -157t-74.5 -195t-27.5 -231q0 -87 20.5 -153.5t54 -116.5t75 -83t83 -53.5t78 -29.5t61.5 -9q21 0 45.5 3 t47.5 8t44 10t35 9l84 425q4 20 -5.5 26.5t-35.5 8.5q-18 0 -38 2q-18 1 -39.5 2.5t-42.5 4.5v110h644v-110z" />
<glyph unicode="H" horiz-adv-x="1649" d="M1602 1323q-20 -2 -27.5 -10t-11.5 -23l-223 -1140q-3 -18 6.5 -23.5t30.5 -7.5q18 -1 39 -3q18 -3 40.5 -5t47.5 -4v-107h-652v107l48 4q24 2 43 5q22 2 42 3q20 2 32 8t15 25l105 538h-581l-104 -540q-4 -19 3.5 -24t34.5 -7q19 -1 40 -3q18 -3 40.5 -5t46.5 -4v-107 h-650v107q25 2 48.5 4t41.5 5q21 2 40 3q23 2 33.5 8t13.5 25l224 1141q3 18 -7.5 24t-33.5 8q-19 1 -39 3q-18 2 -39.5 4t-43.5 4v107h649v-107q-26 -2 -49.5 -4t-42.5 -4q-22 -2 -42 -3q-21 -2 -31.5 -9t-13.5 -26l-92 -471h580l93 474q3 18 -8 25t-37 9q-19 1 -39 2 q-18 1 -39.5 3t-42.5 4v107h650v-107z" />
<glyph unicode="I" horiz-adv-x="765" d="M708 1325q-17 -2 -23.5 -11t-9.5 -24l-223 -1140q-4 -18 3.5 -23.5t28.5 -7.5q20 -1 42 -3q19 -3 43 -5t51 -4v-107h-653v107q25 2 47.5 3t40.5 3q21 3 39 4q25 2 36 7.5t14 27.5l224 1141q5 18 -6.5 24t-32.5 8q-19 1 -39 3q-18 2 -40 4t-43 4v107h649v-107z" />
<glyph unicode="J" horiz-adv-x="1096" d="M1034 1323q-14 0 -20 -9t-10 -24l-138 -738q-23 -127 -57 -234.5t-97 -185.5t-165.5 -122.5t-260.5 -44.5q-72 0 -128 9.5t-97 22t-67 25t-37 17.5l73 374h177v-271q0 -9 10 -16.5t24.5 -13.5t31 -9.5t28.5 -3.5q94 0 153.5 107.5t99.5 329.5l143 757q3 18 -7.5 24 t-31.5 8q-20 1 -41 3q-17 2 -40.5 4t-45.5 4v107h649v-107z" />
<glyph unicode="K" horiz-adv-x="1501" d="M1389 1318l-554 -528l298 -568q19 -36 31 -58t24.5 -35t28.5 -18t41 -6q8 0 29 1.5t44 3t41.5 3t20.5 1.5v-108q-58 -18 -122.5 -29.5t-123.5 -11.5q-65 0 -111 9.5t-79 30t-57.5 52.5t-47.5 76l-259 493h-49l-95 -476q-3 -21 7 -26t28 -7q18 -1 37 -4q16 -2 35 -3t39 -3 v-107h-630v107q21 2 44.5 3t44.5 3q24 3 47 4q17 0 27.5 7t13.5 28l226 1141q5 18 -3.5 25t-24.5 9q-18 1 -37 2q-16 1 -36 3t-41 4v107h609v-107q-22 -2 -43.5 -4t-38.5 -3q-19 -1 -37 -2q-16 -2 -26 -9t-15 -28l-92 -467h17l484 472q16 14 9.5 22t-28.5 10q-19 0 -38 2 q-17 1 -37 3t-38 4v107h626v-107z" />
<glyph unicode="L" horiz-adv-x="1204" d="M1049 0h-1082v107q23 2 44.5 4t38.5 3l40 3q31 3 41 8.5t13 26.5l224 1141q5 17 -6 23.5t-29 8.5q-19 1 -40 3q-18 2 -40.5 4t-45.5 4v107h649v-107q-28 -2 -52.5 -4t-44.5 -4q-23 -2 -43 -3q-15 -2 -25.5 -9t-15.5 -26l-228 -1161h378q17 0 36.5 8.5t24.5 22.5l88 275 h161z" />
<glyph unicode="M" horiz-adv-x="1943" d="M1886 1320q-15 -2 -20.5 -8.5t-10.5 -21.5l-221 -1140q-3 -19 7.5 -24t31.5 -7q19 -1 40 -3q17 -3 39 -5t46 -4v-107h-649v107q24 2 47 4t42 5q22 2 42 3q18 0 31 7t16 26l161 831l-559 -983h-211l-174 968l-152 -818q-6 -18 4 -23.5t25 -7.5q20 -1 41 -3q18 -3 41.5 -5 t48.5 -4v-107h-582v107q22 2 43 4t38 5q20 2 39 3q23 2 37 7t19 26l222 1141q3 18 -7.5 24t-31.5 8q-20 1 -40 3q-18 2 -40 4l-44 4v107h571v-71l164 -904l505 895v80h587v-107z" />
<glyph unicode="N" horiz-adv-x="1619" d="M1574 1323q-30 -5 -37 -33l-255 -1290h-239l-481 1000l-166 -850q-3 -19 6.5 -24t32.5 -7q19 -1 39 -3q17 -3 38.5 -5t46.5 -4v-107h-589v107q23 2 44.5 4t39.5 5q20 2 38 3q24 2 36.5 7t17.5 26l222 1141q5 18 -6.5 24t-32.5 8q-19 1 -39 3q-18 2 -39.5 4t-43.5 4v107 h505v-66l419 -876l157 792q6 18 -8 24t-33 8q-20 1 -39 3q-18 2 -40 4t-43 4v107h589v-107z" />
<glyph unicode="O" horiz-adv-x="1617" d="M1241 897q0 108 -28 192t-72.5 141.5t-100 87.5t-111.5 30q-64 0 -125.5 -32.5t-116 -88.5t-100.5 -133.5t-79 -166t-52 -185.5t-19 -194q0 -111 29 -195t74 -141t100 -85t109 -28q63 0 124 33t116 90.5t101 135t79.5 166t52.5 184t19 189.5zM1576 897q0 -111 -23 -222.5 t-70 -215t-117 -194t-163.5 -157t-211 -105t-258.5 -38.5q-150 0 -267 45t-198 125t-123 190t-42 241q0 111 25.5 222.5t75.5 212.5t122.5 188.5t166.5 151.5t208.5 100t246.5 36q156 0 273.5 -47.5t196 -128t118.5 -185.5t40 -219z" />
<glyph unicode="P" horiz-adv-x="1307" d="M1318 1092q0 -126 -49 -229t-140.5 -177t-221 -114.5t-290.5 -40.5h-44q-26 0 -48 2l-78 -383q-3 -19 6.5 -24t32.5 -7q19 -1 40 -3q18 -3 40.5 -5t46.5 -4v-107h-650v107q23 2 45 4t40 5q20 2 40 3q21 2 33.5 7t18.5 26l225 1141q4 18 -8.5 24t-32.5 8q-18 1 -38 3 q-18 2 -40 4t-43 4v107h579q152 0 255 -28t165.5 -75.5t89 -111.5t26.5 -136zM1004 1058q0 127 -72.5 194.5t-215.5 67.5h-37l-131 -657q63 -3 134 10.5t137 53.5q39 23 72.5 54.5t58.5 72.5t39.5 91.5t14.5 112.5z" />
<glyph unicode="Q" horiz-adv-x="1617" d="M1241 895q0 104 -26 187.5t-68.5 142t-97 90t-109.5 31.5q-65 0 -128 -31t-120 -86t-104.5 -130.5t-83 -164.5t-55 -187.5t-19.5 -200.5q0 -103 26.5 -186.5t70 -142t101 -91t119.5 -32.5q61 0 122 33t116.5 90t102 134t80.5 166.5t53.5 185.5t19.5 192zM1643 -232 q-14 -7 -57.5 -25.5t-101 -38t-123.5 -34t-126 -14.5q-100 0 -171 25.5t-121.5 68t-84.5 98.5t-62 117q-15 -2 -32 -3t-37 -1q-140 0 -255.5 41.5t-198.5 119.5t-128.5 187.5t-45.5 246.5q0 108 25.5 218t76 212.5t123.5 191.5t167.5 156t209.5 105t249 38q154 0 270.5 -46 t195 -126t118.5 -185.5t40 -224.5q0 -57 -7 -126.5t-26.5 -144.5t-52.5 -153t-85 -153t-126 -144.5t-173 -126.5q30 -54 53 -99.5t49.5 -77.5t60 -49.5t83.5 -17.5q29 0 58 6.5t64 19t76.5 31.5t94.5 43v-135z" />
<glyph unicode="R" horiz-adv-x="1468" d="M1413 6q-49 -21 -96.5 -31t-105.5 -10q-100 0 -164 23.5t-105 68t-64 109.5t-41 150q-7 32 -15 67t-19 69.5t-26.5 66t-38 56.5t-52.5 39t-71 14q-13 0 -32 -1t-37 -1l-90 -476q-3 -18 5 -23.5t29 -7.5q19 -2 41 -5q18 -2 42 -3.5t49 -3.5v-107h-650v107q24 2 46.5 3 t40.5 3q21 3 40 4q20 2 32 8t17 27l220 1141q5 17 -5.5 23.5t-31.5 8.5q-20 1 -40 3q-18 2 -40 4l-44 4v107h620q109 0 202 -17t162.5 -55.5t109 -99.5t39.5 -151q0 -85 -33 -153.5t-91 -123t-136.5 -95t-170.5 -67.5q62 -28 100 -62t61 -76.5t37 -93.5t30 -111 q15 -57 29 -100t42 -72.5t75.5 -44t129.5 -14.5v-101zM1006 1088q0 52 -16 90t-40.5 63.5t-55 41.5t-61 24t-57 10t-43.5 1l-54 -4l-105 -557h15q9 0 18 1q10 0 21 1q41 1 85 9.5t86 24t79.5 41t65.5 61.5t45 84t17 109z" />
<glyph unicode="S" horiz-adv-x="1210" d="M1122 1056h-163l9 224q0 5 -20 16.5t-50.5 23.5t-65.5 21t-64 9q-42 0 -90.5 -19t-90 -54.5t-69.5 -87t-28 -116.5q0 -57 31 -99.5t77 -74.5t98 -56.5t94 -44.5q57 -29 112.5 -61.5t98 -73.5t68 -94t25.5 -124q0 -49 -13.5 -103t-44 -107.5t-80 -102.5t-121.5 -86 t-168 -59t-220 -22q-88 0 -165 15.5t-137.5 36t-100.5 40.5t-54 29l74 353h184l-24 -256q-1 -7 28 -21t70 -28t84.5 -24.5t71.5 -10.5q48 0 101.5 18t98 55.5t73.5 93.5t29 132q0 52 -32 93t-77.5 73t-97.5 57.5t-91 45.5q-58 29 -112 61t-96 71.5t-67.5 89t-25.5 113.5 q0 104 41.5 191t119.5 150t190 98.5t253 35.5q73 0 134 -7.5t112 -20.5t91.5 -28t73.5 -30z" />
<glyph unicode="T" horiz-adv-x="1350" d="M1410 1067h-167l11 230q1 13 -15.5 20.5t-32.5 7.5h-234l-221 -1175q-3 -19 9 -24t32 -7q19 -1 40 -3q17 -3 40 -5l44 -4v-107h-649v107q21 2 41.5 3t37.5 3q20 3 39 4q22 2 38.5 8t19.5 27l222 1173h-222q-7 0 -16.5 -2t-18.5 -6.5t-16 -9.5t-9 -12l-82 -228h-168 l74 376h1281z" />
<glyph unicode="U" horiz-adv-x="1610" d="M1559 1325q-14 -2 -22.5 -11t-11.5 -24l-166 -828q-22 -112 -70 -203.5t-126 -156.5t-189.5 -101t-259.5 -36q-120 0 -215.5 22.5t-162 69.5t-103 119.5t-36.5 172.5q0 30 7 89.5t22 131.5l150 723q3 18 -8.5 24t-34.5 8q-18 1 -38 3q-18 2 -39.5 4t-42.5 4v107h649v-107 q-25 -2 -48.5 -4t-42.5 -4q-22 -2 -42 -3q-19 -2 -30.5 -9t-14.5 -26l-148 -720q-13 -62 -19 -111t-6 -79q0 -68 22 -116.5t58.5 -79t83 -44t95.5 -13.5q84 0 145 31t104.5 85.5t71.5 130t46 164.5l151 755q4 18 -5 24t-36 8q-20 1 -39 3q-18 2 -40 4t-43 4v107h576v-107z " />
<glyph unicode="V" horiz-adv-x="1473" d="M1512 1323l-742 -1358h-247l-211 1332q-3 21 -17.5 26.5t-32.5 5.5q-13 0 -28 1q-12 1 -27 1.5t-29 2.5v109h579v-109q-18 -2 -34 -2.5t-31 -0.5h-32q-17 0 -29.5 -6t-8.5 -26l139 -897l478 897q4 10 2.5 16.5t-6.5 9.5t-12.5 4t-13.5 2h-35q-16 0 -35.5 0.5t-37.5 2.5 v109h529v-107z" />
<glyph unicode="W" horiz-adv-x="2084" d="M2109 1323l-646 -1358h-220l-110 987l-468 -987h-235l-110 1332q-2 21 -13 25.5t-38 6.5q-14 0 -30 1q-13 1 -29.5 1.5t-31.5 2.5v109h587v-109q-18 -2 -36.5 -2.5t-33.5 -1.5q-18 -1 -32 -1t-25.5 -5t-9.5 -25l62 -759l432 903h259l94 -922l364 778q4 10 3 16.5t-7 9.5 t-15.5 4t-21.5 2h-33q-15 0 -31.5 0.5t-32.5 2.5v109h540v-107z" />
<glyph unicode="X" horiz-adv-x="1451" d="M1415 1325q-23 -2 -34 -11t-16 -15l-470 -527l281 -630q8 -16 17 -19.5t22 -5.5q18 -1 37 -3q16 -1 37.5 -3t46.5 -4v-107h-646v107q21 2 43 3t40 3q20 3 40 4q12 1 22 2t17 4t8.5 9t-2.5 16l-166 379l-346 -379q-8 -8 -5.5 -18.5t20.5 -12.5l136 -10v-107h-591v107 q14 2 30.5 3t28.5 3q15 3 29 4q13 1 22.5 1.5t17 3t14 7t14.5 13.5l533 589l-257 570q-8 18 -18 21t-34 5q-17 0 -35 2q-15 1 -34.5 3t-38.5 4v107h649v-107q-26 -2 -50.5 -4t-45.5 -3q-24 -1 -45 -2q-15 0 -26.5 -6.5t-3.5 -25.5l146 -329l294 329q9 8 11 18t-19 12 l-116 11v107h577v-107z" />
<glyph unicode="Y" horiz-adv-x="1464" d="M1482 1325q-12 -2 -23 -11t-16 -15l-546 -695l-91 -454q-5 -19 5.5 -24t33.5 -7q19 -1 39 -3q18 -3 39.5 -5t44.5 -4v-107h-650v107q21 2 43 4t40 5q20 2 40 3q21 2 34.5 7t19.5 26l88 435l-241 714q-5 18 -19.5 21t-34.5 5q-16 0 -35 2q-16 1 -35.5 3t-36.5 4v107h646 v-107q-24 -2 -47.5 -4t-42.5 -3q-22 -2 -42 -2q-18 0 -30.5 -6.5t-4.5 -27.5l148 -468l355 470q7 8 2.5 19t-28.5 13l-126 9v107h608v-107z" />
<glyph unicode="Z" horiz-adv-x="1298" d="M1350 1336l-1001 -1203h529q16 0 35 9t25 24l77 279h181l-86 -445h-1155l21 105l998 1204h-447q-17 0 -36.5 -6.5t-24.5 -22.5l-68 -229h-181l78 392h1077z" />
<glyph unicode="[" horiz-adv-x="963" d="M1045 1393h-329l-310 -1553h331l-25 -124h-595l357 1806h597z" />
<glyph unicode="\" horiz-adv-x="1062" d="M895 -200l-895 1643h168l895 -1643h-168z" />
<glyph unicode="]" horiz-adv-x="963" d="M509 -284h-597l26 124h331l307 1553h-331l26 129h595z" />
<glyph unicode="^" horiz-adv-x="730" d="M673 1184l-144 205l-228 -205h-178l312 369h253l166 -369h-181z" />
<glyph unicode="_" horiz-adv-x="735" d="M564 -357h-735l35 173h734z" />
<glyph unicode="`" horiz-adv-x="911" d="M585 1184l-349 190q-11 7 -20.5 18t-17 23.5t-11.5 25.5t-4 24q0 19 6 39.5t20.5 36.5t38 26.5t58.5 10.5q22 0 38.5 -3t32 -11t30.5 -21t34 -33l294 -326h-150z" />
<glyph unicode="a" horiz-adv-x="1221" d="M806 847q1 5 -0.5 21.5t-6 35t-11.5 32.5t-16 14q-70 0 -126 -25t-100.5 -68t-77 -100t-54 -120.5t-32 -129.5t-10.5 -127q0 -43 1.5 -86t12.5 -78.5t36.5 -58t74.5 -22.5q34 0 65 16t57 36.5t45.5 41.5t30.5 31q7 43 12 67t8.5 45.5t9 48.5t15.5 78t25.5 133.5 t40.5 214.5zM1215 64q-37 -15 -77.5 -30.5t-82.5 -28.5t-84 -22t-83 -9q-68 0 -113.5 25t-66.5 72q-29 -19 -61.5 -36.5t-68 -30.5t-73.5 -21.5t-77 -8.5q-66 0 -118.5 17.5t-92.5 48t-67.5 70.5t-45.5 83.5t-26.5 89t-8.5 85.5q0 79 17.5 162.5t53.5 162.5t91 148.5 t129.5 121.5t169.5 82t210 30q48 0 94.5 -12.5t83.5 -32.5l15 19h230q-5 -16 -13.5 -36t-16.5 -38.5t-15 -34t-8 -22.5l-140 -709q0 -24 1.5 -41t8 -27t18 -14t30.5 -4q4 0 31 6t59 14.5t60 15.5t37 9v-104z" />
<glyph unicode="b" horiz-adv-x="1144" d="M778 660q0 68 -10.5 115.5t-27 78t-35.5 44t-38 13.5q-45 0 -100.5 -28t-104.5 -70l-120 -643q17 -27 49 -51.5t83 -24.5q35 0 71.5 24t70 64.5t63.5 95t52 117.5t34.5 131t12.5 134zM1077 669q0 -64 -13.5 -140.5t-45 -154t-81.5 -149.5t-122 -128t-168 -89.5 t-219 -33.5q-117 0 -214 29t-175 79l251 1340l-189 16v78l363 68h147l-112 -578q59 30 120 49.5t118 19.5q86 0 150 -38t106.5 -97t63 -131.5t20.5 -139.5z" />
<glyph unicode="c" horiz-adv-x="1034" d="M968 916q0 -19 -9.5 -47.5t-33 -54.5t-63.5 -44.5t-101 -18.5l-118 167q-61 -14 -105 -50.5t-74.5 -86t-50 -106.5t-30 -109.5t-14.5 -95t-4 -64.5q0 -49 4.5 -98t19.5 -87.5t45 -63t83 -24.5q39 0 80 11.5t89 43t105 87t130 142.5v-214q-44 -53 -94.5 -95t-109 -72 t-125 -46t-143.5 -16q-98 0 -169.5 29.5t-117.5 83t-68.5 129t-22.5 167.5q0 140 44 265.5t127.5 220.5t203.5 150.5t274 55.5q64 0 111 -15t77.5 -38.5t45 -51.5t14.5 -54z" />
<glyph unicode="d" horiz-adv-x="1216" d="M808 847q2 5 -5.5 21.5t-20 35.5t-30 33.5t-36.5 14.5q-57 0 -118 -42t-113 -118t-86 -182t-34 -234q0 -130 31.5 -189.5t91.5 -59.5q28 0 55.5 13.5t55.5 37t55.5 52t55.5 60.5zM979 193q-6 -26 -3 -43.5t8.5 -27.5t14 -13.5t14.5 -3.5q22 0 49.5 7t55.5 17t52.5 21 t42.5 20v-106q-28 -16 -66.5 -32t-82.5 -29t-90 -21t-88 -8q-82 0 -129 27t-65 77q-28 -22 -61.5 -41t-68.5 -33t-70.5 -22t-70.5 -8q-93 0 -160 34.5t-109.5 90.5t-62.5 125.5t-20 138.5q0 82 18 167t54 164t90.5 148.5t126.5 121t163 81.5t199 30q40 0 72 -9.5t53 -16.5 l64 373l-193 16v78l363 68h146z" />
<glyph unicode="e" horiz-adv-x="1032" d="M716 852q0 18 -2.5 36.5t-10.5 33.5t-23 23.5t-40 8.5q-50 0 -89.5 -35.5t-70 -90.5t-52.5 -120.5t-36 -124.5q55 12 113 37.5t104.5 60.5t76.5 78t30 93zM995 849q0 -56 -25.5 -104.5t-70.5 -88.5t-105.5 -72t-129.5 -55t-143 -37t-145 -21q-2 -19 -4 -44.5t-2 -43.5 q0 -55 8 -102.5t27 -82t50 -54t76 -19.5q35 0 70.5 13.5t83 45.5t110.5 84.5t151 129.5v-205q-31 -30 -81.5 -68.5t-114.5 -72t-137.5 -56t-152.5 -22.5q-70 0 -139.5 17.5t-124.5 63t-90 122.5t-35 197q0 82 20.5 166t58.5 161.5t92.5 146t123.5 118.5t150.5 79.5 t173.5 29.5q79 0 136.5 -26t95.5 -62.5t55.5 -74.5t17.5 -63z" />
<glyph unicode="f" horiz-adv-x="778" d="M1036 1441q0 -25 -7 -48.5t-27.5 -43.5t-57 -35.5t-92.5 -23.5l-134 128q-44 -39 -70.5 -97t-42.5 -119.5t-23.5 -118.5t-13.5 -96h263v-127h-285q-4 -30 -12.5 -90.5t-19.5 -138t-24 -163.5t-25.5 -165.5t-24.5 -146.5t-21 -105q-14 -56 -39 -118.5t-60.5 -123 t-80.5 -115t-98 -96t-114 -66t-128 -24.5q-46 0 -79.5 16t-55.5 39t-32.5 49.5t-10.5 45.5q0 43 27 86t71 73l194 -123q25 36 46 84t38 105t32.5 121.5t28.5 133.5q27 149 48.5 329.5t51.5 386.5l-164 -17l5 101l185 64q10 53 28 116.5t46 128.5t67 125.5t92.5 108 t122.5 75.5t156 28q60 0 104.5 -14.5t75 -36t45.5 -46.5t15 -46z" />
<glyph unicode="g" horiz-adv-x="1044" d="M699 -178q0 36 -23 68.5t-83 60.5l-240 105q-36 -14 -60 -34t-39.5 -44.5t-21.5 -53t-6 -57.5q0 -35 10.5 -76.5t36 -77.5t69 -60.5t110.5 -24.5q73 0 121 21t76 51t39 63t11 59zM675 774q0 38 -1 72.5t-9 60.5t-24.5 41.5t-47.5 15.5q-18 0 -50 -25t-63.5 -71.5 t-54.5 -111t-23 -143.5q0 -38 2.5 -69t10.5 -53.5t24 -35t43 -12.5q54 0 90.5 33t59 83t33 107.5t10.5 107.5zM948 897q10 -24 17 -59.5t7 -74.5q0 -79 -31 -155t-91 -134.5t-149.5 -94.5t-205.5 -37q-12 -30 -17.5 -61t-1.5 -49l285 -129q52 -22 94 -44.5t72 -50t46 -62 t16 -81.5q0 -69 -47 -133t-128 -114t-188.5 -80t-229.5 -30q-128 0 -216 28.5t-143 74.5t-79 103.5t-24 115.5q0 54 22 100.5t61 84t91.5 66.5t113.5 50q-5 25 0 57t16 65.5t27.5 64t37.5 52.5q-43 20 -79 45.5t-63 58t-41.5 73.5t-14.5 91q0 51 12.5 103t39 100t65.5 90.5 t93.5 74.5t122.5 50.5t151 18.5q41 0 78.5 -5.5t69 -14.5t56 -18t40.5 -15h314v-125h-199z" />
<glyph unicode="h" horiz-adv-x="1214" d="M1211 60q-81 -39 -163.5 -62.5t-167.5 -23.5q-38 0 -77.5 8t-70 25.5t-46 46.5t-7.5 71l129 626q9 39 4 68.5t-16.5 50t-28 31t-32.5 10.5q-24 0 -54.5 -12t-64 -33.5t-69 -50.5t-67.5 -62l-158 -753h-285l296 1422l-189 16v78l363 68h149l-129 -608q65 40 148 69.5 t179 29.5q80 0 134 -22t83.5 -62t36.5 -96t-7 -123l-120 -569q-6 -28 -2 -45.5t12.5 -29t19 -16.5t19.5 -5q47 0 88.5 17t90.5 44z" />
<glyph unicode="i" horiz-adv-x="666" d="M663 69q-97 -52 -184 -73.5t-180 -21.5q-59 0 -99 20t-63.5 51.5t-30.5 70.5t1 79l136 714l-185 20v75l355 71h151l-166 -862q-4 -19 -5 -36.5t2.5 -31.5t14 -22.5t29.5 -8.5q8 0 33 5.5t57.5 15t67.5 23t66 29.5v-118zM634 1426q0 -35 -13 -65.5t-36 -53.5t-53.5 -36 t-65.5 -13q-34 0 -64 13t-52.5 36t-35.5 53.5t-13 65.5t13 65t35.5 52.5t52.5 35.5t64 13q35 0 65.5 -13t53.5 -35.5t36 -52.5t13 -65z" />
<glyph unicode="j" horiz-adv-x="683" d="M439 181q-10 -55 -32.5 -126t-56.5 -145.5t-79 -147t-101 -129t-121 -91t-139 -34.5q-38 0 -72 9t-59.5 26t-40.5 39.5t-15 49.5q0 20 6.5 36.5t19 30t28 25.5t34.5 24l204 -54q14 24 29.5 57.5t29.5 73t25.5 81.5t19.5 81l158 920l-185 20v77l357 71h142zM669 1426 q0 -35 -13.5 -65.5t-37 -53.5t-54.5 -36t-65 -13q-35 0 -65.5 13t-52.5 36t-35 53.5t-13 65.5t13 65t35 52.5t52.5 35.5t65.5 13q34 0 65 -13t54.5 -35.5t37 -52.5t13.5 -65z" />
<glyph unicode="k" horiz-adv-x="1182" d="M1157 56q-27 -14 -65 -28.5t-80 -26t-85 -19.5t-80 -8q-29 0 -59.5 10.5t-59 27t-52 37.5t-38.5 43q-17 28 -42 76t-51 103.5l-52 111t-46 99.5l-45 -41l-90 -441h-286l288 1422l-189 16v78l363 68h146l-180 -883l241 247q66 69 125 98t122 29q39 0 72.5 -11t58 -29.5 t38.5 -40.5t14 -44q0 -19 -5 -46t-23 -56t-53.5 -57t-97.5 -49l-86 140q-25 -22 -54.5 -50t-58.5 -55.5t-55.5 -53.5t-46.5 -44q14 -27 31.5 -69t37 -90.5t41 -98.5t45.5 -94q23 -42 44 -81t42 -69.5t44 -49t51 -18.5q2 0 43.5 12t132.5 49v-114z" />
<glyph unicode="l" horiz-adv-x="658" d="M654 62q-79 -40 -169.5 -64t-174.5 -24q-107 0 -166.5 44.5t-59.5 119.5q0 17 1.5 36.5t6.5 40.5l235 1207l-189 16v78l363 68h142l-265 -1365q-3 -18 -2.5 -36.5t6.5 -34t19 -25t34 -9.5q25 0 84 15.5t135 48.5v-116z" />
<glyph unicode="m" horiz-adv-x="1776" d="M1770 62q-82 -42 -158 -65t-159 -23q-49 0 -91.5 10t-73 30.5t-45.5 49.5t-6 69l117 573q44 201 -40 201q-48 0 -89.5 -20.5t-73.5 -48.5t-55 -57.5t-33 -47.5l-156 -733h-283l148 708q6 31 12 66.5t3 64.5t-17.5 48.5t-49.5 19.5q-33 0 -68 -18.5t-66.5 -45.5t-59 -58 t-48.5 -56l-154 -729h-285l189 914l-181 17v73l355 71h148l-25 -123q78 54 159.5 88.5t156.5 34.5q44 0 79.5 -12.5t62.5 -33t46 -46.5t31 -54q42 32 89.5 58.5t96 46t95.5 30.5t89 11q57 0 105 -20t80.5 -56.5t45.5 -88.5t-1 -116l-123 -579q-9 -46 2.5 -77t52.5 -31 q10 0 31 4.5t46.5 11.5t51.5 17t49 22v-100z" />
<glyph unicode="n" horiz-adv-x="1243" d="M1235 49q-29 -13 -71 -27t-88.5 -24.5t-93 -17t-83.5 -6.5q-36 0 -77.5 5t-75.5 20t-53.5 41t-11.5 69l132 656q8 39 7.5 66t-8.5 43.5t-21 23.5t-30 7q-25 0 -57.5 -14.5t-69 -39t-73.5 -56.5t-71 -66l-152 -729h-287l189 914l-180 17v73l353 71h149l-26 -125 q38 26 82 49.5t88.5 40t89 26t86.5 9.5q80 0 132 -18.5t78.5 -54t31.5 -88t-8 -120.5l-116 -605q-6 -26 -1 -42.5t14 -26t19.5 -12.5t18.5 -3q34 0 82 13t97 34z" />
<glyph unicode="o" horiz-adv-x="1189" d="M813 660q0 79 -16 136t-38.5 93.5t-48 54t-45.5 17.5q-33 0 -67 -21.5t-66 -60t-60.5 -91.5t-50 -115.5t-33.5 -132.5t-12 -142q0 -83 16 -141.5t40 -94.5t49 -53t44 -17q57 0 109 51.5t91.5 133.5t63.5 183t24 200zM1122 652q0 -85 -18.5 -168t-55.5 -158t-90.5 -139.5 t-123 -112t-154 -74t-181.5 -26.5q-111 0 -191.5 31.5t-133.5 86.5t-79 131t-26 167q0 84 18.5 167t53.5 160t87.5 142t121.5 113.5t153.5 75.5t184.5 27q98 0 178.5 -26.5t137 -79.5t87.5 -132.5t31 -184.5z" />
<glyph unicode="p" horiz-adv-x="1163" d="M794 660q0 46 -4.5 92.5t-18 85t-39 63t-67.5 24.5q-23 0 -50 -12.5t-54 -31t-50.5 -38.5t-39.5 -35l-131 -662q13 -8 29.5 -18t34.5 -18.5t35.5 -15t31.5 -6.5q46 0 87.5 25t77 68t65 99t50 120t32 130.5t11.5 129.5zM1094 669q0 -86 -21 -171t-60.5 -162.5t-97 -143.5 t-131 -114.5t-163 -76t-191.5 -27.5q-39 0 -69 5.5t-51 12.5l-65 -319q-3 -14 5.5 -24t26.5 -10q15 -1 37 -3q19 -2 46.5 -4.5t65.5 -5.5v-97h-633v97q17 2 39.5 3t42.5 3q23 3 47 5q17 2 25.5 12t11.5 24l244 1238l-179 20v73l354 71h145l-16 -80q17 10 44 23.5t60.5 26 t72 21.5t81.5 9q85 0 147 -36t102.5 -94t60 -130.5t19.5 -145.5z" />
<glyph unicode="q" horiz-adv-x="1225" d="M823 839q3 10 -3 30t-16.5 39.5t-24 34t-24.5 14.5q-68 0 -137.5 -42.5t-125 -119t-90 -183.5t-34.5 -236q0 -58 6 -105t21 -80t40.5 -51.5t65.5 -18.5q32 0 60 12.5t52.5 31.5t47.5 41t45 42zM878 -327q-4 -14 0.5 -24t22.5 -10q18 -1 41 -3q20 -2 49 -4.5t65 -5.5v-97 h-633v97q15 1 37 3t43 5q25 3 51 5q31 3 37 34l76 374q-65 -37 -129 -57t-123 -20q-86 0 -150 27t-106.5 78.5t-63.5 125.5t-21 167q0 80 18.5 163.5t56.5 162.5t93 148t128 121t162.5 82t194.5 30q53 0 101.5 -11t85.5 -28l34 39h209z" />
<glyph unicode="r" horiz-adv-x="900" d="M981 923q0 -75 -47.5 -112t-157.5 -37l-58 116q-50 -25 -96 -60t-81.5 -77t-60.5 -89.5t-35 -95.5l-121 -568h-285l189 909l-181 20v75l357 71h148l-27 -144q28 30 62.5 56t72 46t77.5 31t80 11q42 0 73 -15t51 -37.5t30 -49.5t10 -50z" />
<glyph unicode="s" horiz-adv-x="892" d="M847 909q0 -72 -41 -106.5t-139 -41.5l-111 187q-7 2 -15 4t-18.5 3.5t-21.5 1.5q-33 0 -50.5 -13.5t-26.5 -33.5t-11 -43.5t-2 -43.5q0 -33 16.5 -64.5t44 -61.5t61.5 -59t69 -55q36 -29 70.5 -58.5t61 -63t42.5 -69t16 -74.5q0 -62 -29.5 -124t-89.5 -110.5t-150 -79 t-211 -30.5q-85 0 -146.5 17t-101.5 46t-59.5 66t-19.5 75q0 29 10.5 55t28 46.5t38.5 32.5t43 12q47 0 79.5 -14t53.5 -37l-38 -127q11 -16 32 -28.5t45.5 -21t50.5 -12.5t48 -4q65 0 97 44.5t32 120.5q0 32 -12.5 61t-35.5 56.5t-55.5 54t-72.5 57.5q-34 25 -66 55.5 t-57 64.5t-40.5 72t-15.5 78q0 76 36 137t95.5 104.5t138.5 66.5t165 23q67 0 116.5 -18.5t82 -44t48 -54.5t15.5 -49z" />
<glyph unicode="t" horiz-adv-x="740" d="M525 899l-135 -665q-12 -50 10.5 -80.5t73.5 -30.5q25 0 60 8.5t73 20t73.5 24.5t61.5 21v-117q-18 -9 -63 -26t-102.5 -35t-119.5 -31.5t-113 -13.5q-62 0 -108 14.5t-76.5 40.5t-45.5 61.5t-15 77.5q0 21 1.5 42t6.5 44l131 641l-154 -17v88l183 72l109 222h215 l-45 -243h299v-118h-320z" />
<glyph unicode="u" horiz-adv-x="1234" d="M1230 60q-22 -12 -60.5 -27t-85.5 -28t-97 -22t-97 -9q-55 0 -90 11.5t-54 27.5t-27.5 33.5t-10.5 29.5q-72 -50 -155 -76t-188 -26q-79 0 -134.5 27t-87.5 68t-42 90t0 93l139 659l-180 20v73l355 71h149l-177 -823q-5 -25 -2.5 -48t12 -40.5t25.5 -28t36 -10.5 q36 0 70 10t66 28t62.5 41t59.5 50l168 795h286l-177 -834q-12 -60 5 -86t51 -26q8 0 19 2.5t30.5 10.5t50.5 23t81 42v-121z" />
<glyph unicode="v" horiz-adv-x="1094" d="M1106 938q0 -28 -5.5 -53t-13 -46t-15.5 -37.5t-14 -25.5q-72 -132 -155 -252.5t-164.5 -223.5t-154 -185.5t-124.5 -140.5h-210q27 55 39 96.5t10 77.5q0 3 -2 32t-5.5 74t-9 103.5t-11.5 120.5t-13.5 125t-15.5 117t-16.5 96.5t-16.5 63.5q-5 11 -9 18.5t-9 11.5 t-13.5 5t-23.5 1q-22 1 -46 3q-21 1 -47.5 2t-54.5 2v77l256 75q112 -2 172.5 -41t68.5 -120l59 -555q39 54 76 101.5t69.5 94.5t60.5 94t49 98l-60 273q27 26 73.5 40.5t96.5 14.5q38 0 70.5 -9.5t56.5 -27.5t38 -43.5t14 -56.5z" />
<glyph unicode="w" horiz-adv-x="1614" d="M1623 940q0 -45 -23 -107.5t-61.5 -135t-87.5 -151t-102 -155t-105 -146.5t-95 -126.5t-73.5 -94.5t-41.5 -50h-213l-43 615q-42 -83 -87 -167.5t-91 -164.5t-89.5 -152t-82.5 -131h-221l23 59l-58 878l-164 18v69l289 77l155 -26l40 -649q37 71 75 149t75 157 t73.5 159.5t69.5 158.5l245 25l52 -756q36 53 78.5 114.5t84 125t78.5 127.5t64 122l-82 229q4 6 15 17.5t28.5 21t42 17.5t58.5 8q44 0 76.5 -15.5t54 -37.5t32.5 -45.5t11 -36.5z" />
<glyph unicode="x" horiz-adv-x="1239" d="M1260 940q0 -21 -3 -49.5t-17.5 -53.5t-45 -43t-84.5 -18l-95 112q-26 -19 -60.5 -51.5t-71 -76t-70 -96.5t-58.5 -114q5 -19 16.5 -53t26 -74t30 -81t30.5 -73q15 -33 26 -62t22.5 -51t25 -34.5t32.5 -12.5q8 0 22.5 1t34.5 7.5t47 19.5t63 37v-125q-37 -22 -72.5 -36 t-72.5 -23t-77.5 -12.5t-87.5 -3.5q-52 0 -96.5 35t-80 88.5t-62 116.5t-42.5 119q-9 -14 -26.5 -45.5t-44.5 -71.5t-60.5 -83t-73.5 -78t-84 -58t-91 -23q-38 0 -74 8.5t-63.5 24.5t-44.5 40t-17 56q0 25 6.5 54.5t26 54.5t56 42t96.5 17l82 -127q28 24 61.5 59.5 t68.5 81.5t67 100.5t57 117.5q-5 21 -16 58t-26 80.5t-31 88.5t-32 81.5t-29 60.5t-21 25l-213 26v66q13 5 38.5 13.5t57.5 18t65.5 19t63 17.5t51.5 13t29 5q50 0 89.5 -24t71.5 -68.5t58.5 -107.5t49.5 -142q38 57 83 117t96 110.5t105.5 82.5t111.5 32q32 0 64 -10 t57 -27.5t40 -43t15 -54.5z" />
<glyph unicode="y" horiz-adv-x="1167" d="M1118 886q-12 -12 -36.5 -45.5t-50 -75t-50 -85.5t-39.5 -76q-23 -52 -55 -125t-71.5 -157t-85 -174.5t-96.5 -177.5q-53 -94 -114.5 -178t-133 -147t-154.5 -100t-181 -37q-65 0 -108.5 16.5t-69.5 42t-36.5 53.5t-10.5 51q0 27 8 57t28.5 57t54 45t83.5 20l92 -164 q146 32 325 359q-2 13 -10.5 56t-20.5 105t-27.5 137t-31.5 152q-16 73 -29.5 147.5t-25.5 134.5t-21 97t-17 37l-228 18v66q13 5 37 12.5t54.5 16.5t63 18t62.5 16.5t53.5 12t35.5 4.5q36 0 65.5 -4.5t55.5 -25t48.5 -63t45.5 -118.5q11 -37 23.5 -86.5t25 -107t26 -119.5 t26.5 -125l295 649h103l204 -64v-57z" />
<glyph unicode="z" horiz-adv-x="1056" d="M361 197l136 29q57 -31 95 -49.5t75 -18.5q11 0 31 5t41.5 13.5t39.5 19.5t25 23l-129 138q5 7 22 21.5t40 27.5t50 23t54 10q35 0 60 -17t41.5 -41t24 -52t7.5 -50q0 -51 -29.5 -105t-81 -98t-119 -72t-142.5 -28q-55 0 -104 14t-87.5 31t-65.5 31t-37 14 q-15 0 -27 -1.5t-19 -10.5l-79 -138l-218 119l710 817l-135 -29q-57 31 -94.5 50t-73.5 19q-12 0 -32 -5t-41 -14t-39 -20t-26 -22l127 -136q-5 -9 -21 -23.5t-39 -27.5t-50 -23t-54 -10q-34 0 -59.5 17t-41.5 41t-24 51.5t-8 49.5q0 51 30 105t81.5 98.5t118.5 73t143 28.5 q54 0 103 -14.5t88 -32t65.5 -31.5t37.5 -14q15 0 26 2t19 10l59 136l236 -120z" />
<glyph unicode="{" horiz-adv-x="1064" d="M1073 1400q-40 0 -79 -6q-33 -5 -70.5 -16.5t-67.5 -35.5q-38 -32 -59 -78.5t-34 -101.5t-23.5 -115t-28.5 -118.5t-48 -112t-82 -94.5q-41 -32 -81.5 -51t-74 -28.5t-59.5 -12.5q-17 -2 -27 -2q10 -1 26 -3q23 -3 53 -13t63 -29t61 -52q36 -42 44.5 -95t4 -111 t-18 -117.5t-21.5 -114t-5.5 -101.5t28.5 -78q20 -24 52.5 -35.5t63.5 -17.5q36 -5 75 -5l-23 -118h-42q-28 0 -66 1.5t-81.5 6t-84.5 14.5t-76 26t-57 40q-40 43 -50.5 101.5t-4.5 123.5t21 131.5t26 127.5t10.5 111t-25.5 82q-25 31 -63.5 44.5t-74.5 17.5q-42 4 -86 -1 l23 128q44 -6 87 -2q37 3 80.5 16t80.5 45q38 31 58.5 82t33.5 112t25 128t32 131.5t54 123.5t92 102q32 24 73.5 40t86 26t89.5 14.5t83.5 6t66.5 1.5h41z" />
<glyph unicode="|" horiz-adv-x="855" d="M336 -554v2266h184v-2266h-184z" />
<glyph unicode="}" horiz-adv-x="1064" d="M976 564q-44 5 -87 1q-37 -4 -81 -17.5t-81 -44.5q-38 -33 -58 -83t-33 -111t-24.5 -128t-31.5 -131.5t-53 -122.5t-90 -101q-32 -24 -74 -40t-87 -26t-90 -14.5t-83.5 -6t-67.5 -1.5h-41l23 118q39 0 77 5q34 6 71 17.5t67 35.5q38 31 59 77.5t34 101t23 114t28 117.5 t47.5 111.5t81.5 95.5q39 32 79 51t74 29t59 13t36 4q-7 0 -30.5 2t-54 11.5t-63.5 28.5t-61 52q-36 42 -45 96t-3.5 112t18.5 118t21.5 115t6.5 101t-29 78q-19 24 -51.5 35.5t-62.5 16.5q-36 6 -77 6l24 118h41q30 0 67.5 -1.5t81 -6t85 -14.5t76.5 -26t58 -40 q40 -44 50 -102.5t3.5 -123t-21.5 -131.5t-26 -128t-10.5 -112t25.5 -82q25 -32 63 -45t73 -16q42 -4 88 2z" />
<glyph unicode="~" horiz-adv-x="1791" d="M1606 645q-65 -47 -121 -78t-106 -50t-96 -27t-91 -8q-79 0 -153 22.5t-147 49.5t-147.5 49.5t-153.5 22.5q-74 0 -173 -46t-233 -147v203q122 93 227 129.5t192 36.5q61 0 118.5 -13t113.5 -32t112 -40.5t112 -37.5q34 -9 67.5 -15t66.5 -6q34 0 74 8.5t90 30t111 59 t137 93.5v-204z" />
<glyph unicode="&#xa1;" horiz-adv-x="730" d="M458 148q-2 -45 -21.5 -77.5t-49.5 -54t-66.5 -32t-72.5 -10.5q-63 0 -105 32.5t-42 104.5q0 14 14.5 65t38.5 125t55 165.5t63 186t63 185.5t57 166h115zM671 1297q0 -36 -14.5 -66.5t-39.5 -52.5t-57 -34.5t-68 -12.5q-34 0 -63.5 14t-51.5 38.5t-34 55.5t-12 66 q0 36 12.5 67t34.5 54.5t52 37t65 13.5q38 0 70 -14.5t56 -39t37 -58t13 -68.5z" />
<glyph unicode="&#xa2;" d="M1151 720h-145q0 3 2 19t4.5 38t3.5 47t-1 47.5t-8 38.5t-20 19q-5 2 -17 6.5t-29 8.5t-36.5 8.5t-38.5 6.5l-169 -869q34 2 66.5 8t44.5 11q32 5 49 30.5t26 60t16 72t19 66.5h147l-56 -295q-62 -20 -147 -40t-187 -27l-43 -212h-166l43 217q-117 14 -197.5 58 t-130.5 105t-71.5 134t-21.5 145q0 111 43 220t124.5 197.5t199 150t267.5 78.5l39 204h168l-39 -200q39 -3 77 -9t76.5 -14.5t77.5 -20.5l88 -23zM697 933q-65 -25 -125 -71.5t-106.5 -114t-74.5 -153.5t-28 -190q0 -58 14 -104.5t37.5 -81.5t54.5 -60.5t67 -40.5z" />
<glyph unicode="&#xa3;" d="M1316 1301q0 -82 -55.5 -124t-156.5 -57l-93 216q-69 -5 -120.5 -41t-88.5 -89.5t-60.5 -118t-38.5 -126t-23.5 -113t-12.5 -78.5h391v-130h-420q-26 -139 -101.5 -259.5t-203.5 -212.5q46 13 95 18t85 5h607v-191h-1126v142q102 21 162.5 68t97.5 119q19 39 32 78 t22.5 78t17.5 78l14 77h-149v130h168q3 30 11.5 76t25 102t41.5 117t60.5 119.5t84 111.5t110.5 93.5t139.5 64t172.5 23.5q54 0 110 -10.5t101 -32t73 -54.5t28 -79z" />
<glyph unicode="&#xa4;" horiz-adv-x="1311" d="M998 921q0 67 -26 127t-70 105t-104 72t-127 27q-70 0 -131 -26t-107 -71t-72 -106t-26 -131t26 -130t72 -105t107.5 -70.5t130.5 -25.5q68 0 128 26.5t104 72.5t69.5 106.5t25.5 128.5zM1170 344l-222 222q-59 -50 -130.5 -76t-146.5 -26q-81 0 -153.5 24.5t-132.5 77.5 l-221 -222l-78 77l222 222q-48 58 -71.5 128.5t-23.5 146.5q0 38 6 76t18 75t30.5 71t44.5 62l-226 226l78 78l226 -226q57 47 131 70.5t150 23.5q75 0 145 -24.5t126 -71.5l228 228l77 -78l-223 -224q45 -56 70.5 -132t25.5 -151q0 -77 -23 -148.5t-71 -129.5l221 -222z " />
<glyph unicode="&#xa5;" d="M1363 1309l-303 -388h213v-119h-305l-147 -187h392v-118h-421l-72 -347q-3 -19 7.5 -24t33.5 -7q19 -1 39 -3q18 -3 39.5 -5t44.5 -4v-107h-650v107q22 2 43.5 4t39.5 5q20 2 40 3q21 2 34.5 7t19.5 26l69 345h-420v118h428l-62 187h-305v119h266l-129 390l-139 25v107 h614v-107q-24 -2 -46 -4t-39 -3q-19 -2 -37 -2q-18 -2 -30.5 -7.5t-4.5 -26.5l148 -468l353 470q9 8 5 19t-28 13l-108 9v107h548v-107z" />
<glyph unicode="&#xa6;" horiz-adv-x="742" d="M316 -426v861h110v-861h-110zM316 722v860h110v-860h-110z" />
<glyph unicode="&#xa7;" horiz-adv-x="1163" d="M778 656q0 31 -9.5 59t-31.5 55t-58 53t-90 53q-47 -24 -79.5 -55t-53 -66t-30 -69.5t-9.5 -63.5q0 -35 8 -63.5t28.5 -55t56 -53.5t92.5 -58q78 51 127 118.5t49 145.5zM1104 1192h-164l8 182q-22 15 -51 24t-55.5 14.5t-47.5 7.5t-29 2q-13 0 -44.5 -10t-64 -31.5 t-57.5 -56t-25 -83.5q0 -33 18.5 -60.5t48.5 -51.5t69.5 -45.5t82 -44.5t85 -47.5t79.5 -53.5q50 -42 83 -96t33 -130q0 -64 -26.5 -123.5t-71.5 -110.5t-104 -93t-124 -71q75 -42 121 -97.5t46 -128.5q0 -86 -41 -158t-112.5 -123.5t-167.5 -79.5t-206 -28 q-108 0 -196.5 21t-164.5 56l52 293h170l-8 -202q24 -14 52.5 -22.5t56 -13t49 -6t28.5 -1.5q15 0 48 10.5t66.5 33t59.5 57.5t26 85q0 38 -17.5 67t-47 52.5t-68 44t-81 42.5t-87.5 48t-85 58q-51 42 -82 97.5t-31 132.5q0 71 23 130t64.5 108t99.5 88.5t127 69.5 q-72 44 -116 97.5t-44 126.5q0 92 42.5 162t115.5 116.5t171.5 70t210.5 23.5q42 0 87 -4t89.5 -12t86 -19.5t75.5 -26.5z" />
<glyph unicode="&#xa8;" horiz-adv-x="748" d="M466 1406q0 -30 -11.5 -57t-31.5 -47.5t-47 -32t-58 -11.5q-30 0 -57.5 11.5t-47.5 32t-31.5 47.5t-11.5 57t11.5 57.5t31.5 48t47.5 32t57.5 11.5q31 0 58 -11.5t47 -32t31.5 -48t11.5 -57.5zM918 1406q0 -30 -11.5 -57t-31.5 -47.5t-47.5 -32t-57.5 -11.5 q-31 0 -57.5 11.5t-46.5 32t-31 47.5t-11 57t11 57.5t31 48t46.5 32t57.5 11.5q30 0 57.5 -11.5t47.5 -32t31.5 -48t11.5 -57.5z" />
<glyph unicode="&#xa9;" horiz-adv-x="1799" d="M1307 299q-39 -15 -87 -27q-41 -11 -98 -19t-127 -8q-114 0 -210 34t-165.5 99.5t-107.5 160t-38 214.5q0 104 36 196t105 160.5t167 108.5t222 40q72 0 129 -9t95 -21q46 -12 79 -28v-260h-121l-29 172q-13 10 -30 19q-16 7 -39 13.5t-54 6.5q-85 0 -145.5 -37 t-98 -94.5t-55 -129t-17.5 -141.5q0 -85 21 -157.5t61.5 -125.5t98 -83t129.5 -30q28 0 51 4.5t41 10.5q20 6 37 15l29 185h121v-269zM1671 753q0 102 -26 196t-73 175t-113.5 148.5t-147 115t-173.5 74t-194 26.5q-100 0 -193 -26t-174 -73.5t-148.5 -115t-115 -149 t-74 -176.5t-26.5 -199q0 -100 26 -193.5t73 -174.5t113.5 -148t147.5 -115.5t174.5 -74.5t194.5 -26t194.5 26.5t174 75t147.5 115.5t114 149t73 175.5t26 194.5zM1774 753q0 -116 -29.5 -223t-84 -200t-130.5 -169.5t-169 -130.5t-199.5 -84t-221.5 -30t-220.5 30t-198 84 t-168.5 130.5t-130 169.5t-84 200t-30 223q0 114 30 221.5t84.5 199.5t130.5 169t169 131.5t200 84.5t221 30q113 0 218.5 -30t198 -84t168.5 -131t131 -169.5t84.5 -199.5t29.5 -222z" />
<glyph unicode="&#xaa;" horiz-adv-x="793" d="M638 1331q1 4 0 13.5t-4 21t-7 19.5t-10 8q-68 0 -116.5 -32.5t-81 -83t-47.5 -110.5t-15 -116q0 -25 0.5 -51.5t8 -47.5t24 -34t49.5 -13q22 0 41.5 9.5t36 22t29.5 25t20 19.5q5 25 8.5 38.5t6 26t5.5 29.5t9.5 47.5t17 80.5t25.5 128zM763 640h-675l21 107h676z M905 862q-48 -18 -103.5 -36t-109.5 -18q-92 0 -118 58q-36 -22 -84 -40t-96 -18q-65 0 -110.5 23.5t-72.5 58.5t-39 76t-12 77q0 72 25.5 148t79 137.5t136 101t194.5 39.5q31 0 62 -8.5t55 -19.5l8 10h150q-4 -9 -9 -20.5t-10.5 -23t-10 -20t-5.5 -13.5l-91 -426 q0 -29 6.5 -40t31.5 -11q3 0 20.5 3.5t38.5 9t40 9.5t24 6v-63z" />
<glyph unicode="&#xab;" horiz-adv-x="999" d="M495 735l-273 -216l191 -226l-39 -207l-348 347l30 167l480 348zM940 735l-275 -216l191 -226l-39 -207l-349 347l31 167l480 346z" />
<glyph unicode="&#xac;" horiz-adv-x="1333" d="M1118 406v368h-1032v129h1161v-497h-129z" />
<glyph unicode="&#xad;" horiz-adv-x="748" d="M628 404h-564l45 228h564z" />
<glyph unicode="&#xae;" horiz-adv-x="1799" d="M1774 753q0 -116 -29.5 -223t-84 -200t-130.5 -169.5t-169 -130.5t-199.5 -84t-221.5 -30t-220.5 30t-198 84t-168.5 130.5t-130 169.5t-84 200t-30 223q0 114 30 221.5t84.5 199.5t130.5 169t169 131.5t200 84.5t221 30q113 0 218.5 -30t198 -84t168.5 -131t131 -169.5 t84.5 -199.5t29.5 -222zM1671 753q0 102 -26 196t-73 175t-113.5 148.5t-147 115t-173.5 74t-194 26.5q-100 0 -193 -26t-174 -73.5t-148.5 -115t-115 -149t-74 -176.5t-26.5 -199q0 -100 26 -193.5t73 -174.5t113.5 -148t147.5 -115.5t174.5 -74.5t194.5 -26t194.5 26.5 t174 75t147.5 115.5t114 149t73 175.5t26 194.5zM1445 306q-46 -7 -76 -8t-58 -1q-69 0 -115 18t-76.5 47.5t-49.5 67t-33.5 77t-29 77.5t-37 67t-56 47t-87.5 18q-8 0 -11 1t-16 1v-303q0 -15 10.5 -23.5t22.5 -8.5l78 -7v-70h-425v70l76 7q12 0 21.5 8.5t9.5 23.5v722 q0 14 -9.5 21.5t-21.5 9.5l-76 8v71h478q25 0 58 -3.5t67.5 -13t67.5 -25.5t58.5 -42.5t41.5 -63t16 -86.5q0 -71 -28 -117t-67.5 -73t-82 -39t-71.5 -16q60 -12 97 -36.5t60.5 -56.5t37 -68.5t24 -72t22.5 -67t33.5 -54t56 -33t90.5 -4.5v-70zM1058 964q0 89 -54.5 132 t-158.5 43h-45v-361q19 -2 30 -2h17q33 0 70 7t68.5 27.5t52 57t20.5 96.5z" />
<glyph unicode="&#xaf;" horiz-adv-x="730" d="M868 1260h-733l35 173h731z" />
<glyph unicode="&#xb0;" horiz-adv-x="687" d="M495 1311q0 32 -12 59.5t-32.5 47.5t-47.5 32.5t-59 12.5q-31 0 -59 -12.5t-48.5 -32.5t-32 -47.5t-11.5 -59.5q0 -31 11.5 -58.5t32 -48t48.5 -32t59 -11.5q32 0 59 11.5t47.5 32t32.5 48t12 58.5zM581 1311q0 -49 -18.5 -92t-50.5 -75t-75 -50.5t-93 -18.5 q-49 0 -92 18.5t-75.5 50.5t-51 75t-18.5 92q0 50 18.5 93t51 75.5t75.5 51t92 18.5q50 0 93 -18.5t75 -51t50.5 -75.5t18.5 -93z" />
<glyph unicode="&#xb1;" horiz-adv-x="2150" d="M430 0v133h1290v-133h-1290zM1141 770v-387h-132v387h-579v133h579v387h132v-387h579v-133h-579z" />
<glyph unicode="&#xb2;" horiz-adv-x="836" d="M936 1514q0 -61 -30 -118.5t-79.5 -111.5t-111.5 -103.5t-125.5 -93t-124 -80.5t-104.5 -65h357l47 107h108l-46 -226h-728l20 91q152 98 264.5 176t186.5 145.5t110 130.5t36 132q0 38 -12 63t-29.5 39t-37.5 19.5t-35 5.5q-29 0 -57 -8t-42 -15l-29 -133q-7 -4 -14 -10 t-17 -11.5t-26 -9.5t-39 -4q-47 0 -76 24t-29 56q0 44 27.5 80.5t76.5 61.5t118 39t152 14q135 0 212 -47.5t77 -147.5z" />
<glyph unicode="&#xb3;" horiz-adv-x="836" d="M931 1522q0 -32 -14 -65t-44 -64.5t-76.5 -59t-110.5 -47.5q92 -17 139.5 -56.5t47.5 -109.5q0 -58 -31.5 -115.5t-90 -102t-141.5 -72.5t-187 -28q-75 0 -129 15t-87.5 37t-49 47t-15.5 47q0 10 6.5 26t20.5 31.5t35 26.5t48 11q33 0 50.5 -11.5t32.5 -18.5l22 -110 q4 -2 13 -5l21 -7t24.5 -6.5t23.5 -2.5q37 0 76 16t71 44.5t53 69t21 89.5q0 46 -17.5 72t-40 39.5t-43 17t-26.5 3.5q-9 0 -19.5 -1t-24.5 -3.5t-34.5 -5t-50.5 -6.5l15 101q64 -3 118 8.5t93.5 36t61.5 61t22 82.5q0 39 -14.5 63t-34 37.5t-38 18.5t-25.5 5 q-37 0 -63.5 -12t-37.5 -20l-21 -121l-20 -7.5t-25.5 -9.5t-27.5 -8t-27 -3q-15 0 -31.5 7.5t-31 19.5t-23 27.5t-8.5 33.5q0 38 28.5 69.5t78 54t115.5 35.5t141 13q147 0 214.5 -50t67.5 -137z" />
<glyph unicode="&#xb4;" horiz-adv-x="689" d="M876 1465q0 -11 -4.5 -24t-12 -25.5t-17.5 -23.5t-23 -18l-345 -190h-152l295 326q18 20 33.5 33t31 21t32.5 11t39 3q35 0 58.5 -10.5t37.5 -26.5t20.5 -36.5t6.5 -39.5z" />
<glyph unicode="&#xb5;" horiz-adv-x="1253" d="M1200 254q-17 -63 -43 -114.5t-64.5 -88.5t-90.5 -57t-120 -20q-36 0 -64 15t-48.5 40t-34.5 56t-19 61q-35 -40 -69.5 -72t-74 -54t-84.5 -34t-101 -12q-15 0 -36 9t-42.5 22t-40.5 27t-30 26q-11 -57 -13.5 -102t-1 -86.5t5 -85t3.5 -98.5q0 -32 -15.5 -61.5t-41 -52 t-57 -36.5t-62.5 -14q-22 0 -42.5 9t-37 24.5t-26.5 35t-10 41.5q0 38 8.5 63t21 46t27.5 42.5t27 52.5q31 74 49.5 151t33.5 155l181 907h268l-137 -698q-5 -23 -8 -47t-3 -48q0 -18 5.5 -39.5t16.5 -40t26.5 -32t38.5 -13.5q33 0 64.5 14t60 34.5t54 44.5t48.5 45l156 780 h273l-162 -817q-2 -9 -3.5 -28t-0.5 -38t7.5 -33t20.5 -14q24 0 42.5 14.5t32 35.5t23.5 44t18 41h71z" />
<glyph unicode="&#xb6;" horiz-adv-x="1150" d="M1011 1299v-1469h-157v1475h-164v-724q-127 0 -233.5 18t-184 66t-120.5 131t-43 213q0 123 37 206t105.5 133.5t167.5 72.5t221 22h504v-123z" />
<glyph unicode="&#xb7;" horiz-adv-x="404" d="M329 731q0 -26 -10 -49.5t-27 -40.5t-40 -27t-49 -10q-28 0 -51 10t-39.5 27t-26.5 40.5t-10 49.5t10 49.5t26.5 40.5t39.5 27t51 10q26 0 49 -10t40 -27t27 -40.5t10 -49.5z" />
<glyph unicode="&#xb8;" horiz-adv-x="529" d="M365 -243q0 -63 -27 -110.5t-71.5 -79t-100.5 -48t-112 -16.5q-34 0 -64.5 3.5t-54.5 8.5q-27 4 -52 11l23 109q23 -6 46 -10q20 -3 43 -5.5t44 -2.5t45 3.5t45 13t35 27t14 44.5q0 30 -23.5 44.5t-55.5 14.5q-6 0 -14 -0.5t-17 -1.5l-19 -2l48 240h110l-24 -117 q3 -1 7 -1q5 -1 23 -1q33 0 60.5 -7t48 -22.5t32 -39t11.5 -55.5z" />
<glyph unicode="&#xb9;" horiz-adv-x="836" d="M628 921q-2 -7 7.5 -11.5t20.5 -6.5l105 -8v-72h-496v72l141 8q10 0 17 6t10 14l137 651l-215 -25v70l349 90h94z" />
<glyph unicode="&#xba;" horiz-adv-x="771" d="M638 1219q0 47 -10.5 81.5t-25 56.5t-32 32.5t-30.5 10.5q-32 0 -65 -28.5t-60 -75t-43.5 -107.5t-16.5 -126q0 -51 10 -85.5t24.5 -56t31 -31.5t28.5 -10q37 0 71 30.5t60.5 79t42 109t15.5 120.5zM701 640h-635l22 107h632zM841 1215q0 -76 -28 -149t-80.5 -130 t-128 -92.5t-169.5 -35.5q-73 0 -126 18.5t-87.5 51.5t-51 79t-16.5 99q0 76 27 150t78 132t126 94.5t171 36.5q65 0 118 -16.5t89.5 -48t57 -79t20.5 -110.5z" />
<glyph unicode="&#xbb;" horiz-adv-x="999" d="M484 435l-480 -347l39 211l275 218l-191 225l39 206l347 -346zM927 435l-480 -349l41 213l273 218l-191 225l39 206l348 -346z" />
<glyph unicode="&#xbc;" horiz-adv-x="1950" d="M1178 335h299l70 351zM536 733q-3 -6 5.5 -10.5t20.5 -6.5l105 -8v-72h-497v72l142 8q9 0 16.5 6.5t9.5 12.5l138 654l-216 -28v73l349 88h95zM484 0h-157l1245 1494h159zM1791 230h-157l-54 -269h-178l53 269h-431l21 110l566 533h150l-105 -538h154z" />
<glyph unicode="&#xbd;" horiz-adv-x="1950" d="M536 733q-3 -6 5.5 -10.5t20.5 -6.5l105 -8v-72h-497v72l142 8q9 0 16.5 6.5t9.5 12.5l138 654l-216 -28v73l349 88h95zM437 0h-158l1246 1494h157zM1843 679q0 -61 -30 -118t-79 -109t-110.5 -98t-125.5 -86t-125 -72.5t-107 -57.5h388l45 116h92l-49 -254h-684l19 107 q44 29 102.5 65t120 78t121 89t106.5 99.5t76 109t29 117.5q0 62 -37 96.5t-99 34.5q-21 0 -38 -4t-36 -10l-35 -173q-23 -11 -49 -17.5t-50 -6.5q-35 0 -62.5 16t-27.5 57q0 42 19 75t50 58t71 42t82 28.5t83 16t73 4.5q47 0 95 -11t86.5 -35t62 -62.5t23.5 -94.5z" />
<glyph unicode="&#xbe;" horiz-adv-x="1950" d="M1808 230h-156l-54 -269h-178l53 269h-430l22 110l563 533h151l-108 -538h159zM873 1338q0 -55 -26 -98.5t-67 -75t-91 -50.5t-98 -24q37 -1 77 -8q42 -9 77 -29t57.5 -51.5t22.5 -76.5q0 -55 -21 -98.5t-56 -77t-81 -57.5t-96 -40t-100.5 -23t-94.5 -7q-33 0 -76.5 6 t-83.5 23t-67.5 45t-27.5 72q0 26 9.5 46.5t26 34.5t38 21.5t45.5 7.5q28 0 57 -14l17 -146q23 -6 45 -11.5t45 -5.5q41 0 80 16.5t69 45t48.5 65t18.5 77.5q0 51 -26.5 78t-65 38t-83 10t-80.5 -5l20 96q49 -3 98.5 3.5t90.5 27.5t67 59t26 97q0 31 -12.5 53.5t-33 37.5 t-47 22.5t-53.5 7.5q-18 0 -35 -2.5t-34 -7.5l-31 -160q-19 -9 -38.5 -13t-38.5 -4q-17 0 -34 4t-30.5 12.5t-21.5 22.5t-8 34q0 36 18.5 65.5t47.5 52t67 38.5t77 25.5t75.5 14t64.5 4.5q43 0 90.5 -8.5t88 -29t67.5 -54.5t27 -86zM501 0h-157l1245 1494h157zM1198 335h294 l71 351z" />
<glyph unicode="&#xbf;" horiz-adv-x="1122" d="M964 265q0 -54 -22 -96t-59 -74.5t-84.5 -55t-98 -37.5t-101 -21.5t-92.5 -6.5q-77 0 -151 19t-132.5 58.5t-95 102t-36.5 149.5q0 74 24 139t65.5 120.5t96.5 101.5t118 81.5t130 60.5t132 37l37 183h146l-59 -286q-74 -16 -144.5 -54.5t-124.5 -95.5t-86.5 -128 t-32.5 -152q0 -54 18 -93t50 -64t74.5 -36.5t91.5 -11.5q5 9 14.5 25t21.5 36.5t25 43.5t26 45q31 53 65 113h63q22 0 44 -7t39 -20t27.5 -32t10.5 -44zM985 1297q0 -36 -14.5 -66.5t-40 -52.5t-57.5 -34.5t-67 -12.5q-34 0 -63.5 14.5t-51.5 39t-34 56t-12 64.5 q0 35 12.5 66t34.5 54.5t52 37.5t64 14q38 0 70 -14t56 -38.5t37.5 -57.5t13.5 -70z" />
<glyph unicode="&#xc0;" horiz-adv-x="1537" d="M823 1084l-240 -417h312zM841 0v107q17 2 34 3.5t32 3.5q17 3 33 5q21 2 32.5 7t8.5 24l-63 394h-407l-212 -394q-10 -16 -1.5 -22.5t29.5 -8.5q16 -2 35 -5q16 -2 36 -3.5t41 -3.5v-107h-553v107l124 14l796 1356h254l235 -1325q3 -21 11 -26.5t32 -8.5q14 -1 31 -4 q15 -2 32.5 -3t34.5 -3v-107h-595zM1013 1604l-349 190q-11 7 -20.5 18t-17 23.5t-11.5 25.5t-4 24q0 19 6 39.5t20.5 36.5t38 26.5t58.5 10.5q22 0 38.5 -3t32 -11t30.5 -21t34 -33l294 -326h-150z" />
<glyph unicode="&#xc1;" horiz-adv-x="1537" d="M823 1084l-240 -417h312zM841 0v107q17 2 34 3.5t32 3.5q17 3 33 5q21 2 32.5 7t8.5 24l-63 394h-407l-212 -394q-10 -16 -1.5 -22.5t29.5 -8.5q16 -2 35 -5q16 -2 36 -3.5t41 -3.5v-107h-553v107l124 14l796 1356h254l235 -1325q3 -21 11 -26.5t32 -8.5q14 -1 31 -4 q15 -2 32.5 -3t34.5 -3v-107h-595zM1297 1885q0 -11 -4.5 -24t-12 -25.5t-17.5 -23.5t-23 -18l-345 -190h-152l295 326q18 20 33.5 33t31 21t32.5 11t39 3q35 0 58.5 -10.5t37.5 -26.5t20.5 -36.5t6.5 -39.5z" />
<glyph unicode="&#xc2;" horiz-adv-x="1537" d="M823 1084l-240 -417h312zM841 0v107q17 2 34 3.5t32 3.5q17 3 33 5q21 2 32.5 7t8.5 24l-63 394h-407l-212 -394q-10 -16 -1.5 -22.5t29.5 -8.5q16 -2 35 -5q16 -2 36 -3.5t41 -3.5v-107h-553v107l124 14l796 1356h254l235 -1325q3 -21 11 -26.5t32 -8.5q14 -1 31 -4 q15 -2 32.5 -3t34.5 -3v-107h-595zM1113 1604l-144 205l-228 -205h-178l312 369h253l166 -369h-181z" />
<glyph unicode="&#xc3;" horiz-adv-x="1537" d="M823 1084l-240 -417h312zM841 0v107q17 2 34 3.5t32 3.5q17 3 33 5q21 2 32.5 7t8.5 24l-63 394h-407l-212 -394q-10 -16 -1.5 -22.5t29.5 -8.5q16 -2 35 -5q16 -2 36 -3.5t41 -3.5v-107h-553v107l124 14l796 1356h254l235 -1325q3 -21 11 -26.5t32 -8.5q14 -1 31 -4 q15 -2 32.5 -3t34.5 -3v-107h-595zM1360 1945q-24 -56 -55 -104.5t-70 -84.5t-85.5 -57t-101.5 -21q-43 0 -71.5 16t-55.5 35t-59 35.5t-81 16.5q-16 0 -33.5 -8t-32.5 -22t-27.5 -32.5t-19.5 -40.5h-117q26 56 57.5 104t70 84.5t85 57.5t99.5 21q43 0 72 -16t56.5 -35 t59 -34.5t79.5 -15.5q17 0 34 8t33 21.5t28 32t18 39.5h117z" />
<glyph unicode="&#xc4;" horiz-adv-x="1537" d="M823 1084l-240 -417h312zM841 0v107q17 2 34 3.5t32 3.5q17 3 33 5q21 2 32.5 7t8.5 24l-63 394h-407l-212 -394q-10 -16 -1.5 -22.5t29.5 -8.5q16 -2 35 -5q16 -2 36 -3.5t41 -3.5v-107h-553v107l124 14l796 1356h254l235 -1325q3 -21 11 -26.5t32 -8.5q14 -1 31 -4 q15 -2 32.5 -3t34.5 -3v-107h-595zM895 1826q0 -30 -11.5 -57t-31.5 -47.5t-47 -32t-58 -11.5q-30 0 -57.5 11.5t-47.5 32t-31.5 47.5t-11.5 57t11.5 57.5t31.5 48t47.5 32t57.5 11.5q31 0 58 -11.5t47 -32t31.5 -48t11.5 -57.5zM1347 1826q0 -30 -11.5 -57t-31.5 -47.5 t-47.5 -32t-57.5 -11.5q-31 0 -57.5 11.5t-46.5 32t-31 47.5t-11 57t11 57.5t31 48t46.5 32t57.5 11.5q30 0 57.5 -11.5t47.5 -32t31.5 -48t11.5 -57.5z" />
<glyph unicode="&#xc5;" horiz-adv-x="1537" d="M823 1084l-240 -417h312zM841 0v107q17 2 34 3.5t32 3.5q17 3 33 5q21 2 32.5 7t8.5 24l-63 394h-407l-212 -394q-10 -16 -1.5 -22.5t29.5 -8.5q16 -2 35 -5q16 -2 36 -3.5t41 -3.5v-107h-553v107l124 14l796 1356h254l235 -1325q3 -21 11 -26.5t32 -8.5q14 -1 31 -4 q15 -2 32.5 -3t34.5 -3v-107h-595zM1138 1902q0 49 -31.5 79.5t-79.5 30.5q-32 0 -62 -14t-53 -36t-37 -51t-14 -61q0 -49 32 -79.5t79 -30.5q33 0 63 13.5t53 35.5t36.5 51.5t13.5 61.5zM1276 1930q0 -65 -28 -124t-73.5 -103.5t-105 -71.5t-122.5 -27q-47 0 -88 16t-71 45 t-47.5 68.5t-17.5 88.5q0 64 28 123t74 104t105.5 71.5t123.5 26.5q47 0 88 -16t70.5 -45t46.5 -69t17 -87z" />
<glyph unicode="&#xc6;" horiz-adv-x="2103" d="M744 671h338l100 515zM2116 1104h-175v182q0 16 -15.5 22t-33.5 6h-376l-98 -499h223q16 0 35.5 8t24.5 24l43 151h159l-101 -506h-157l26 162q1 6 -3.5 11.5t-12 9.5t-16.5 6.5t-18 2.5h-230l-109 -555h440q7 0 16.5 2t18.5 6.5t16.5 10t9.5 12.5l68 214h168l-73 -374 h-1140v107q53 4 86 7t51.5 4.5t25 3t8.5 5t0.5 9.5t1.5 16l77 386h-422l-320 -384q-5 -6 -1.5 -12.5t10.5 -11.5t13 -8t8 -3l122 -12v-107h-580v107q18 2 36 3t33 3q17 3 32 4q10 1 16 2.5t11.5 5t12.5 11t16 18.5l946 1139q12 12 2.5 22t-32.5 12q-17 0 -34 2q-15 1 -32 3 t-33 4v107h1323z" />
<glyph unicode="&#xc7;" horiz-adv-x="1444" d="M908 -243q0 -63 -27 -110.5t-72 -79t-100.5 -48t-112.5 -16.5q-33 0 -63.5 3.5t-54.5 8.5q-28 4 -52 11l22 109q23 -6 47 -10q19 -3 42.5 -5.5t44.5 -2.5t45 3.5t45 13t35 27t14 44.5q0 30 -23.5 44.5t-55.5 14.5q-6 0 -14 -0.5t-17 -1.5l-19 -2l41 212q-54 6 -103 19 q-94 24 -165.5 67.5t-121.5 102t-81 127t-45 142t-14 146.5q0 111 28 221t81.5 210t132 186t179.5 149.5t223.5 99t265.5 35.5q62 0 118.5 -6.5t112 -18t112.5 -28.5t121 -37l-67 -378h-158l2 241q2 12 -7 28t-26 21q-8 4 -31 12.5t-52 16t-59.5 13t-54.5 5.5 q-68 0 -139.5 -24t-138.5 -71t-126 -115t-103.5 -156.5t-70 -195.5t-25.5 -232q0 -123 35.5 -209t93 -141t128 -80t139.5 -25q23 0 50.5 3t52.5 8t45.5 10.5t29.5 10.5q17 2 25.5 12.5t13.5 22.5l103 283h162l-66 -389q-41 -15 -94 -31.5t-115 -30t-132 -22.5t-145 -9h-5 l-16 -82q3 -1 7 -1q5 -1 23 -1q33 0 60.5 -7t48 -22.5t32 -39t11.5 -55.5z" />
<glyph unicode="&#xc8;" horiz-adv-x="1290" d="M1270 1104h-171v182q0 16 -16 22t-34 6h-370l-96 -499h242q17 0 36.5 8t24.5 24l45 151h157l-99 -506h-158l21 162q1 6 -3.5 11.5t-11.5 9.5t-16 6.5t-17 2.5h-248l-107 -555h458q17 0 36.5 8.5t24.5 22.5l68 214h170l-75 -374h-1164v107q25 2 48.5 4t41.5 5q21 2 40 3 q24 2 34 7t13 26l224 1141q5 18 -6.5 24t-32.5 8q-19 1 -39 3q-18 2 -40 4t-43 4v107h1133zM905 1604l-349 190q-11 7 -20.5 18t-17 23.5t-11.5 25.5t-4 24q0 19 6 39.5t20.5 36.5t38 26.5t58.5 10.5q22 0 38.5 -3t32 -11t30.5 -21t34 -33l294 -326h-150z" />
<glyph unicode="&#xc9;" horiz-adv-x="1290" d="M1270 1104h-171v182q0 16 -16 22t-34 6h-370l-96 -499h242q17 0 36.5 8t24.5 24l45 151h157l-99 -506h-158l21 162q1 6 -3.5 11.5t-11.5 9.5t-16 6.5t-17 2.5h-248l-107 -555h458q17 0 36.5 8.5t24.5 22.5l68 214h170l-75 -374h-1164v107q25 2 48.5 4t41.5 5q21 2 40 3 q24 2 34 7t13 26l224 1141q5 18 -6.5 24t-32.5 8q-19 1 -39 3q-18 2 -40 4t-43 4v107h1133zM1189 1885q0 -11 -4.5 -24t-12 -25.5t-17.5 -23.5t-23 -18l-345 -190h-152l295 326q18 20 33.5 33t31 21t32.5 11t39 3q35 0 58.5 -10.5t37.5 -26.5t20.5 -36.5t6.5 -39.5z" />
<glyph unicode="&#xca;" horiz-adv-x="1290" d="M1270 1104h-171v182q0 16 -16 22t-34 6h-370l-96 -499h242q17 0 36.5 8t24.5 24l45 151h157l-99 -506h-158l21 162q1 6 -3.5 11.5t-11.5 9.5t-16 6.5t-17 2.5h-248l-107 -555h458q17 0 36.5 8.5t24.5 22.5l68 214h170l-75 -374h-1164v107q25 2 48.5 4t41.5 5q21 2 40 3 q24 2 34 7t13 26l224 1141q5 18 -6.5 24t-32.5 8q-19 1 -39 3q-18 2 -40 4t-43 4v107h1133zM1005 1604l-144 205l-228 -205h-178l312 369h253l166 -369h-181z" />
<glyph unicode="&#xcb;" horiz-adv-x="1290" d="M1270 1104h-171v182q0 16 -16 22t-34 6h-370l-96 -499h242q17 0 36.5 8t24.5 24l45 151h157l-99 -506h-158l21 162q1 6 -3.5 11.5t-11.5 9.5t-16 6.5t-17 2.5h-248l-107 -555h458q17 0 36.5 8.5t24.5 22.5l68 214h170l-75 -374h-1164v107q25 2 48.5 4t41.5 5q21 2 40 3 q24 2 34 7t13 26l224 1141q5 18 -6.5 24t-32.5 8q-19 1 -39 3q-18 2 -40 4t-43 4v107h1133zM787 1826q0 -30 -11.5 -57t-31.5 -47.5t-47 -32t-58 -11.5q-30 0 -57.5 11.5t-47.5 32t-31.5 47.5t-11.5 57t11.5 57.5t31.5 48t47.5 32t57.5 11.5q31 0 58 -11.5t47 -32t31.5 -48 t11.5 -57.5zM1239 1826q0 -30 -11.5 -57t-31.5 -47.5t-47.5 -32t-57.5 -11.5q-31 0 -57.5 11.5t-46.5 32t-31 47.5t-11 57t11 57.5t31 48t46.5 32t57.5 11.5q30 0 57.5 -11.5t47.5 -32t31.5 -48t11.5 -57.5z" />
<glyph unicode="&#xcc;" horiz-adv-x="765" d="M708 1325q-17 -2 -23.5 -11t-9.5 -24l-223 -1140q-4 -18 3.5 -23.5t28.5 -7.5q20 -1 42 -3q19 -3 43 -5t51 -4v-107h-653v107q25 2 47.5 3t40.5 3q21 3 39 4q25 2 36 7.5t14 27.5l224 1141q5 18 -6.5 24t-32.5 8q-19 1 -39 3q-18 2 -40 4t-43 4v107h649v-107zM648 1604 l-349 190q-11 7 -20.5 18t-17 23.5t-11.5 25.5t-4 24q0 19 6 39.5t20.5 36.5t38 26.5t58.5 10.5q22 0 38.5 -3t32 -11t30.5 -21t34 -33l294 -326h-150z" />
<glyph unicode="&#xcd;" horiz-adv-x="765" d="M708 1325q-17 -2 -23.5 -11t-9.5 -24l-223 -1140q-4 -18 3.5 -23.5t28.5 -7.5q20 -1 42 -3q19 -3 43 -5t51 -4v-107h-653v107q25 2 47.5 3t40.5 3q21 3 39 4q25 2 36 7.5t14 27.5l224 1141q5 18 -6.5 24t-32.5 8q-19 1 -39 3q-18 2 -40 4t-43 4v107h649v-107zM932 1885 q0 -11 -4.5 -24t-12 -25.5t-17.5 -23.5t-23 -18l-345 -190h-152l295 326q18 20 33.5 33t31 21t32.5 11t39 3q35 0 58.5 -10.5t37.5 -26.5t20.5 -36.5t6.5 -39.5z" />
<glyph unicode="&#xce;" horiz-adv-x="765" d="M708 1325q-17 -2 -23.5 -11t-9.5 -24l-223 -1140q-4 -18 3.5 -23.5t28.5 -7.5q20 -1 42 -3q19 -3 43 -5t51 -4v-107h-653v107q25 2 47.5 3t40.5 3q21 3 39 4q25 2 36 7.5t14 27.5l224 1141q5 18 -6.5 24t-32.5 8q-19 1 -39 3q-18 2 -40 4t-43 4v107h649v-107zM748 1604 l-144 205l-228 -205h-178l312 369h253l166 -369h-181z" />
<glyph unicode="&#xcf;" horiz-adv-x="765" d="M708 1325q-17 -2 -23.5 -11t-9.5 -24l-223 -1140q-4 -18 3.5 -23.5t28.5 -7.5q20 -1 42 -3q19 -3 43 -5t51 -4v-107h-653v107q25 2 47.5 3t40.5 3q21 3 39 4q25 2 36 7.5t14 27.5l224 1141q5 18 -6.5 24t-32.5 8q-19 1 -39 3q-18 2 -40 4t-43 4v107h649v-107zM530 1826 q0 -30 -11.5 -57t-31.5 -47.5t-47 -32t-58 -11.5q-30 0 -57.5 11.5t-47.5 32t-31.5 47.5t-11.5 57t11.5 57.5t31.5 48t47.5 32t57.5 11.5q31 0 58 -11.5t47 -32t31.5 -48t11.5 -57.5zM982 1826q0 -30 -11.5 -57t-31.5 -47.5t-47.5 -32t-57.5 -11.5q-31 0 -57.5 11.5 t-46.5 32t-31 47.5t-11 57t11 57.5t31 48t46.5 32t57.5 11.5q30 0 57.5 -11.5t47.5 -32t31.5 -48t11.5 -57.5z" />
<glyph unicode="&#xd0;" horiz-adv-x="1533" d="M43 825h233l92 468q3 18 -8 24t-31 8q-20 1 -40 3q-18 2 -40 4l-44 4v107h558q167 0 302 -30.5t230.5 -97.5t147 -172t51.5 -253q0 -192 -67 -355t-193 -282t-307 -186t-408 -67h-552v107q25 2 48 4t41 3q21 2 41 3q26 2 34 7.5t13 27.5l105 538h-206v135zM1172 909 q0 89 -19 153t-51.5 108.5t-77 71.5t-96 42.5t-107.5 21t-111 8.5h-31l-96 -489h257v-135h-284l-109 -557h109q95 1 177.5 30.5t150.5 81.5t121.5 124t90.5 157.5t56.5 182.5t19.5 200z" />
<glyph unicode="&#xd1;" horiz-adv-x="1619" d="M1574 1323q-30 -5 -37 -33l-255 -1290h-239l-481 1000l-166 -850q-3 -19 6.5 -24t32.5 -7q19 -1 39 -3q17 -3 38.5 -5t46.5 -4v-107h-589v107q23 2 44.5 4t39.5 5q20 2 38 3q24 2 36.5 7t17.5 26l222 1141q5 18 -6.5 24t-32.5 8q-19 1 -39 3q-18 2 -39.5 4t-43.5 4v107 h505v-66l419 -876l157 792q6 18 -8 24t-33 8q-20 1 -39 3q-18 2 -40 4t-43 4v107h589v-107zM1413 1945q-24 -56 -55 -104.5t-70 -84.5t-85.5 -57t-101.5 -21q-43 0 -71.5 16t-55.5 35t-59 35.5t-81 16.5q-16 0 -33.5 -8t-32.5 -22t-27.5 -32.5t-19.5 -40.5h-117 q26 56 57.5 104t70 84.5t85 57.5t99.5 21q43 0 72 -16t56.5 -35t59 -34.5t79.5 -15.5q17 0 34 8t33 21.5t28 32t18 39.5h117z" />
<glyph unicode="&#xd2;" horiz-adv-x="1617" d="M1241 897q0 108 -28 192t-72.5 141.5t-100 87.5t-111.5 30q-64 0 -125.5 -32.5t-116 -88.5t-100.5 -133.5t-79 -166t-52 -185.5t-19 -194q0 -111 29 -195t74 -141t100 -85t109 -28q63 0 124 33t116 90.5t101 135t79.5 166t52.5 184t19 189.5zM1576 897q0 -111 -23 -222.5 t-70 -215t-117 -194t-163.5 -157t-211 -105t-258.5 -38.5q-150 0 -267 45t-198 125t-123 190t-42 241q0 111 25.5 222.5t75.5 212.5t122.5 188.5t166.5 151.5t208.5 100t246.5 36q156 0 273.5 -47.5t196 -128t118.5 -185.5t40 -219zM1073 1604l-349 190q-11 7 -20.5 18 t-17 23.5t-11.5 25.5t-4 24q0 19 6 39.5t20.5 36.5t38 26.5t58.5 10.5q22 0 38.5 -3t32 -11t30.5 -21t34 -33l294 -326h-150z" />
<glyph unicode="&#xd3;" horiz-adv-x="1617" d="M1241 897q0 108 -28 192t-72.5 141.5t-100 87.5t-111.5 30q-64 0 -125.5 -32.5t-116 -88.5t-100.5 -133.5t-79 -166t-52 -185.5t-19 -194q0 -111 29 -195t74 -141t100 -85t109 -28q63 0 124 33t116 90.5t101 135t79.5 166t52.5 184t19 189.5zM1576 897q0 -111 -23 -222.5 t-70 -215t-117 -194t-163.5 -157t-211 -105t-258.5 -38.5q-150 0 -267 45t-198 125t-123 190t-42 241q0 111 25.5 222.5t75.5 212.5t122.5 188.5t166.5 151.5t208.5 100t246.5 36q156 0 273.5 -47.5t196 -128t118.5 -185.5t40 -219zM1357 1885q0 -11 -4.5 -24t-12 -25.5 t-17.5 -23.5t-23 -18l-345 -190h-152l295 326q18 20 33.5 33t31 21t32.5 11t39 3q35 0 58.5 -10.5t37.5 -26.5t20.5 -36.5t6.5 -39.5z" />
<glyph unicode="&#xd4;" horiz-adv-x="1617" d="M1241 897q0 108 -28 192t-72.5 141.5t-100 87.5t-111.5 30q-64 0 -125.5 -32.5t-116 -88.5t-100.5 -133.5t-79 -166t-52 -185.5t-19 -194q0 -111 29 -195t74 -141t100 -85t109 -28q63 0 124 33t116 90.5t101 135t79.5 166t52.5 184t19 189.5zM1576 897q0 -111 -23 -222.5 t-70 -215t-117 -194t-163.5 -157t-211 -105t-258.5 -38.5q-150 0 -267 45t-198 125t-123 190t-42 241q0 111 25.5 222.5t75.5 212.5t122.5 188.5t166.5 151.5t208.5 100t246.5 36q156 0 273.5 -47.5t196 -128t118.5 -185.5t40 -219zM1173 1604l-144 205l-228 -205h-178 l312 369h253l166 -369h-181z" />
<glyph unicode="&#xd5;" horiz-adv-x="1617" d="M1241 897q0 108 -28 192t-72.5 141.5t-100 87.5t-111.5 30q-64 0 -125.5 -32.5t-116 -88.5t-100.5 -133.5t-79 -166t-52 -185.5t-19 -194q0 -111 29 -195t74 -141t100 -85t109 -28q63 0 124 33t116 90.5t101 135t79.5 166t52.5 184t19 189.5zM1576 897q0 -111 -23 -222.5 t-70 -215t-117 -194t-163.5 -157t-211 -105t-258.5 -38.5q-150 0 -267 45t-198 125t-123 190t-42 241q0 111 25.5 222.5t75.5 212.5t122.5 188.5t166.5 151.5t208.5 100t246.5 36q156 0 273.5 -47.5t196 -128t118.5 -185.5t40 -219zM1420 1945q-24 -56 -55 -104.5t-70 -84.5 t-85.5 -57t-101.5 -21q-43 0 -71.5 16t-55.5 35t-59 35.5t-81 16.5q-16 0 -33.5 -8t-32.5 -22t-27.5 -32.5t-19.5 -40.5h-117q26 56 57.5 104t70 84.5t85 57.5t99.5 21q43 0 72 -16t56.5 -35t59 -34.5t79.5 -15.5q17 0 34 8t33 21.5t28 32t18 39.5h117z" />
<glyph unicode="&#xd6;" horiz-adv-x="1617" d="M1241 897q0 108 -28 192t-72.5 141.5t-100 87.5t-111.5 30q-64 0 -125.5 -32.5t-116 -88.5t-100.5 -133.5t-79 -166t-52 -185.5t-19 -194q0 -111 29 -195t74 -141t100 -85t109 -28q63 0 124 33t116 90.5t101 135t79.5 166t52.5 184t19 189.5zM1576 897q0 -111 -23 -222.5 t-70 -215t-117 -194t-163.5 -157t-211 -105t-258.5 -38.5q-150 0 -267 45t-198 125t-123 190t-42 241q0 111 25.5 222.5t75.5 212.5t122.5 188.5t166.5 151.5t208.5 100t246.5 36q156 0 273.5 -47.5t196 -128t118.5 -185.5t40 -219zM955 1826q0 -30 -11.5 -57t-31.5 -47.5 t-47 -32t-58 -11.5q-30 0 -57.5 11.5t-47.5 32t-31.5 47.5t-11.5 57t11.5 57.5t31.5 48t47.5 32t57.5 11.5q31 0 58 -11.5t47 -32t31.5 -48t11.5 -57.5zM1407 1826q0 -30 -11.5 -57t-31.5 -47.5t-47.5 -32t-57.5 -11.5q-31 0 -57.5 11.5t-46.5 32t-31 47.5t-11 57t11 57.5 t31 48t46.5 32t57.5 11.5q30 0 57.5 -11.5t47.5 -32t31.5 -48t11.5 -57.5z" />
<glyph unicode="&#xd7;" horiz-adv-x="2150" d="M1572 64l-497 500l-496 -500l-84 84l494 497l-494 496l84 84l496 -498l497 498l84 -84l-495 -496l495 -497z" />
<glyph unicode="&#xd8;" horiz-adv-x="1617" d="M1241 897q0 69 -11 128.5t-32 107.5l-632 -950q42 -42 89 -63t94 -21q63 0 124 33t116 90.5t101 135t79.5 166t52.5 184t19 189.5zM1067 1301q-33 24 -67.5 35.5t-70.5 11.5q-64 0 -125.5 -32.5t-116 -88.5t-100.5 -133.5t-79 -166t-52 -185.5t-19 -194q0 -48 5.5 -91 t15.5 -83zM1576 897q0 -111 -23 -222.5t-70 -215t-117 -194t-163.5 -157t-211 -105t-258.5 -38.5q-79 0 -149.5 13t-131.5 37l-146 -222l-156 113l138 211q-91 80 -138 194t-47 255q0 111 25.5 222.5t75.5 212.5t122.5 188.5t166.5 151.5t208.5 100t246.5 36q60 0 113.5 -7 t101.5 -21l127 192l173 -108l-115 -172q58 -40 100.5 -92t71 -112t42.5 -126t14 -134z" />
<glyph unicode="&#xd9;" horiz-adv-x="1610" d="M1559 1325q-14 -2 -22.5 -11t-11.5 -24l-166 -828q-22 -112 -70 -203.5t-126 -156.5t-189.5 -101t-259.5 -36q-120 0 -215.5 22.5t-162 69.5t-103 119.5t-36.5 172.5q0 30 7 89.5t22 131.5l150 723q3 18 -8.5 24t-34.5 8q-18 1 -38 3q-18 2 -39.5 4t-42.5 4v107h649v-107 q-25 -2 -48.5 -4t-42.5 -4q-22 -2 -42 -3q-19 -2 -30.5 -9t-14.5 -26l-148 -720q-13 -62 -19 -111t-6 -79q0 -68 22 -116.5t58.5 -79t83 -44t95.5 -13.5q84 0 145 31t104.5 85.5t71.5 130t46 164.5l151 755q4 18 -5 24t-36 8q-20 1 -39 3q-18 2 -40 4t-43 4v107h576v-107z M1083 1604l-349 190q-11 7 -20.5 18t-17 23.5t-11.5 25.5t-4 24q0 19 6 39.5t20.5 36.5t38 26.5t58.5 10.5q22 0 38.5 -3t32 -11t30.5 -21t34 -33l294 -326h-150z" />
<glyph unicode="&#xda;" horiz-adv-x="1610" d="M1559 1325q-14 -2 -22.5 -11t-11.5 -24l-166 -828q-22 -112 -70 -203.5t-126 -156.5t-189.5 -101t-259.5 -36q-120 0 -215.5 22.5t-162 69.5t-103 119.5t-36.5 172.5q0 30 7 89.5t22 131.5l150 723q3 18 -8.5 24t-34.5 8q-18 1 -38 3q-18 2 -39.5 4t-42.5 4v107h649v-107 q-25 -2 -48.5 -4t-42.5 -4q-22 -2 -42 -3q-19 -2 -30.5 -9t-14.5 -26l-148 -720q-13 -62 -19 -111t-6 -79q0 -68 22 -116.5t58.5 -79t83 -44t95.5 -13.5q84 0 145 31t104.5 85.5t71.5 130t46 164.5l151 755q4 18 -5 24t-36 8q-20 1 -39 3q-18 2 -40 4t-43 4v107h576v-107z M1366 1885q0 -11 -4.5 -24t-12 -25.5t-17.5 -23.5t-23 -18l-345 -190h-152l295 326q18 20 33.5 33t31 21t32.5 11t39 3q35 0 58.5 -10.5t37.5 -26.5t20.5 -36.5t6.5 -39.5z" />
<glyph unicode="&#xdb;" horiz-adv-x="1610" d="M1559 1325q-14 -2 -22.5 -11t-11.5 -24l-166 -828q-22 -112 -70 -203.5t-126 -156.5t-189.5 -101t-259.5 -36q-120 0 -215.5 22.5t-162 69.5t-103 119.5t-36.5 172.5q0 30 7 89.5t22 131.5l150 723q3 18 -8.5 24t-34.5 8q-18 1 -38 3q-18 2 -39.5 4t-42.5 4v107h649v-107 q-25 -2 -48.5 -4t-42.5 -4q-22 -2 -42 -3q-19 -2 -30.5 -9t-14.5 -26l-148 -720q-13 -62 -19 -111t-6 -79q0 -68 22 -116.5t58.5 -79t83 -44t95.5 -13.5q84 0 145 31t104.5 85.5t71.5 130t46 164.5l151 755q4 18 -5 24t-36 8q-20 1 -39 3q-18 2 -40 4t-43 4v107h576v-107z M1182 1604l-144 205l-228 -205h-178l312 369h253l166 -369h-181z" />
<glyph unicode="&#xdc;" horiz-adv-x="1610" d="M1559 1325q-14 -2 -22.5 -11t-11.5 -24l-166 -828q-22 -112 -70 -203.5t-126 -156.5t-189.5 -101t-259.5 -36q-120 0 -215.5 22.5t-162 69.5t-103 119.5t-36.5 172.5q0 30 7 89.5t22 131.5l150 723q3 18 -8.5 24t-34.5 8q-18 1 -38 3q-18 2 -39.5 4t-42.5 4v107h649v-107 q-25 -2 -48.5 -4t-42.5 -4q-22 -2 -42 -3q-19 -2 -30.5 -9t-14.5 -26l-148 -720q-13 -62 -19 -111t-6 -79q0 -68 22 -116.5t58.5 -79t83 -44t95.5 -13.5q84 0 145 31t104.5 85.5t71.5 130t46 164.5l151 755q4 18 -5 24t-36 8q-20 1 -39 3q-18 2 -40 4t-43 4v107h576v-107z M965 1826q0 -30 -11.5 -57t-31.5 -47.5t-47 -32t-58 -11.5q-30 0 -57.5 11.5t-47.5 32t-31.5 47.5t-11.5 57t11.5 57.5t31.5 48t47.5 32t57.5 11.5q31 0 58 -11.5t47 -32t31.5 -48t11.5 -57.5zM1417 1826q0 -30 -11.5 -57t-31.5 -47.5t-47.5 -32t-57.5 -11.5 q-31 0 -57.5 11.5t-46.5 32t-31 47.5t-11 57t11 57.5t31 48t46.5 32t57.5 11.5q30 0 57.5 -11.5t47.5 -32t31.5 -48t11.5 -57.5z" />
<glyph unicode="&#xdd;" horiz-adv-x="1464" d="M1482 1325q-12 -2 -23 -11t-16 -15l-546 -695l-91 -454q-5 -19 5.5 -24t33.5 -7q19 -1 39 -3q18 -3 39.5 -5t44.5 -4v-107h-650v107q21 2 43 4t40 5q20 2 40 3q21 2 34.5 7t19.5 26l88 435l-241 714q-5 18 -19.5 21t-34.5 5q-16 0 -35 2q-16 1 -35.5 3t-36.5 4v107h646 v-107q-24 -2 -47.5 -4t-42.5 -3q-22 -2 -42 -2q-18 0 -30.5 -6.5t-4.5 -27.5l148 -468l355 470q7 8 2.5 19t-28.5 13l-126 9v107h608v-107zM1291 1885q0 -11 -4.5 -24t-12 -25.5t-17.5 -23.5t-23 -18l-345 -190h-152l295 326q18 20 33.5 33t31 21t32.5 11t39 3 q35 0 58.5 -10.5t37.5 -26.5t20.5 -36.5t6.5 -39.5z" />
<glyph unicode="&#xde;" horiz-adv-x="1307" d="M1262 825q0 -125 -49 -227.5t-139 -177t-220 -115t-290 -40.5q-18 0 -45 1t-51 1l-21 -117q-3 -19 9 -24t32 -7q19 -1 40 -3q18 -3 40 -5t45 -4v-107h-650v107q25 2 49 4t43 5q22 2 42 3q21 2 30 8t13 25l225 1141q4 18 -5.5 24t-37.5 8q-18 1 -37 3q-18 2 -39.5 4 t-42.5 4v107h644v-107q-26 -2 -50 -4t-42 -4q-22 -2 -41 -3q-18 -2 -29 -9t-14 -26l-22 -114h80q152 0 254.5 -27.5t164.5 -75t88 -111.5t26 -137zM948 792q0 63 -19.5 112t-54 83.5t-81 51.5t-101.5 17h-34q-9 0 -18.5 -0.5t-13.5 -1.5l-131 -656q63 -3 132.5 10t135.5 52 q39 23 72.5 55t59 73t39.5 91.5t14 112.5z" />
<glyph unicode="&#xdf;" d="M1258 1295q0 -48 -7.5 -96.5t-18.5 -97t-25 -95.5t-27 -92l-65 6.5t-40.5 3.5t-24.5 1h-16q-10 0 -39.5 -3.5t-61 -17.5t-55.5 -40.5t-24 -71.5q0 -30 16 -57t43 -53.5t61 -52.5t69 -53q35 -28 69 -57.5t60 -61.5t42 -67.5t16 -75.5q0 -76 -32 -139.5t-91.5 -109 t-143 -70.5t-185.5 -25q-144 0 -219 50.5t-75 157.5q0 26 13 52t36 48t54 36.5t67 14.5q34 0 51 -5.5t25.5 -13.5t14 -16t14.5 -15l-39 -139q14 -17 24.5 -28.5t20.5 -18.5t21 -10t27 -3q63 0 99 42.5t36 125.5q0 29 -13.5 55.5t-37 52t-56.5 51t-69 53.5q-34 26 -66 53 t-56.5 58t-39.5 66t-15 77q0 63 25.5 117.5t71.5 96.5t110.5 70t143.5 38q18 66 31.5 132t13.5 131q0 39 -11.5 69.5t-32 51t-48 31t-60.5 10.5q-53 0 -101 -30t-89.5 -83.5t-76 -128.5t-59.5 -165q-38 -142 -55.5 -284t-34 -285t-40.5 -285t-75 -284q-14 -36 -41.5 -80 t-64.5 -89t-81.5 -88t-93 -77t-98 -54t-95.5 -20q-39 0 -71.5 8.5t-56 25t-37 39.5t-13.5 51t17.5 54t64.5 62l215 -58q28 39 50.5 101t39.5 128t28.5 126t16.5 95l127 834q12 74 34 148t57 142t85.5 126.5t117 101.5t152 67.5t191.5 24.5q95 0 170 -19.5t127.5 -57.5 t80.5 -91.5t28 -120.5z" />
<glyph unicode="&#xe0;" horiz-adv-x="1221" d="M806 847q1 5 -0.5 21.5t-6 35t-11.5 32.5t-16 14q-70 0 -126 -25t-100.5 -68t-77 -100t-54 -120.5t-32 -129.5t-10.5 -127q0 -43 1.5 -86t12.5 -78.5t36.5 -58t74.5 -22.5q34 0 65 16t57 36.5t45.5 41.5t30.5 31q7 43 12 67t8.5 45.5t9 48.5t15.5 78t25.5 133.5 t40.5 214.5zM1215 64q-37 -15 -77.5 -30.5t-82.5 -28.5t-84 -22t-83 -9q-68 0 -113.5 25t-66.5 72q-29 -19 -61.5 -36.5t-68 -30.5t-73.5 -21.5t-77 -8.5q-66 0 -118.5 17.5t-92.5 48t-67.5 70.5t-45.5 83.5t-26.5 89t-8.5 85.5q0 79 17.5 162.5t53.5 162.5t91 148.5 t129.5 121.5t169.5 82t210 30q48 0 94.5 -12.5t83.5 -32.5l15 19h230q-5 -16 -13.5 -36t-16.5 -38.5t-15 -34t-8 -22.5l-140 -709q0 -24 1.5 -41t8 -27t18 -14t30.5 -4q4 0 31 6t59 14.5t60 15.5t37 9v-104zM877 1184l-349 190q-11 7 -20.5 18t-17 23.5t-11.5 25.5t-4 24 q0 19 6 39.5t20.5 36.5t38 26.5t58.5 10.5q22 0 38.5 -3t32 -11t30.5 -21t34 -33l294 -326h-150z" />
<glyph unicode="&#xe1;" horiz-adv-x="1221" d="M806 847q1 5 -0.5 21.5t-6 35t-11.5 32.5t-16 14q-70 0 -126 -25t-100.5 -68t-77 -100t-54 -120.5t-32 -129.5t-10.5 -127q0 -43 1.5 -86t12.5 -78.5t36.5 -58t74.5 -22.5q34 0 65 16t57 36.5t45.5 41.5t30.5 31q7 43 12 67t8.5 45.5t9 48.5t15.5 78t25.5 133.5 t40.5 214.5zM1215 64q-37 -15 -77.5 -30.5t-82.5 -28.5t-84 -22t-83 -9q-68 0 -113.5 25t-66.5 72q-29 -19 -61.5 -36.5t-68 -30.5t-73.5 -21.5t-77 -8.5q-66 0 -118.5 17.5t-92.5 48t-67.5 70.5t-45.5 83.5t-26.5 89t-8.5 85.5q0 79 17.5 162.5t53.5 162.5t91 148.5 t129.5 121.5t169.5 82t210 30q48 0 94.5 -12.5t83.5 -32.5l15 19h230q-5 -16 -13.5 -36t-16.5 -38.5t-15 -34t-8 -22.5l-140 -709q0 -24 1.5 -41t8 -27t18 -14t30.5 -4q4 0 31 6t59 14.5t60 15.5t37 9v-104zM1161 1465q0 -11 -4.5 -24t-12 -25.5t-17.5 -23.5t-23 -18 l-345 -190h-152l295 326q18 20 33.5 33t31 21t32.5 11t39 3q35 0 58.5 -10.5t37.5 -26.5t20.5 -36.5t6.5 -39.5z" />
<glyph unicode="&#xe2;" horiz-adv-x="1221" d="M806 847q1 5 -0.5 21.5t-6 35t-11.5 32.5t-16 14q-70 0 -126 -25t-100.5 -68t-77 -100t-54 -120.5t-32 -129.5t-10.5 -127q0 -43 1.5 -86t12.5 -78.5t36.5 -58t74.5 -22.5q34 0 65 16t57 36.5t45.5 41.5t30.5 31q7 43 12 67t8.5 45.5t9 48.5t15.5 78t25.5 133.5 t40.5 214.5zM1215 64q-37 -15 -77.5 -30.5t-82.5 -28.5t-84 -22t-83 -9q-68 0 -113.5 25t-66.5 72q-29 -19 -61.5 -36.5t-68 -30.5t-73.5 -21.5t-77 -8.5q-66 0 -118.5 17.5t-92.5 48t-67.5 70.5t-45.5 83.5t-26.5 89t-8.5 85.5q0 79 17.5 162.5t53.5 162.5t91 148.5 t129.5 121.5t169.5 82t210 30q48 0 94.5 -12.5t83.5 -32.5l15 19h230q-5 -16 -13.5 -36t-16.5 -38.5t-15 -34t-8 -22.5l-140 -709q0 -24 1.5 -41t8 -27t18 -14t30.5 -4q4 0 31 6t59 14.5t60 15.5t37 9v-104zM976 1184l-144 205l-228 -205h-178l312 369h253l166 -369h-181z " />
<glyph unicode="&#xe3;" horiz-adv-x="1221" d="M806 847q1 5 -0.5 21.5t-6 35t-11.5 32.5t-16 14q-70 0 -126 -25t-100.5 -68t-77 -100t-54 -120.5t-32 -129.5t-10.5 -127q0 -43 1.5 -86t12.5 -78.5t36.5 -58t74.5 -22.5q34 0 65 16t57 36.5t45.5 41.5t30.5 31q7 43 12 67t8.5 45.5t9 48.5t15.5 78t25.5 133.5 t40.5 214.5zM1215 64q-37 -15 -77.5 -30.5t-82.5 -28.5t-84 -22t-83 -9q-68 0 -113.5 25t-66.5 72q-29 -19 -61.5 -36.5t-68 -30.5t-73.5 -21.5t-77 -8.5q-66 0 -118.5 17.5t-92.5 48t-67.5 70.5t-45.5 83.5t-26.5 89t-8.5 85.5q0 79 17.5 162.5t53.5 162.5t91 148.5 t129.5 121.5t169.5 82t210 30q48 0 94.5 -12.5t83.5 -32.5l15 19h230q-5 -16 -13.5 -36t-16.5 -38.5t-15 -34t-8 -22.5l-140 -709q0 -24 1.5 -41t8 -27t18 -14t30.5 -4q4 0 31 6t59 14.5t60 15.5t37 9v-104zM1223 1525q-24 -56 -55 -104.5t-70 -84.5t-85.5 -57t-101.5 -21 q-43 0 -71.5 16t-55.5 35t-59 35.5t-81 16.5q-16 0 -33.5 -8t-32.5 -22t-27.5 -32.5t-19.5 -40.5h-117q26 56 57.5 104t70 84.5t85 57.5t99.5 21q43 0 72 -16t56.5 -35t59 -34.5t79.5 -15.5q17 0 34 8t33 21.5t28 32t18 39.5h117z" />
<glyph unicode="&#xe4;" horiz-adv-x="1221" d="M806 847q1 5 -0.5 21.5t-6 35t-11.5 32.5t-16 14q-70 0 -126 -25t-100.5 -68t-77 -100t-54 -120.5t-32 -129.5t-10.5 -127q0 -43 1.5 -86t12.5 -78.5t36.5 -58t74.5 -22.5q34 0 65 16t57 36.5t45.5 41.5t30.5 31q7 43 12 67t8.5 45.5t9 48.5t15.5 78t25.5 133.5 t40.5 214.5zM1215 64q-37 -15 -77.5 -30.5t-82.5 -28.5t-84 -22t-83 -9q-68 0 -113.5 25t-66.5 72q-29 -19 -61.5 -36.5t-68 -30.5t-73.5 -21.5t-77 -8.5q-66 0 -118.5 17.5t-92.5 48t-67.5 70.5t-45.5 83.5t-26.5 89t-8.5 85.5q0 79 17.5 162.5t53.5 162.5t91 148.5 t129.5 121.5t169.5 82t210 30q48 0 94.5 -12.5t83.5 -32.5l15 19h230q-5 -16 -13.5 -36t-16.5 -38.5t-15 -34t-8 -22.5l-140 -709q0 -24 1.5 -41t8 -27t18 -14t30.5 -4q4 0 31 6t59 14.5t60 15.5t37 9v-104zM759 1406q0 -30 -11.5 -57t-31.5 -47.5t-47 -32t-58 -11.5 q-30 0 -57.5 11.5t-47.5 32t-31.5 47.5t-11.5 57t11.5 57.5t31.5 48t47.5 32t57.5 11.5q31 0 58 -11.5t47 -32t31.5 -48t11.5 -57.5zM1211 1406q0 -30 -11.5 -57t-31.5 -47.5t-47.5 -32t-57.5 -11.5q-31 0 -57.5 11.5t-46.5 32t-31 47.5t-11 57t11 57.5t31 48t46.5 32 t57.5 11.5q30 0 57.5 -11.5t47.5 -32t31.5 -48t11.5 -57.5z" />
<glyph unicode="&#xe5;" horiz-adv-x="1221" d="M806 847q1 5 -0.5 21.5t-6 35t-11.5 32.5t-16 14q-70 0 -126 -25t-100.5 -68t-77 -100t-54 -120.5t-32 -129.5t-10.5 -127q0 -43 1.5 -86t12.5 -78.5t36.5 -58t74.5 -22.5q34 0 65 16t57 36.5t45.5 41.5t30.5 31q7 43 12 67t8.5 45.5t9 48.5t15.5 78t25.5 133.5 t40.5 214.5zM1215 64q-37 -15 -77.5 -30.5t-82.5 -28.5t-84 -22t-83 -9q-68 0 -113.5 25t-66.5 72q-29 -19 -61.5 -36.5t-68 -30.5t-73.5 -21.5t-77 -8.5q-66 0 -118.5 17.5t-92.5 48t-67.5 70.5t-45.5 83.5t-26.5 89t-8.5 85.5q0 79 17.5 162.5t53.5 162.5t91 148.5 t129.5 121.5t169.5 82t210 30q48 0 94.5 -12.5t83.5 -32.5l15 19h230q-5 -16 -13.5 -36t-16.5 -38.5t-15 -34t-8 -22.5l-140 -709q0 -24 1.5 -41t8 -27t18 -14t30.5 -4q4 0 31 6t59 14.5t60 15.5t37 9v-104zM1002 1482q0 49 -31.5 79.5t-79.5 30.5q-32 0 -62 -14t-53 -36 t-37 -51t-14 -61q0 -49 32 -79.5t79 -30.5q33 0 63 13.5t53 35.5t36.5 51.5t13.5 61.5zM1140 1510q0 -65 -28 -124t-73.5 -103.5t-105 -71.5t-122.5 -27q-47 0 -88 16t-71 45t-47.5 68.5t-17.5 88.5q0 64 28 123t74 104t105.5 71.5t123.5 26.5q47 0 88 -16t70.5 -45 t46.5 -69t17 -87z" />
<glyph unicode="&#xe6;" horiz-adv-x="1688" d="M729 954q-63 -7 -114 -35.5t-91.5 -73t-70.5 -100.5t-49.5 -117.5t-29 -125t-9.5 -122.5q0 -37 0.5 -80t11.5 -79.5t37.5 -62t77.5 -25.5q30 0 59.5 13.5t55.5 32.5t47.5 41.5t35.5 39.5l110 587zM1379 852q0 18 -3 36t-11 31t-23.5 21t-40.5 8q-42 0 -90 -30.5 t-90.5 -81.5t-73 -117.5t-36.5 -137.5q58 12 122.5 37.5t119 60.5t90.5 78.5t36 94.5zM1652 852q0 -56 -28.5 -104.5t-77.5 -88t-114 -72t-138 -55.5t-149.5 -38t-149.5 -20q-6 -24 -9.5 -42t-5.5 -35.5t-3 -35t-1 -37.5q0 -34 7 -70.5t28 -65.5t59.5 -48t101.5 -19 q36 0 70 13.5t78 45.5t104 84t146 128v-207q-31 -32 -80 -68.5t-111.5 -68.5t-135.5 -53t-151 -21q-68 0 -120.5 6t-92.5 21.5t-68.5 42t-47.5 67.5q-69 -66 -156.5 -101.5t-183.5 -35.5q-97 0 -165 38.5t-110 97.5t-60.5 128.5t-18.5 129.5q0 79 17.5 162.5t53 162.5 t90 148.5t128.5 121.5t167 82t208 30q22 0 42 -6.5t37.5 -16.5t32 -23t25.5 -25l22 45h226l-30 -83q36 30 78.5 51t85 34t81.5 18.5t69 5.5q78 0 127 -25.5t76.5 -62t37 -74t9.5 -61.5z" />
<glyph unicode="&#xe7;" horiz-adv-x="1034" d="M692 -243q0 -63 -27.5 -110.5t-72 -79t-100 -48t-112.5 -16.5q-34 0 -64 3.5t-55 8.5q-27 4 -51 11l22 109q23 -6 46 -10q20 -3 43 -5.5t44 -2.5t45.5 3.5t45.5 13t35 27t14 44.5q0 30 -23.5 44.5t-56.5 14.5q-5 0 -13.5 -0.5t-16.5 -1.5l-19 -2l42 215q-79 4 -139 28 q-71 30 -117 83.5t-68.5 129t-22.5 167.5q0 140 44 265.5t127.5 220.5t203.5 150.5t274 55.5q64 0 111 -15t77.5 -38.5t45 -51.5t14.5 -54q0 -19 -9.5 -47.5t-33 -54.5t-63.5 -44.5t-101 -18.5l-118 167q-61 -14 -105 -50.5t-74.5 -86t-50 -106.5t-30 -109.5t-14.5 -95 t-4 -64.5q0 -49 4.5 -98t19.5 -87.5t45 -63t83 -24.5q39 0 80 11.5t89 43t105 87t130 142.5v-214q-44 -53 -94.5 -95t-109 -72t-125.5 -45q-30 -8 -63 -12l-20 -96q3 -1 8 -1q5 -1 23 -1q32 0 60 -7t48.5 -22.5t32 -39t11.5 -55.5z" />
<glyph unicode="&#xe8;" horiz-adv-x="1032" d="M716 852q0 18 -2.5 36.5t-10.5 33.5t-23 23.5t-40 8.5q-50 0 -89.5 -35.5t-70 -90.5t-52.5 -120.5t-36 -124.5q55 12 113 37.5t104.5 60.5t76.5 78t30 93zM995 849q0 -56 -25.5 -104.5t-70.5 -88.5t-105.5 -72t-129.5 -55t-143 -37t-145 -21q-2 -19 -4 -44.5t-2 -43.5 q0 -55 8 -102.5t27 -82t50 -54t76 -19.5q35 0 70.5 13.5t83 45.5t110.5 84.5t151 129.5v-205q-31 -30 -81.5 -68.5t-114.5 -72t-137.5 -56t-152.5 -22.5q-70 0 -139.5 17.5t-124.5 63t-90 122.5t-35 197q0 82 20.5 166t58.5 161.5t92.5 146t123.5 118.5t150.5 79.5 t173.5 29.5q79 0 136.5 -26t95.5 -62.5t55.5 -74.5t17.5 -63zM773 1184l-349 190q-11 7 -20.5 18t-17 23.5t-11.5 25.5t-4 24q0 19 6 39.5t20.5 36.5t38 26.5t58.5 10.5q22 0 38.5 -3t32 -11t30.5 -21t34 -33l294 -326h-150z" />
<glyph unicode="&#xe9;" horiz-adv-x="1032" d="M716 852q0 18 -2.5 36.5t-10.5 33.5t-23 23.5t-40 8.5q-50 0 -89.5 -35.5t-70 -90.5t-52.5 -120.5t-36 -124.5q55 12 113 37.5t104.5 60.5t76.5 78t30 93zM995 849q0 -56 -25.5 -104.5t-70.5 -88.5t-105.5 -72t-129.5 -55t-143 -37t-145 -21q-2 -19 -4 -44.5t-2 -43.5 q0 -55 8 -102.5t27 -82t50 -54t76 -19.5q35 0 70.5 13.5t83 45.5t110.5 84.5t151 129.5v-205q-31 -30 -81.5 -68.5t-114.5 -72t-137.5 -56t-152.5 -22.5q-70 0 -139.5 17.5t-124.5 63t-90 122.5t-35 197q0 82 20.5 166t58.5 161.5t92.5 146t123.5 118.5t150.5 79.5 t173.5 29.5q79 0 136.5 -26t95.5 -62.5t55.5 -74.5t17.5 -63zM1057 1465q0 -11 -4.5 -24t-12 -25.5t-17.5 -23.5t-23 -18l-345 -190h-152l295 326q18 20 33.5 33t31 21t32.5 11t39 3q35 0 58.5 -10.5t37.5 -26.5t20.5 -36.5t6.5 -39.5z" />
<glyph unicode="&#xea;" horiz-adv-x="1032" d="M716 852q0 18 -2.5 36.5t-10.5 33.5t-23 23.5t-40 8.5q-50 0 -89.5 -35.5t-70 -90.5t-52.5 -120.5t-36 -124.5q55 12 113 37.5t104.5 60.5t76.5 78t30 93zM995 849q0 -56 -25.5 -104.5t-70.5 -88.5t-105.5 -72t-129.5 -55t-143 -37t-145 -21q-2 -19 -4 -44.5t-2 -43.5 q0 -55 8 -102.5t27 -82t50 -54t76 -19.5q35 0 70.5 13.5t83 45.5t110.5 84.5t151 129.5v-205q-31 -30 -81.5 -68.5t-114.5 -72t-137.5 -56t-152.5 -22.5q-70 0 -139.5 17.5t-124.5 63t-90 122.5t-35 197q0 82 20.5 166t58.5 161.5t92.5 146t123.5 118.5t150.5 79.5 t173.5 29.5q79 0 136.5 -26t95.5 -62.5t55.5 -74.5t17.5 -63zM873 1184l-144 205l-228 -205h-178l312 369h253l166 -369h-181z" />
<glyph unicode="&#xeb;" horiz-adv-x="1032" d="M716 852q0 18 -2.5 36.5t-10.5 33.5t-23 23.5t-40 8.5q-50 0 -89.5 -35.5t-70 -90.5t-52.5 -120.5t-36 -124.5q55 12 113 37.5t104.5 60.5t76.5 78t30 93zM995 849q0 -56 -25.5 -104.5t-70.5 -88.5t-105.5 -72t-129.5 -55t-143 -37t-145 -21q-2 -19 -4 -44.5t-2 -43.5 q0 -55 8 -102.5t27 -82t50 -54t76 -19.5q35 0 70.5 13.5t83 45.5t110.5 84.5t151 129.5v-205q-31 -30 -81.5 -68.5t-114.5 -72t-137.5 -56t-152.5 -22.5q-70 0 -139.5 17.5t-124.5 63t-90 122.5t-35 197q0 82 20.5 166t58.5 161.5t92.5 146t123.5 118.5t150.5 79.5 t173.5 29.5q79 0 136.5 -26t95.5 -62.5t55.5 -74.5t17.5 -63zM655 1406q0 -30 -11.5 -57t-31.5 -47.5t-47 -32t-58 -11.5q-30 0 -57.5 11.5t-47.5 32t-31.5 47.5t-11.5 57t11.5 57.5t31.5 48t47.5 32t57.5 11.5q31 0 58 -11.5t47 -32t31.5 -48t11.5 -57.5zM1107 1406 q0 -30 -11.5 -57t-31.5 -47.5t-47.5 -32t-57.5 -11.5q-31 0 -57.5 11.5t-46.5 32t-31 47.5t-11 57t11 57.5t31 48t46.5 32t57.5 11.5q30 0 57.5 -11.5t47.5 -32t31.5 -48t11.5 -57.5z" />
<glyph unicode="&#xec;" horiz-adv-x="666" d="M663 69q-97 -52 -184 -73.5t-180 -21.5q-59 0 -99 20t-63.5 51.5t-30.5 70.5t1 79l136 714l-185 20v75l355 71h151l-166 -862q-4 -19 -5 -36.5t2.5 -31.5t14 -22.5t29.5 -8.5q8 0 33 5.5t57.5 15t67.5 23t66 29.5v-118zM538 1184l-349 190q-11 7 -20.5 18t-17 23.5 t-11.5 25.5t-4 24q0 19 6 39.5t20.5 36.5t38 26.5t58.5 10.5q22 0 38.5 -3t32 -11t30.5 -21t34 -33l294 -326h-150z" />
<glyph unicode="&#xed;" horiz-adv-x="666" d="M663 69q-97 -52 -184 -73.5t-180 -21.5q-59 0 -99 20t-63.5 51.5t-30.5 70.5t1 79l136 714l-185 20v75l355 71h151l-166 -862q-4 -19 -5 -36.5t2.5 -31.5t14 -22.5t29.5 -8.5q8 0 33 5.5t57.5 15t67.5 23t66 29.5v-118zM821 1465q0 -11 -4.5 -24t-12 -25.5t-17.5 -23.5 t-23 -18l-345 -190h-152l295 326q18 20 33.5 33t31 21t32.5 11t39 3q35 0 58.5 -10.5t37.5 -26.5t20.5 -36.5t6.5 -39.5z" />
<glyph unicode="&#xee;" horiz-adv-x="666" d="M663 69q-97 -52 -184 -73.5t-180 -21.5q-59 0 -99 20t-63.5 51.5t-30.5 70.5t1 79l136 714l-185 20v75l355 71h151l-166 -862q-4 -19 -5 -36.5t2.5 -31.5t14 -22.5t29.5 -8.5q8 0 33 5.5t57.5 15t67.5 23t66 29.5v-118zM637 1184l-144 205l-228 -205h-178l312 369h253 l166 -369h-181z" />
<glyph unicode="&#xef;" horiz-adv-x="666" d="M663 69q-97 -52 -184 -73.5t-180 -21.5q-59 0 -99 20t-63.5 51.5t-30.5 70.5t1 79l136 714l-185 20v75l355 71h151l-166 -862q-4 -19 -5 -36.5t2.5 -31.5t14 -22.5t29.5 -8.5q8 0 33 5.5t57.5 15t67.5 23t66 29.5v-118zM420 1406q0 -30 -11.5 -57t-31.5 -47.5t-47 -32 t-58 -11.5q-30 0 -57.5 11.5t-47.5 32t-31.5 47.5t-11.5 57t11.5 57.5t31.5 48t47.5 32t57.5 11.5q31 0 58 -11.5t47 -32t31.5 -48t11.5 -57.5zM872 1406q0 -30 -11.5 -57t-31.5 -47.5t-47.5 -32t-57.5 -11.5q-31 0 -57.5 11.5t-46.5 32t-31 47.5t-11 57t11 57.5t31 48 t46.5 32t57.5 11.5q30 0 57.5 -11.5t47.5 -32t31.5 -48t11.5 -57.5z" />
<glyph unicode="&#xf0;" horiz-adv-x="1176" d="M796 628q0 50 -3 91.5t-8.5 78t-13.5 69t-18 64.5q-12 10 -25.5 18t-37.5 8q-75 0 -133.5 -51.5t-99 -132.5t-62 -179.5t-21.5 -193.5q0 -87 18 -146t42 -95t49 -51.5t40 -15.5q38 0 72.5 21.5t65 59t55 89t42.5 111t28 125t10 130.5zM892 1305q37 -66 73.5 -148 t64.5 -170t46 -178.5t18 -174.5q0 -61 -11.5 -133.5t-39 -146t-72.5 -142t-111 -121.5t-156 -85t-207 -32q-106 0 -186 31t-133.5 86t-81 131.5t-27.5 169.5q0 85 18 168t52.5 158t85.5 139.5t117 111t147.5 73.5t177.5 27q9 0 20 -1t23 -3q-17 39 -34.5 77.5t-30.5 68.5 l-303 -121l-54 129l282 108l-69 97l-170 43l9 72l357 53l118 -168l260 101l58 -123z" />
<glyph unicode="&#xf1;" horiz-adv-x="1243" d="M1235 49q-29 -13 -71 -27t-88.5 -24.5t-93 -17t-83.5 -6.5q-36 0 -77.5 5t-75.5 20t-53.5 41t-11.5 69l132 656q8 39 7.5 66t-8.5 43.5t-21 23.5t-30 7q-25 0 -57.5 -14.5t-69 -39t-73.5 -56.5t-71 -66l-152 -729h-287l189 914l-180 17v73l353 71h149l-26 -125 q38 26 82 49.5t88.5 40t89 26t86.5 9.5q80 0 132 -18.5t78.5 -54t31.5 -88t-8 -120.5l-116 -605q-6 -26 -1 -42.5t14 -26t19.5 -12.5t18.5 -3q34 0 82 13t97 34zM1172 1525q-24 -56 -55 -104.5t-70 -84.5t-85.5 -57t-101.5 -21q-43 0 -71.5 16t-55.5 35t-59 35.5t-81 16.5 q-16 0 -33.5 -8t-32.5 -22t-27.5 -32.5t-19.5 -40.5h-117q26 56 57.5 104t70 84.5t85 57.5t99.5 21q43 0 72 -16t56.5 -35t59 -34.5t79.5 -15.5q17 0 34 8t33 21.5t28 32t18 39.5h117z" />
<glyph unicode="&#xf2;" horiz-adv-x="1189" d="M813 660q0 79 -16 136t-38.5 93.5t-48 54t-45.5 17.5q-33 0 -67 -21.5t-66 -60t-60.5 -91.5t-50 -115.5t-33.5 -132.5t-12 -142q0 -83 16 -141.5t40 -94.5t49 -53t44 -17q57 0 109 51.5t91.5 133.5t63.5 183t24 200zM1122 652q0 -85 -18.5 -168t-55.5 -158t-90.5 -139.5 t-123 -112t-154 -74t-181.5 -26.5q-111 0 -191.5 31.5t-133.5 86.5t-79 131t-26 167q0 84 18.5 167t53.5 160t87.5 142t121.5 113.5t153.5 75.5t184.5 27q98 0 178.5 -26.5t137 -79.5t87.5 -132.5t31 -184.5zM815 1184l-349 190q-11 7 -20.5 18t-17 23.5t-11.5 25.5t-4 24 q0 19 6 39.5t20.5 36.5t38 26.5t58.5 10.5q22 0 38.5 -3t32 -11t30.5 -21t34 -33l294 -326h-150z" />
<glyph unicode="&#xf3;" horiz-adv-x="1189" d="M813 660q0 79 -16 136t-38.5 93.5t-48 54t-45.5 17.5q-33 0 -67 -21.5t-66 -60t-60.5 -91.5t-50 -115.5t-33.5 -132.5t-12 -142q0 -83 16 -141.5t40 -94.5t49 -53t44 -17q57 0 109 51.5t91.5 133.5t63.5 183t24 200zM1122 652q0 -85 -18.5 -168t-55.5 -158t-90.5 -139.5 t-123 -112t-154 -74t-181.5 -26.5q-111 0 -191.5 31.5t-133.5 86.5t-79 131t-26 167q0 84 18.5 167t53.5 160t87.5 142t121.5 113.5t153.5 75.5t184.5 27q98 0 178.5 -26.5t137 -79.5t87.5 -132.5t31 -184.5zM1099 1465q0 -11 -4.5 -24t-12 -25.5t-17.5 -23.5t-23 -18 l-345 -190h-152l295 326q18 20 33.5 33t31 21t32.5 11t39 3q35 0 58.5 -10.5t37.5 -26.5t20.5 -36.5t6.5 -39.5z" />
<glyph unicode="&#xf4;" horiz-adv-x="1189" d="M813 660q0 79 -16 136t-38.5 93.5t-48 54t-45.5 17.5q-33 0 -67 -21.5t-66 -60t-60.5 -91.5t-50 -115.5t-33.5 -132.5t-12 -142q0 -83 16 -141.5t40 -94.5t49 -53t44 -17q57 0 109 51.5t91.5 133.5t63.5 183t24 200zM1122 652q0 -85 -18.5 -168t-55.5 -158t-90.5 -139.5 t-123 -112t-154 -74t-181.5 -26.5q-111 0 -191.5 31.5t-133.5 86.5t-79 131t-26 167q0 84 18.5 167t53.5 160t87.5 142t121.5 113.5t153.5 75.5t184.5 27q98 0 178.5 -26.5t137 -79.5t87.5 -132.5t31 -184.5zM915 1184l-144 205l-228 -205h-178l312 369h253l166 -369h-181z " />
<glyph unicode="&#xf5;" horiz-adv-x="1189" d="M813 660q0 79 -16 136t-38.5 93.5t-48 54t-45.5 17.5q-33 0 -67 -21.5t-66 -60t-60.5 -91.5t-50 -115.5t-33.5 -132.5t-12 -142q0 -83 16 -141.5t40 -94.5t49 -53t44 -17q57 0 109 51.5t91.5 133.5t63.5 183t24 200zM1122 652q0 -85 -18.5 -168t-55.5 -158t-90.5 -139.5 t-123 -112t-154 -74t-181.5 -26.5q-111 0 -191.5 31.5t-133.5 86.5t-79 131t-26 167q0 84 18.5 167t53.5 160t87.5 142t121.5 113.5t153.5 75.5t184.5 27q98 0 178.5 -26.5t137 -79.5t87.5 -132.5t31 -184.5zM1161 1525q-24 -56 -55 -104.5t-70 -84.5t-85.5 -57t-101.5 -21 q-43 0 -71.5 16t-55.5 35t-59 35.5t-81 16.5q-16 0 -33.5 -8t-32.5 -22t-27.5 -32.5t-19.5 -40.5h-117q26 56 57.5 104t70 84.5t85 57.5t99.5 21q43 0 72 -16t56.5 -35t59 -34.5t79.5 -15.5q17 0 34 8t33 21.5t28 32t18 39.5h117z" />
<glyph unicode="&#xf6;" horiz-adv-x="1189" d="M813 660q0 79 -16 136t-38.5 93.5t-48 54t-45.5 17.5q-33 0 -67 -21.5t-66 -60t-60.5 -91.5t-50 -115.5t-33.5 -132.5t-12 -142q0 -83 16 -141.5t40 -94.5t49 -53t44 -17q57 0 109 51.5t91.5 133.5t63.5 183t24 200zM1122 652q0 -85 -18.5 -168t-55.5 -158t-90.5 -139.5 t-123 -112t-154 -74t-181.5 -26.5q-111 0 -191.5 31.5t-133.5 86.5t-79 131t-26 167q0 84 18.5 167t53.5 160t87.5 142t121.5 113.5t153.5 75.5t184.5 27q98 0 178.5 -26.5t137 -79.5t87.5 -132.5t31 -184.5zM697 1406q0 -30 -11.5 -57t-31.5 -47.5t-47 -32t-58 -11.5 q-30 0 -57.5 11.5t-47.5 32t-31.5 47.5t-11.5 57t11.5 57.5t31.5 48t47.5 32t57.5 11.5q31 0 58 -11.5t47 -32t31.5 -48t11.5 -57.5zM1149 1406q0 -30 -11.5 -57t-31.5 -47.5t-47.5 -32t-57.5 -11.5q-31 0 -57.5 11.5t-46.5 32t-31 47.5t-11 57t11 57.5t31 48t46.5 32 t57.5 11.5q30 0 57.5 -11.5t47.5 -32t31.5 -48t11.5 -57.5z" />
<glyph unicode="&#xf7;" horiz-adv-x="2150" d="M1204 299q0 -27 -10 -50t-27.5 -40t-41.5 -27t-50 -10q-27 0 -50 10t-41 27t-28 40t-10 50q0 28 10 51.5t28 40.5t41 27t50 10q26 0 50 -10t41.5 -27t27.5 -40.5t10 -51.5zM430 579v133h1290v-133h-1290zM1204 991q0 -27 -10 -50.5t-27.5 -41t-41.5 -27.5t-50 -10 q-27 0 -50 10t-41 27.5t-28 41t-10 50.5q0 26 10 50t28 41.5t41 27.5t50 10q26 0 50 -10t41.5 -27.5t27.5 -41.5t10 -50z" />
<glyph unicode="&#xf8;" horiz-adv-x="1189" d="M813 660q0 19 -0.5 38t-4.5 35l-369 -579q21 -32 44.5 -47t41.5 -15q57 0 109 51.5t91.5 133.5t63.5 183t24 200zM753 899q-23 32 -46 47t-42 15q-33 0 -67 -21.5t-66 -60t-60.5 -91.5t-50 -115.5t-33.5 -132.5t-12 -142q0 -47 7 -84zM1122 652q0 -85 -18.5 -168 t-55.5 -158t-90.5 -139.5t-123 -112t-154 -74t-181.5 -26.5q-45 0 -85 6t-76 16l-127 -199l-110 74l116 183q-75 56 -111.5 142t-36.5 194q0 84 18.5 167t53.5 160t87.5 142t121.5 113.5t153.5 75.5t184.5 27q46 0 86.5 -5.5t77.5 -15.5l98 157l121 -70l-95 -148 q72 -51 109 -136t37 -205z" />
<glyph unicode="&#xf9;" horiz-adv-x="1234" d="M1230 60q-22 -12 -60.5 -27t-85.5 -28t-97 -22t-97 -9q-55 0 -90 11.5t-54 27.5t-27.5 33.5t-10.5 29.5q-72 -50 -155 -76t-188 -26q-79 0 -134.5 27t-87.5 68t-42 90t0 93l139 659l-180 20v73l355 71h149l-177 -823q-5 -25 -2.5 -48t12 -40.5t25.5 -28t36 -10.5 q36 0 70 10t66 28t62.5 41t59.5 50l168 795h286l-177 -834q-12 -60 5 -86t51 -26q8 0 19 2.5t30.5 10.5t50.5 23t81 42v-121zM862 1184l-349 190q-11 7 -20.5 18t-17 23.5t-11.5 25.5t-4 24q0 19 6 39.5t20.5 36.5t38 26.5t58.5 10.5q22 0 38.5 -3t32 -11t30.5 -21t34 -33 l294 -326h-150z" />
<glyph unicode="&#xfa;" horiz-adv-x="1234" d="M1230 60q-22 -12 -60.5 -27t-85.5 -28t-97 -22t-97 -9q-55 0 -90 11.5t-54 27.5t-27.5 33.5t-10.5 29.5q-72 -50 -155 -76t-188 -26q-79 0 -134.5 27t-87.5 68t-42 90t0 93l139 659l-180 20v73l355 71h149l-177 -823q-5 -25 -2.5 -48t12 -40.5t25.5 -28t36 -10.5 q36 0 70 10t66 28t62.5 41t59.5 50l168 795h286l-177 -834q-12 -60 5 -86t51 -26q8 0 19 2.5t30.5 10.5t50.5 23t81 42v-121zM1146 1465q0 -11 -4.5 -24t-12 -25.5t-17.5 -23.5t-23 -18l-345 -190h-152l295 326q18 20 33.5 33t31 21t32.5 11t39 3q35 0 58.5 -10.5 t37.5 -26.5t20.5 -36.5t6.5 -39.5z" />
<glyph unicode="&#xfb;" horiz-adv-x="1234" d="M1230 60q-22 -12 -60.5 -27t-85.5 -28t-97 -22t-97 -9q-55 0 -90 11.5t-54 27.5t-27.5 33.5t-10.5 29.5q-72 -50 -155 -76t-188 -26q-79 0 -134.5 27t-87.5 68t-42 90t0 93l139 659l-180 20v73l355 71h149l-177 -823q-5 -25 -2.5 -48t12 -40.5t25.5 -28t36 -10.5 q36 0 70 10t66 28t62.5 41t59.5 50l168 795h286l-177 -834q-12 -60 5 -86t51 -26q8 0 19 2.5t30.5 10.5t50.5 23t81 42v-121zM962 1184l-144 205l-228 -205h-178l312 369h253l166 -369h-181z" />
<glyph unicode="&#xfc;" horiz-adv-x="1234" d="M1230 60q-22 -12 -60.5 -27t-85.5 -28t-97 -22t-97 -9q-55 0 -90 11.5t-54 27.5t-27.5 33.5t-10.5 29.5q-72 -50 -155 -76t-188 -26q-79 0 -134.5 27t-87.5 68t-42 90t0 93l139 659l-180 20v73l355 71h149l-177 -823q-5 -25 -2.5 -48t12 -40.5t25.5 -28t36 -10.5 q36 0 70 10t66 28t62.5 41t59.5 50l168 795h286l-177 -834q-12 -60 5 -86t51 -26q8 0 19 2.5t30.5 10.5t50.5 23t81 42v-121zM744 1406q0 -30 -11.5 -57t-31.5 -47.5t-47 -32t-58 -11.5q-30 0 -57.5 11.5t-47.5 32t-31.5 47.5t-11.5 57t11.5 57.5t31.5 48t47.5 32t57.5 11.5 q31 0 58 -11.5t47 -32t31.5 -48t11.5 -57.5zM1196 1406q0 -30 -11.5 -57t-31.5 -47.5t-47.5 -32t-57.5 -11.5q-31 0 -57.5 11.5t-46.5 32t-31 47.5t-11 57t11 57.5t31 48t46.5 32t57.5 11.5q30 0 57.5 -11.5t47.5 -32t31.5 -48t11.5 -57.5z" />
<glyph unicode="&#xfd;" horiz-adv-x="1167" d="M1118 886q-12 -12 -36.5 -45.5t-50 -75t-50 -85.5t-39.5 -76q-23 -52 -55 -125t-71.5 -157t-85 -174.5t-96.5 -177.5q-53 -94 -114.5 -178t-133 -147t-154.5 -100t-181 -37q-65 0 -108.5 16.5t-69.5 42t-36.5 53.5t-10.5 51q0 27 8 57t28.5 57t54 45t83.5 20l92 -164 q146 32 325 359q-2 13 -10.5 56t-20.5 105t-27.5 137t-31.5 152q-16 73 -29.5 147.5t-25.5 134.5t-21 97t-17 37l-228 18v66q13 5 37 12.5t54.5 16.5t63 18t62.5 16.5t53.5 12t35.5 4.5q36 0 65.5 -4.5t55.5 -25t48.5 -63t45.5 -118.5q11 -37 23.5 -86.5t25 -107t26 -119.5 t26.5 -125l295 649h103l204 -64v-57zM1073 1465q0 -11 -4.5 -24t-12 -25.5t-17.5 -23.5t-23 -18l-345 -190h-152l295 326q18 20 33.5 33t31 21t32.5 11t39 3q35 0 58.5 -10.5t37.5 -26.5t20.5 -36.5t6.5 -39.5z" />
<glyph unicode="&#xfe;" horiz-adv-x="1163" d="M794 660q0 46 -4.5 92.5t-18 85t-39 63t-67.5 24.5q-23 0 -50 -12.5t-54 -31t-50.5 -38.5t-39.5 -35l-131 -662q13 -8 29.5 -18t34.5 -18.5t35.5 -15t31.5 -6.5q46 0 87.5 25t77 68t65 99t50 120t32 130.5t11.5 129.5zM1094 669q0 -86 -21 -171t-60.5 -162.5t-97 -143.5 t-131 -114.5t-163 -76t-191.5 -27.5q-39 0 -69 5.5t-51 12.5l-65 -319q-3 -14 5.5 -24t26.5 -10q15 -1 37 -3q19 -2 46.5 -4.5t65.5 -5.5v-97h-633v97q17 2 39.5 3t42.5 3q23 3 47 5q17 2 25.5 12t11.5 24l340 1749l-178 19v75l355 68h144l-113 -589q17 10 44 23.5t60.5 26 t72 21.5t81.5 9q85 0 147 -36t102.5 -94t60 -130.5t19.5 -145.5z" />
<glyph unicode="&#xff;" horiz-adv-x="1167" d="M1118 886q-12 -12 -36.5 -45.5t-50 -75t-50 -85.5t-39.5 -76q-23 -52 -55 -125t-71.5 -157t-85 -174.5t-96.5 -177.5q-53 -94 -114.5 -178t-133 -147t-154.5 -100t-181 -37q-65 0 -108.5 16.5t-69.5 42t-36.5 53.5t-10.5 51q0 27 8 57t28.5 57t54 45t83.5 20l92 -164 q146 32 325 359q-2 13 -10.5 56t-20.5 105t-27.5 137t-31.5 152q-16 73 -29.5 147.5t-25.5 134.5t-21 97t-17 37l-228 18v66q13 5 37 12.5t54.5 16.5t63 18t62.5 16.5t53.5 12t35.5 4.5q36 0 65.5 -4.5t55.5 -25t48.5 -63t45.5 -118.5q11 -37 23.5 -86.5t25 -107t26 -119.5 t26.5 -125l295 649h103l204 -64v-57zM672 1406q0 -30 -11.5 -57t-31.5 -47.5t-47 -32t-58 -11.5q-30 0 -57.5 11.5t-47.5 32t-31.5 47.5t-11.5 57t11.5 57.5t31.5 48t47.5 32t57.5 11.5q31 0 58 -11.5t47 -32t31.5 -48t11.5 -57.5zM1124 1406q0 -30 -11.5 -57t-31.5 -47.5 t-47.5 -32t-57.5 -11.5q-31 0 -57.5 11.5t-46.5 32t-31 47.5t-11 57t11 57.5t31 48t46.5 32t57.5 11.5q30 0 57.5 -11.5t47.5 -32t31.5 -48t11.5 -57.5z" />
<glyph unicode="&#x152;" horiz-adv-x="2251" d="M1241 897q0 126 -32 212t-79.5 139.5t-102.5 76.5t-100 23q-62 0 -121.5 -32t-114.5 -88.5t-101.5 -133.5t-80 -166t-53 -186.5t-19.5 -195.5q0 -118 30.5 -202.5t76.5 -139t100.5 -80t104.5 -25.5q63 0 123.5 32t115.5 88.5t101 133t80 165t53 185.5t19 194zM2253 1104 h-172v182q0 16 -15.5 23t-33.5 7h-387l-98 -501h242q16 0 35.5 8t22.5 24l45 151h160l-101 -506h-160l24 162q1 13 -16 21.5t-34 8.5h-243l-112 -555h461q7 0 16 2t18 6.5t15.5 10t8.5 12.5l71 214h167l-72 -374h-1013l26 109q-83 -68 -174.5 -106t-200.5 -38 q-143 0 -259 42.5t-198.5 121.5t-127.5 190t-45 249q0 107 25 215.5t74.5 210t121.5 190t165.5 153.5t208.5 102.5t248 37.5q74 0 133.5 -10.5t108 -29t87.5 -45t69 -56.5l19 107h960z" />
<glyph unicode="&#x153;" horiz-adv-x="1694" d="M1658 827q0 -66 -31.5 -117t-83 -88.5t-116.5 -64.5t-133.5 -44.5t-133 -27t-113.5 -14.5q-2 -21 -3 -46t-1 -40q0 -121 48.5 -190.5t135.5 -69.5q39 0 79 18t87 52.5t104.5 86.5t132.5 120v-219q-47 -42 -99.5 -80t-111.5 -67t-125 -45.5t-139 -16.5q-106 0 -177 40 t-118 111q-66 -79 -154.5 -115t-208.5 -36q-106 0 -186.5 30.5t-134 85.5t-80.5 131.5t-27 168.5q0 77 16.5 158t50 157t84 143.5t118 117.5t154 79.5t189.5 29.5q50 0 96 -12.5t87 -35t74.5 -54t59.5 -68.5q30 38 74 69.5t96 53.5t109.5 34.5t113.5 12.5q72 0 122.5 -25.5 t83 -63.5t47 -81t14.5 -78zM792 636q0 60 -5.5 118t-21 103.5t-43.5 73.5t-73 28q-33 0 -66 -22t-64 -61t-58.5 -92t-48 -115.5t-32.5 -131.5t-12 -139q0 -66 7.5 -122.5t25 -96.5t46.5 -63.5t70 -23.5q56 0 106 49t87.5 127t59.5 175t22 193zM1400 827v34q0 21 -6 41.5 t-20 35t-43 14.5q-50 0 -91 -33.5t-74 -87t-57.5 -119.5t-41.5 -131q46 8 103.5 27t108.5 49.5t86 72.5t35 97z" />
<glyph unicode="&#x178;" horiz-adv-x="1464" d="M1482 1325q-12 -2 -23 -11t-16 -15l-546 -695l-91 -454q-5 -19 5.5 -24t33.5 -7q19 -1 39 -3q18 -3 39.5 -5t44.5 -4v-107h-650v107q21 2 43 4t40 5q20 2 40 3q21 2 34.5 7t19.5 26l88 435l-241 714q-5 18 -19.5 21t-34.5 5q-16 0 -35 2q-16 1 -35.5 3t-36.5 4v107h646 v-107q-24 -2 -47.5 -4t-42.5 -3q-22 -2 -42 -2q-18 0 -30.5 -6.5t-4.5 -27.5l148 -468l355 470q7 8 2.5 19t-28.5 13l-126 9v107h608v-107zM889 1826q0 -30 -11.5 -57t-31.5 -47.5t-47 -32t-58 -11.5q-30 0 -57.5 11.5t-47.5 32t-31.5 47.5t-11.5 57t11.5 57.5t31.5 48 t47.5 32t57.5 11.5q31 0 58 -11.5t47 -32t31.5 -48t11.5 -57.5zM1341 1826q0 -30 -11.5 -57t-31.5 -47.5t-47.5 -32t-57.5 -11.5q-31 0 -57.5 11.5t-46.5 32t-31 47.5t-11 57t11 57.5t31 48t46.5 32t57.5 11.5q30 0 57.5 -11.5t47.5 -32t31.5 -48t11.5 -57.5z" />
<glyph unicode="&#x2c6;" horiz-adv-x="730" d="M673 1184l-144 205l-228 -205h-178l312 369h253l166 -369h-181z" />
<glyph unicode="&#x2c9;" horiz-adv-x="730" d="M868 1260h-733l35 173h731z" />
<glyph unicode="&#x2d7;" horiz-adv-x="748" d="M628 404h-564l45 228h564z" />
<glyph unicode="&#x2da;" horiz-adv-x="543" d="M589 1482q0 49 -31.5 79.5t-79.5 30.5q-32 0 -62 -14t-53 -36t-37 -51t-14 -61q0 -49 32 -79.5t79 -30.5q33 0 63 13.5t53 35.5t36.5 51.5t13.5 61.5zM727 1510q0 -65 -28 -124t-73.5 -103.5t-105 -71.5t-122.5 -27q-47 0 -88 16t-71 45t-47.5 68.5t-17.5 88.5 q0 64 28 123t74 104t105.5 71.5t123.5 26.5q47 0 88 -16t70.5 -45t46.5 -69t17 -87z" />
<glyph unicode="&#x2dc;" horiz-adv-x="754" d="M944 1525q-24 -56 -55 -104.5t-70 -84.5t-85.5 -57t-101.5 -21q-43 0 -71.5 16t-55.5 35t-59 35.5t-81 16.5q-16 0 -33.5 -8t-32.5 -22t-27.5 -32.5t-19.5 -40.5h-117q26 56 57.5 104t70 84.5t85 57.5t99.5 21q43 0 72 -16t56.5 -35t59 -34.5t79.5 -15.5q17 0 34 8 t33 21.5t28 32t18 39.5h117z" />
<glyph unicode="&#x408;" horiz-adv-x="1096" d="M1034 1323q-14 0 -20 -9t-10 -24l-138 -738q-23 -127 -57 -234.5t-97 -185.5t-165.5 -122.5t-260.5 -44.5q-72 0 -128 9.5t-97 22t-67 25t-37 17.5l73 374h177v-271q0 -9 10 -16.5t24.5 -13.5t31 -9.5t28.5 -3.5q94 0 153.5 107.5t99.5 329.5l143 757q3 18 -7.5 24 t-31.5 8q-20 1 -41 3q-17 2 -40.5 4t-45.5 4v107h649v-107z" />
<glyph unicode="&#x458;" horiz-adv-x="683" d="M439 181q-10 -55 -32.5 -126t-56.5 -145.5t-79 -147t-101 -129t-121 -91t-139 -34.5q-38 0 -72 9t-59.5 26t-40.5 39.5t-15 49.5q0 20 6.5 36.5t19 30t28 25.5t34.5 24l204 -54q14 24 29.5 57.5t29.5 73t25.5 81.5t19.5 81l158 920l-185 20v77l357 71h142zM669 1426 q0 -35 -13.5 -65.5t-37 -53.5t-54.5 -36t-65 -13q-35 0 -65.5 13t-52.5 36t-35 53.5t-13 65.5t13 65t35 52.5t52.5 35.5t65.5 13q34 0 65 -13t54.5 -35.5t37 -52.5t13.5 -65z" />
<glyph unicode="&#x4bb;" horiz-adv-x="1214" d="M1211 60q-81 -39 -163.5 -62.5t-167.5 -23.5q-38 0 -77.5 8t-70 25.5t-46 46.5t-7.5 71l129 626q9 39 4 68.5t-16.5 50t-28 31t-32.5 10.5q-24 0 -54.5 -12t-64 -33.5t-69 -50.5t-67.5 -62l-158 -753h-285l296 1422l-189 16v78l363 68h149l-129 -608q65 40 148 69.5 t179 29.5q80 0 134 -22t83.5 -62t36.5 -96t-7 -123l-120 -569q-6 -28 -2 -45.5t12.5 -29t19 -16.5t19.5 -5q47 0 88.5 17t90.5 44z" />
<glyph unicode="&#x4d4;" horiz-adv-x="2103" d="M744 671h338l100 515zM2116 1104h-175v182q0 16 -15.5 22t-33.5 6h-376l-98 -499h223q16 0 35.5 8t24.5 24l43 151h159l-101 -506h-157l26 162q1 6 -3.5 11.5t-12 9.5t-16.5 6.5t-18 2.5h-230l-109 -555h440q7 0 16.5 2t18.5 6.5t16.5 10t9.5 12.5l68 214h168l-73 -374 h-1140v107q53 4 86 7t51.5 4.5t25 3t8.5 5t0.5 9.5t1.5 16l77 386h-422l-320 -384q-5 -6 -1.5 -12.5t10.5 -11.5t13 -8t8 -3l122 -12v-107h-580v107q18 2 36 3t33 3q17 3 32 4q10 1 16 2.5t11.5 5t12.5 11t16 18.5l946 1139q12 12 2.5 22t-32.5 12q-17 0 -34 2q-15 1 -32 3 t-33 4v107h1323z" />
<glyph unicode="&#x4d5;" horiz-adv-x="1688" d="M729 954q-63 -7 -114 -35.5t-91.5 -73t-70.5 -100.5t-49.5 -117.5t-29 -125t-9.5 -122.5q0 -37 0.5 -80t11.5 -79.5t37.5 -62t77.5 -25.5q30 0 59.5 13.5t55.5 32.5t47.5 41.5t35.5 39.5l110 587zM1379 852q0 18 -3 36t-11 31t-23.5 21t-40.5 8q-42 0 -90 -30.5 t-90.5 -81.5t-73 -117.5t-36.5 -137.5q58 12 122.5 37.5t119 60.5t90.5 78.5t36 94.5zM1652 852q0 -56 -28.5 -104.5t-77.5 -88t-114 -72t-138 -55.5t-149.5 -38t-149.5 -20q-6 -24 -9.5 -42t-5.5 -35.5t-3 -35t-1 -37.5q0 -34 7 -70.5t28 -65.5t59.5 -48t101.5 -19 q36 0 70 13.5t78 45.5t104 84t146 128v-207q-31 -32 -80 -68.5t-111.5 -68.5t-135.5 -53t-151 -21q-68 0 -120.5 6t-92.5 21.5t-68.5 42t-47.5 67.5q-69 -66 -156.5 -101.5t-183.5 -35.5q-97 0 -165 38.5t-110 97.5t-60.5 128.5t-18.5 129.5q0 79 17.5 162.5t53 162.5 t90 148.5t128.5 121.5t167 82t208 30q22 0 42 -6.5t37.5 -16.5t32 -23t25.5 -25l22 45h226l-30 -83q36 30 78.5 51t85 34t81.5 18.5t69 5.5q78 0 127 -25.5t76.5 -62t37 -74t9.5 -61.5z" />
<glyph unicode="&#x2000;" horiz-adv-x="1073" />
<glyph unicode="&#x2001;" horiz-adv-x="2147" />
<glyph unicode="&#x2002;" horiz-adv-x="1073" />
<glyph unicode="&#x2003;" horiz-adv-x="2147" />
<glyph unicode="&#x2004;" horiz-adv-x="715" />
<glyph unicode="&#x2005;" horiz-adv-x="536" />
<glyph unicode="&#x2006;" horiz-adv-x="357" />
<glyph unicode="&#x2007;" horiz-adv-x="357" />
<glyph unicode="&#x2008;" horiz-adv-x="268" />
<glyph unicode="&#x2009;" horiz-adv-x="429" />
<glyph unicode="&#x200a;" horiz-adv-x="119" />
<glyph unicode="&#x2010;" horiz-adv-x="748" d="M628 404h-564l45 228h564z" />
<glyph unicode="&#x2011;" horiz-adv-x="748" d="M628 404h-564l45 228h564z" />
<glyph unicode="&#x2012;" horiz-adv-x="748" d="M628 404h-564l45 228h564z" />
<glyph unicode="&#x2013;" horiz-adv-x="1075" d="M1043 411h-1076l43 213h1076z" />
<glyph unicode="&#x2014;" horiz-adv-x="2150" d="M2118 411h-2151l43 213h2151z" />
<glyph unicode="&#x2018;" horiz-adv-x="593" d="M656 1516q-112 -37 -183 -120.5t-90 -197.5h128q12 -20 18.5 -42.5t6.5 -43.5q0 -39 -16.5 -73t-43.5 -59.5t-62 -40t-72 -14.5q-39 0 -67.5 13t-47.5 36.5t-28.5 54t-9.5 67.5q0 88 39.5 169t102.5 147t142 114t159 70z" />
<glyph unicode="&#x2019;" horiz-adv-x="593" d="M677 1426q0 -88 -38.5 -169.5t-101.5 -147.5t-142.5 -114t-160.5 -70l-21 81q110 38 181 120.5t92 196.5h-129q-12 19 -18 42t-6 45q0 38 16 72t43.5 59.5t62.5 40t72 14.5q39 0 67.5 -13t46.5 -35.5t27 -54t9 -67.5z" />
<glyph unicode="&#x201a;" horiz-adv-x="593" d="M417 121q0 -89 -39 -170t-102 -147t-142 -114t-160 -70l-21 81q110 37 180.5 119.5t90.5 196.5h-130q-9 20 -14.5 43t-5.5 45q0 38 16 71.5t43 58.5t62 40t72 15q39 0 67 -12.5t46.5 -36t27.5 -54.5t9 -66z" />
<glyph unicode="&#x201c;" horiz-adv-x="1081" d="M656 1516q-112 -37 -183 -120.5t-90 -197.5h128q12 -20 18.5 -42.5t6.5 -43.5q0 -39 -16.5 -73t-43.5 -59.5t-62 -40t-72 -14.5q-39 0 -67.5 13t-47.5 36.5t-28.5 54t-9.5 67.5q0 88 39.5 169t102.5 147t142 114t159 70zM1144 1516q-112 -37 -182.5 -120.5t-91.5 -197.5 h130q11 -20 17.5 -42.5t6.5 -43.5q0 -39 -16.5 -73t-43 -59.5t-62 -40t-71.5 -14.5q-39 0 -68 13t-48 36.5t-28.5 54t-9.5 67.5q0 88 39.5 169t102.5 147t142.5 114t158.5 70z" />
<glyph unicode="&#x201d;" horiz-adv-x="1081" d="M677 1426q0 -88 -38.5 -169.5t-101.5 -147.5t-142.5 -114t-160.5 -70l-21 81q110 38 181 120.5t92 196.5h-129q-12 19 -18 42t-6 45q0 38 16 72t43.5 59.5t62.5 40t72 14.5q39 0 67.5 -13t46.5 -35.5t27 -54t9 -67.5zM1166 1426q0 -88 -39 -169.5t-102 -147.5 t-142.5 -114t-160.5 -70l-21 81q111 38 181.5 120.5t91.5 196.5h-129q-11 19 -17.5 42t-6.5 45q0 38 16.5 72t43.5 59.5t62 40t72 14.5q39 0 67.5 -13t47 -35.5t27.5 -54t9 -67.5z" />
<glyph unicode="&#x201e;" horiz-adv-x="1081" d="M417 121q0 -89 -39 -170t-102 -147t-142 -114t-160 -70l-21 81q110 37 180.5 119.5t90.5 196.5h-130q-9 20 -14.5 43t-5.5 45q0 38 16 71.5t43 58.5t62 40t72 15q39 0 67 -12.5t46.5 -36t27.5 -54.5t9 -66zM905 121q0 -89 -39 -170t-102 -147t-142 -114t-160 -70l-21 81 q110 37 181 119.5t92 196.5h-131q-10 20 -15.5 43t-5.5 45q0 38 16 71.5t43 58.5t62 40t72 15q39 0 67 -12.5t46.5 -36t27.5 -54.5t9 -66z" />
<glyph unicode="&#x2022;" horiz-adv-x="644" d="M570 731q0 -52 -19.5 -97t-53 -78t-78.5 -52.5t-97 -19.5q-51 0 -96 19.5t-78.5 52.5t-52.5 78t-19 97q0 51 19 96.5t52.5 79t78.5 53t96 19.5q52 0 97 -19.5t78.5 -53t53 -79t19.5 -96.5z" />
<glyph unicode="&#x2024;" horiz-adv-x="683" d="M411 152q0 -36 -14.5 -69t-38.5 -57t-56.5 -38t-69.5 -14t-70 14t-57.5 38t-39 57t-14.5 69q0 38 14.5 70.5t39 57t57.5 39t70 14.5t69.5 -14.5t56.5 -39t38.5 -57t14.5 -70.5z" />
<glyph unicode="&#x2026;" horiz-adv-x="2150" d="M454 152q0 -39 -14.5 -71.5t-39 -56t-57 -37t-68.5 -13.5q-39 0 -71.5 14t-56 38.5t-37 57t-13.5 68.5q0 38 14 70.5t38.5 57t56.5 39t69 14.5q36 0 68.5 -13.5t57 -38.5t39 -58t14.5 -71zM1172 152q0 -39 -14.5 -71.5t-39 -56t-57 -37t-68.5 -13.5q-40 0 -72.5 14 t-56 38.5t-36.5 57t-13 68.5q0 38 14 70.5t38 57t57 39t69 14.5t68 -13.5t56.5 -38.5t39.5 -58t15 -71zM1888 152q0 -39 -14 -71.5t-39 -56t-57.5 -37t-68.5 -13.5q-38 0 -71 14t-56.5 38.5t-37 57t-13.5 68.5q0 38 14 70.5t39 57t57 39t68 14.5t68.5 -13.5t57.5 -38.5 t39 -58t14 -71z" />
<glyph unicode="&#x202f;" horiz-adv-x="429" />
<glyph unicode="&#x2039;" horiz-adv-x="556" d="M495 735l-273 -216l191 -226l-39 -207l-348 347l30 167l480 348z" />
<glyph unicode="&#x203a;" horiz-adv-x="556" d="M486 435l-480 -347l39 211l275 218l-191 225l37 206l347 -346z" />
<glyph unicode="&#x205f;" horiz-adv-x="536" />
<glyph unicode="&#x20ac;" d="M421 569v-17q0 -123 29 -209t75 -141t104.5 -80t117.5 -25q19 0 42.5 3t45 8t38.5 10.5t26 10.5q15 2 21.5 12.5t10.5 22.5l89 283h136l-56 -389q-34 -15 -79.5 -31.5t-98 -30t-112 -22.5t-123.5 -9q-102 0 -182.5 25t-141 67.5t-103 100.5t-69 125.5t-39 140.5 t-12.5 145h-182l28 131h161q3 31 9 61t13 60h-207l22 131h225q42 111 109 206.5t156.5 166t199.5 111.5t240 41q52 0 100 -6.5t95 -18t96 -28.5t103 -37l-56 -378h-136l2 241q2 12 -5.5 28t-21.5 21q-7 4 -26.5 12.5t-44.5 16t-51 13t-46 5.5q-60 0 -122.5 -26t-119.5 -76 t-107 -123.5t-86 -168.5h396l-22 -131h-413q-6 -29 -11 -59t-9 -62h418l-27 -131h-399z" />
<glyph unicode="&#x2122;" horiz-adv-x="1442" d="M628 1262l-15 92q-2 6 -5.5 8.5t-14.5 2.5h-84v-440l74 -16v-53h-273v53l68 16v440h-79q-10 0 -15 -3.5t-7 -7.5l-12 -92h-72v162h502v-162h-67zM1250 856v53l59 16v419l-172 -488h-70l-166 490v-421l65 -16v-53h-201v53l66 16v429l-66 11v59h248v-29l120 -359l121 359 v29h248v-59l-70 -13v-427l70 -16v-53h-252z" />
<glyph unicode="&#x2160;" horiz-adv-x="765" d="M708 1325q-17 -2 -23.5 -11t-9.5 -24l-223 -1140q-4 -18 3.5 -23.5t28.5 -7.5q20 -1 42 -3q19 -3 43 -5t51 -4v-107h-653v107q25 2 47.5 3t40.5 3q21 3 39 4q25 2 36 7.5t14 27.5l224 1141q5 18 -6.5 24t-32.5 8q-19 1 -39 3q-18 2 -40 4t-43 4v107h649v-107z" />
<glyph unicode="&#x2164;" horiz-adv-x="1473" d="M1512 1323l-742 -1358h-247l-211 1332q-3 21 -17.5 26.5t-32.5 5.5q-13 0 -28 1q-12 1 -27 1.5t-29 2.5v109h579v-109q-18 -2 -34 -2.5t-31 -0.5h-32q-17 0 -29.5 -6t-8.5 -26l139 -897l478 897q4 10 2.5 16.5t-6.5 9.5t-12.5 4t-13.5 2h-35q-16 0 -35.5 0.5t-37.5 2.5 v109h529v-107z" />
<glyph unicode="&#x2169;" horiz-adv-x="1451" d="M1415 1325q-23 -2 -34 -11t-16 -15l-470 -527l281 -630q8 -16 17 -19.5t22 -5.5q18 -1 37 -3q16 -1 37.5 -3t46.5 -4v-107h-646v107q21 2 43 3t40 3q20 3 40 4q12 1 22 2t17 4t8.5 9t-2.5 16l-166 379l-346 -379q-8 -8 -5.5 -18.5t20.5 -12.5l136 -10v-107h-591v107 q14 2 30.5 3t28.5 3q15 3 29 4q13 1 22.5 1.5t17 3t14 7t14.5 13.5l533 589l-257 570q-8 18 -18 21t-34 5q-17 0 -35 2q-15 1 -34.5 3t-38.5 4v107h649v-107q-26 -2 -50.5 -4t-45.5 -3q-24 -1 -45 -2q-15 0 -26.5 -6.5t-3.5 -25.5l146 -329l294 329q9 8 11 18t-19 12 l-116 11v107h577v-107z" />
<glyph unicode="&#x216c;" horiz-adv-x="1204" d="M1049 0h-1082v107q23 2 44.5 4t38.5 3l40 3q31 3 41 8.5t13 26.5l224 1141q5 17 -6 23.5t-29 8.5q-19 1 -40 3q-18 2 -40.5 4t-45.5 4v107h649v-107q-28 -2 -52.5 -4t-44.5 -4q-23 -2 -43 -3q-15 -2 -25.5 -9t-15.5 -26l-228 -1161h378q17 0 36.5 8.5t24.5 22.5l88 275 h161z" />
<glyph unicode="&#x216d;" horiz-adv-x="1444" d="M1410 1009h-158l2 241q2 12 -7 28t-26 21q-8 4 -31 12.5t-52 16t-59.5 13t-54.5 5.5q-68 0 -139.5 -24t-138.5 -71t-126 -115t-103.5 -156.5t-70 -195.5t-25.5 -232q0 -123 35.5 -209t93 -141t128 -80t139.5 -25q23 0 50.5 3t52.5 8t45.5 10.5t29.5 10.5q17 2 25.5 12.5 t13.5 22.5l103 283h162l-66 -389q-41 -15 -94 -31.5t-115 -30t-132 -22.5t-145 -9q-121 0 -216 25t-166.5 68.5t-121.5 102t-81 127t-45 142t-14 146.5q0 111 28 221t81.5 210t132 186t179.5 149.5t223.5 99t265.5 35.5q62 0 118.5 -6.5t112 -18t112.5 -28.5t121 -37z" />
<glyph unicode="&#x216e;" horiz-adv-x="1533" d="M1172 909q0 89 -19 153t-51.5 108.5t-77 71.5t-96 42.5t-107.5 21t-111 8.5h-31l-232 -1181h109q95 1 177.5 30.5t150.5 81.5t121.5 124t90.5 157.5t56.5 182.5t19.5 200zM1494 890q0 -192 -67 -355t-193 -282t-307 -186t-408 -67h-552v107q25 2 48 4t41 3q21 2 41 3 q26 2 34 7.5t13 27.5l224 1141q3 18 -8 24t-31 8q-20 1 -40 3q-18 2 -40 4l-44 4v107h558q167 0 302 -30.5t230.5 -97.5t147 -172t51.5 -253z" />
<glyph unicode="&#x216f;" horiz-adv-x="1943" d="M1886 1320q-15 -2 -20.5 -8.5t-10.5 -21.5l-221 -1140q-3 -19 7.5 -24t31.5 -7q19 -1 40 -3q17 -3 39 -5t46 -4v-107h-649v107q24 2 47 4t42 5q22 2 42 3q18 0 31 7t16 26l161 831l-559 -983h-211l-174 968l-152 -818q-6 -18 4 -23.5t25 -7.5q20 -1 41 -3q18 -3 41.5 -5 t48.5 -4v-107h-582v107q22 2 43 4t38 5q20 2 39 3q23 2 37 7t19 26l222 1141q3 18 -7.5 24t-31.5 8q-20 1 -40 3q-18 2 -40 4l-44 4v107h571v-71l164 -904l505 895v80h587v-107z" />
<glyph unicode="&#x2170;" horiz-adv-x="666" d="M663 69q-97 -52 -184 -73.5t-180 -21.5q-59 0 -99 20t-63.5 51.5t-30.5 70.5t1 79l136 714l-185 20v75l355 71h151l-166 -862q-4 -19 -5 -36.5t2.5 -31.5t14 -22.5t29.5 -8.5q8 0 33 5.5t57.5 15t67.5 23t66 29.5v-118zM634 1426q0 -35 -13 -65.5t-36 -53.5t-53.5 -36 t-65.5 -13q-34 0 -64 13t-52.5 36t-35.5 53.5t-13 65.5t13 65t35.5 52.5t52.5 35.5t64 13q35 0 65.5 -13t53.5 -35.5t36 -52.5t13 -65z" />
<glyph unicode="&#x2174;" horiz-adv-x="1094" d="M1106 938q0 -28 -5.5 -53t-13 -46t-15.5 -37.5t-14 -25.5q-72 -132 -155 -252.5t-164.5 -223.5t-154 -185.5t-124.5 -140.5h-210q27 55 39 96.5t10 77.5q0 3 -2 32t-5.5 74t-9 103.5t-11.5 120.5t-13.5 125t-15.5 117t-16.5 96.5t-16.5 63.5q-5 11 -9 18.5t-9 11.5 t-13.5 5t-23.5 1q-22 1 -46 3q-21 1 -47.5 2t-54.5 2v77l256 75q112 -2 172.5 -41t68.5 -120l59 -555q39 54 76 101.5t69.5 94.5t60.5 94t49 98l-60 273q27 26 73.5 40.5t96.5 14.5q38 0 70.5 -9.5t56.5 -27.5t38 -43.5t14 -56.5z" />
<glyph unicode="&#x2179;" horiz-adv-x="1239" d="M1260 940q0 -21 -3 -49.5t-17.5 -53.5t-45 -43t-84.5 -18l-95 112q-26 -19 -60.5 -51.5t-71 -76t-70 -96.5t-58.5 -114q5 -19 16.5 -53t26 -74t30 -81t30.5 -73q15 -33 26 -62t22.5 -51t25 -34.5t32.5 -12.5q8 0 22.5 1t34.5 7.5t47 19.5t63 37v-125q-37 -22 -72.5 -36 t-72.5 -23t-77.5 -12.5t-87.5 -3.5q-52 0 -96.5 35t-80 88.5t-62 116.5t-42.5 119q-9 -14 -26.5 -45.5t-44.5 -71.5t-60.5 -83t-73.5 -78t-84 -58t-91 -23q-38 0 -74 8.5t-63.5 24.5t-44.5 40t-17 56q0 25 6.5 54.5t26 54.5t56 42t96.5 17l82 -127q28 24 61.5 59.5 t68.5 81.5t67 100.5t57 117.5q-5 21 -16 58t-26 80.5t-31 88.5t-32 81.5t-29 60.5t-21 25l-213 26v66q13 5 38.5 13.5t57.5 18t65.5 19t63 17.5t51.5 13t29 5q50 0 89.5 -24t71.5 -68.5t58.5 -107.5t49.5 -142q38 57 83 117t96 110.5t105.5 82.5t111.5 32q32 0 64 -10 t57 -27.5t40 -43t15 -54.5z" />
<glyph unicode="&#x217c;" horiz-adv-x="658" d="M654 62q-79 -40 -169.5 -64t-174.5 -24q-107 0 -166.5 44.5t-59.5 119.5q0 17 1.5 36.5t6.5 40.5l235 1207l-189 16v78l363 68h142l-265 -1365q-3 -18 -2.5 -36.5t6.5 -34t19 -25t34 -9.5q25 0 84 15.5t135 48.5v-116z" />
<glyph unicode="&#x217d;" horiz-adv-x="1034" d="M968 916q0 -19 -9.5 -47.5t-33 -54.5t-63.5 -44.5t-101 -18.5l-118 167q-61 -14 -105 -50.5t-74.5 -86t-50 -106.5t-30 -109.5t-14.5 -95t-4 -64.5q0 -49 4.5 -98t19.5 -87.5t45 -63t83 -24.5q39 0 80 11.5t89 43t105 87t130 142.5v-214q-44 -53 -94.5 -95t-109 -72 t-125 -46t-143.5 -16q-98 0 -169.5 29.5t-117.5 83t-68.5 129t-22.5 167.5q0 140 44 265.5t127.5 220.5t203.5 150.5t274 55.5q64 0 111 -15t77.5 -38.5t45 -51.5t14.5 -54z" />
<glyph unicode="&#x217e;" horiz-adv-x="1216" d="M808 847q2 5 -5.5 21.5t-20 35.5t-30 33.5t-36.5 14.5q-57 0 -118 -42t-113 -118t-86 -182t-34 -234q0 -130 31.5 -189.5t91.5 -59.5q28 0 55.5 13.5t55.5 37t55.5 52t55.5 60.5zM979 193q-6 -26 -3 -43.5t8.5 -27.5t14 -13.5t14.5 -3.5q22 0 49.5 7t55.5 17t52.5 21 t42.5 20v-106q-28 -16 -66.5 -32t-82.5 -29t-90 -21t-88 -8q-82 0 -129 27t-65 77q-28 -22 -61.5 -41t-68.5 -33t-70.5 -22t-70.5 -8q-93 0 -160 34.5t-109.5 90.5t-62.5 125.5t-20 138.5q0 82 18 167t54 164t90.5 148.5t126.5 121t163 81.5t199 30q40 0 72 -9.5t53 -16.5 l64 373l-193 16v78l363 68h146z" />
<glyph unicode="&#x217f;" horiz-adv-x="1776" d="M1770 62q-82 -42 -158 -65t-159 -23q-49 0 -91.5 10t-73 30.5t-45.5 49.5t-6 69l117 573q44 201 -40 201q-48 0 -89.5 -20.5t-73.5 -48.5t-55 -57.5t-33 -47.5l-156 -733h-283l148 708q6 31 12 66.5t3 64.5t-17.5 48.5t-49.5 19.5q-33 0 -68 -18.5t-66.5 -45.5t-59 -58 t-48.5 -56l-154 -729h-285l189 914l-181 17v73l355 71h148l-25 -123q78 54 159.5 88.5t156.5 34.5q44 0 79.5 -12.5t62.5 -33t46 -46.5t31 -54q42 32 89.5 58.5t96 46t95.5 30.5t89 11q57 0 105 -20t80.5 -56.5t45.5 -88.5t-1 -116l-123 -579q-9 -46 2.5 -77t52.5 -31 q10 0 31 4.5t46.5 11.5t51.5 17t49 22v-100z" />
<glyph unicode="&#x2219;" horiz-adv-x="404" d="M329 731q0 -26 -10 -49.5t-27 -40.5t-40 -27t-49 -10q-28 0 -51 10t-39.5 27t-26.5 40.5t-10 49.5t10 49.5t26.5 40.5t39.5 27t51 10q26 0 49 -10t40 -27t27 -40.5t10 -49.5z" />
<glyph unicode="&#x25fc;" horiz-adv-x="1076" d="M0 1076h1076v-1076h-1076v1076z" />
<glyph unicode="&#xfb01;" horiz-adv-x="1444" d="M1441 69q-49 -26 -94 -44t-89 -29.5t-88.5 -16.5t-92.5 -5q-59 0 -98.5 20t-63 51.5t-30 70.5t0.5 79l127 665h-467q-4 -30 -12.5 -90.5t-19.5 -138t-24 -163.5t-25.5 -165.5t-24.5 -146.5t-21 -105q-14 -56 -39 -118.5t-60.5 -123t-80.5 -115t-98 -96t-114 -66 t-128 -24.5q-46 0 -79.5 16t-55.5 39t-32.5 49.5t-10.5 45.5q0 43 27 86t71 73l194 -123q25 36 46 84t38 105t32.5 121.5t28.5 133.5q27 149 48.5 329.5t51.5 386.5l-164 -17l5 101l185 64q10 53 28 116.5t46 128.5t67 125.5t92.5 108t122.5 75.5t156 28q60 0 104.5 -14.5 t75 -36t45.5 -46.5t15 -46q0 -25 -7 -48.5t-27.5 -43.5t-57 -35.5t-92.5 -23.5l-134 128q-44 -39 -70.5 -97t-42.5 -119.5t-23.5 -118.5t-13.5 -96h302l324 88h150l-168 -862q-4 -19 -5 -36.5t2.5 -31.5t14 -22.5t29.5 -8.5q9 0 34.5 5.5t57.5 15t67 23t65 29.5v-118z M1415 1426q0 -35 -13 -65.5t-36 -53.5t-53.5 -36t-65.5 -13q-34 0 -64.5 13t-53.5 36t-36.5 53.5t-13.5 65.5t13.5 65t36.5 52.5t53.5 35.5t64.5 13q35 0 65.5 -13t53.5 -35.5t36 -52.5t13 -65z" />
<glyph unicode="&#xfb02;" horiz-adv-x="1436" d="M1034 1428q-2 -24 -11 -45.5t-29.5 -40t-55 -31.5t-86.5 -21l-134 128q-44 -39 -70.5 -97t-42.5 -119.5t-23.5 -118.5t-13.5 -96h454l84 435zM1432 62q-78 -40 -168.5 -64t-175.5 -24q-105 0 -165.5 44.5t-60.5 119.5q0 17 2.5 36.5t5.5 40.5l125 645h-449 q-4 -30 -12.5 -90.5t-19.5 -138t-24 -163.5t-25.5 -165.5t-24.5 -146.5t-21 -105q-14 -56 -39 -118.5t-60.5 -123t-80.5 -115t-98 -96t-114 -66t-128 -24.5q-46 0 -79.5 16t-55.5 39t-32.5 49.5t-10.5 45.5q0 43 27 86t71 73l194 -123q25 36 46 84t38 105t32.5 121.5 t28.5 133.5q27 149 48.5 329.5t51.5 386.5l-164 -17l5 101l185 64q10 53 28 116.5t46 128.5t67 125.5t92.5 108t122.5 75.5t156 28q63 0 109.5 -16.5t77.5 -40.5l297 57h144l-265 -1365q-4 -18 -3.5 -36.5t7 -34t19 -25t31.5 -9.5q26 0 85 15.5t134 48.5v-116z" />
<glyph unicode="&#xfb03;" horiz-adv-x="2226" />
<glyph unicode="&#xfb04;" horiz-adv-x="2214" />
<glyph horiz-adv-x="666" d="M663 69q-97 -52 -184 -73.5t-180 -21.5q-59 0 -99 20t-63.5 51.5t-30.5 70.5t1 79l136 714l-185 20v75l355 71h151l-166 -862q-4 -19 -5 -36.5t2.5 -31.5t14 -22.5t29.5 -8.5q8 0 33 5.5t57.5 15t67.5 23t66 29.5v-118z" />
<glyph horiz-adv-x="577" d="M411 152q0 -36 -14.5 -69t-38.5 -57t-56.5 -38t-69.5 -14t-70 14t-57.5 38t-39 57t-14.5 69q0 38 14.5 70.5t39 57t57.5 39t70 14.5t69.5 -14.5t56.5 -39t38.5 -57t14.5 -70.5zM556 890q0 -36 -13.5 -68.5t-37.5 -57t-56.5 -38.5t-70.5 -14q-37 0 -70 14t-57.5 38.5 t-39 57t-14.5 68.5q0 37 14.5 70t39 58t57.5 39t70 14q38 0 70.5 -14t56.5 -39t37.5 -58t13.5 -70z" />
<glyph horiz-adv-x="748" d="M466 1406q0 -30 -11.5 -57t-31.5 -47.5t-47 -32t-58 -11.5q-30 0 -57.5 11.5t-47.5 32t-31.5 47.5t-11.5 57t11.5 57.5t31.5 48t47.5 32t57.5 11.5q31 0 58 -11.5t47 -32t31.5 -48t11.5 -57.5zM918 1406q0 -30 -11.5 -57t-31.5 -47.5t-47.5 -32t-57.5 -11.5 q-31 0 -57.5 11.5t-46.5 32t-31 47.5t-11 57t11 57.5t31 48t46.5 32t57.5 11.5q30 0 57.5 -11.5t47.5 -32t31.5 -48t11.5 -57.5z" />
</font>
</defs>
</svg>
